<?xml version="1.0" encoding="UTF-8"?>
<svg width="571px" height="548px" viewBox="0 0 571 548" version="1.1" xmlns="http://www.w3.org/2000/svg" xmlns:xlink="http://www.w3.org/1999/xlink">
    <title>404</title>
    <defs>
        <rect id="path-1" x="0.367099911" y="0" width="570" height="548"></rect>
        <filter id="filter-3">
            <feColorMatrix in="SourceGraphic" type="matrix" values="0 0 0 0 1.000000 0 0 0 0 1.000000 0 0 0 0 1.000000 0 0 0 0.500000 0"></feColorMatrix>
        </filter>
        <filter id="filter-4">
            <feColorMatrix in="SourceGraphic" type="matrix" values="0 0 0 0 1.000000 0 0 0 0 0.996078 0 0 0 0 0.956863 0 0 0 1.000000 0"></feColorMatrix>
        </filter>
        <polygon id="path-5" points="0 0.424720926 34.9784714 0.424720926 34.9784714 86.9897021 0 86.9897021"></polygon>
        <polygon id="path-7" points="0.0506345885 0.0559727399 24.4338043 0.0559727399 24.4338043 21.0398979 0.0506345885 21.0398979"></polygon>
        <polygon id="path-9" points="0.0552838623 0.106708488 77.7198781 0.106708488 77.7198781 25.2166599 0.0552838623 25.2166599"></polygon>
    </defs>
    <g id="error" stroke="none" stroke-width="1" fill="none" fill-rule="evenodd">
        <g id="error-page" transform="translate(-181.000000, -164.000000)">
            <g id="404" transform="translate(181.000000, 164.000000)">
                <mask id="mask-2" fill="white">
                    <use xlink:href="#path-1"></use>
                </mask>
                <g id="Mask"></g>
                <g filter="url(#filter-3)" id="Group-2">
                    <g mask="url(#mask-2)">
                        <g transform="translate(274.660885, 379.930246) rotate(-15.000000) translate(-274.660885, -379.930246) translate(-17.839115, 333.430246)" fill="#8392B3">
                            <polygon id="Fill-1" points="352.865996 33.8821422 348.214363 36.0874944 358.964541 39.9101839 353.939099 46.0411579 358.964541 49.4674991 353.939099 55.2009418 356.946888 58.727849 472.598597 58.727849 472.598597 33.8821422"></polygon>
                            <polygon id="Fill-2" points="0 34.3922286 0 59.2379355 181.377775 59.2379355 188.566447 54.7550601 180.67113 50.9335538 188.566447 46.5512443 182.660744 42.3322067 190.234711 34.3922286"></polygon>
                            <path d="M515.197768,92.8651927 L510.297267,92.8651927 C483.909297,92.8651927 462.517386,72.2533179 462.517386,46.8275594 C462.517386,21.4018008 483.909297,0.789926071 510.297267,0.789926071 L515.197768,0.789926071 L515.197768,92.8651927 Z" id="Fill-1"></path>
                            <path d="M575.279032,26.8781314 L531.351104,26.8781314 C526.12843,26.8781314 521.853174,22.6020208 521.853174,17.3783023 C521.853174,12.1533963 526.12843,7.87847323 531.351104,7.87847323 L575.279032,7.87847323 C580.502894,7.87847323 584.776963,12.1533963 584.776963,17.3783023 C584.776963,22.6020208 580.502894,26.8781314 575.279032,26.8781314" id="Fill-4"></path>
                            <path d="M574.637003,84.1911686 L530.709075,84.1911686 C525.4864,84.1911686 521.211144,79.915058 521.211144,74.6913395 C521.211144,69.4664335 525.4864,65.1915104 530.709075,65.1915104 L574.637003,65.1915104 C579.860865,65.1915104 584.134933,69.4664335 584.134933,74.6913395 C584.134933,79.915058 579.860865,84.1911686 574.637003,84.1911686" id="Fill-6"></path>
                        </g>
                    </g>
                </g>
                <g filter="url(#filter-4)" id="Group-4">
                    <g mask="url(#mask-2)">
                        <g transform="translate(21.367100, 1.000000)" fill="#FF5C75">
                            <path d="M31.6100474,225.351051 C26.1870805,206.514859 26.5712934,189.641136 32.7492205,175.198061 C38.8158336,161.019875 48.7147006,152.2046 63.0131637,148.247979 C67.9055937,146.894491 72.5358971,146.208066 76.7774992,146.208066 C84.614364,146.208066 91.255501,148.467107 97.0806346,153.113673 C106.512701,160.642341 114.260694,174.762445 120.109168,195.081491 C125.793363,214.824995 125.781693,232.484586 120.076851,247.571844 C114.539877,262.220847 104.4112,271.343253 89.1118088,275.576204 C85.8531812,276.476476 82.6403359,276.87865 79.5612469,276.87865 L79.5603492,276.87865 C71.2135945,276.87865 63.478169,273.696457 55.9097145,267.037259 C44.9946585,257.433476 36.8193631,243.444497 31.6100474,225.351051 M114.017419,133.366648 C104.444415,126.913377 93.4252264,123.640541 81.2668647,123.640541 C74.2576734,123.640541 66.7403874,124.73706 58.9223741,126.899297 C35.7825271,133.302405 18.9184557,146.905051 8.79875615,167.33058 C-1.20873173,187.526421 -2.68723304,210.253232 4.40275076,234.880031 C11.0304224,257.902533 22.7408349,275.405478 39.207228,286.905728 C50.6959103,294.930735 63.0948538,299 76.0611397,299 C82.054142,299 88.2589999,298.124369 94.5024587,296.396867 C118.494217,289.75967 135.26403,275.571804 144.346894,254.228402 C153.233163,233.355817 154.101232,210.135308 146.926865,185.213698 C139.897027,160.797227 128.825772,143.355004 114.017419,133.366648" id="Fill-1"></path>
                            <path d="M220.981525,235.445314 L220.980635,235.445314 C215.521797,235.445314 210.478489,233.452179 205.563311,229.353242 C198.152282,223.17354 192.737044,214.139605 189.468859,202.502702 C185.943526,189.948367 186.109027,178.314146 189.960021,167.921052 C193.620601,158.038537 199.15774,152.169117 206.886423,149.976579 C209.868096,149.131576 212.691388,148.702368 215.276216,148.702368 C220.122881,148.702368 224.262167,150.173299 227.929865,153.196534 C234.046255,158.243305 239.098461,167.751157 242.947676,181.458095 C246.569105,194.355797 246.63228,206.24933 243.133641,216.806954 C239.856558,226.694835 234.89956,232.455164 227.979693,234.417897 C225.575491,235.099265 223.221117,235.445314 220.981525,235.445314 M244.099949,132.347753 C232.768522,125.594879 219.405714,124.266123 204.627256,128.455372 C187.242614,133.3859 174.605871,143.766475 167.067603,159.31096 C159.644117,174.624745 158.611965,192.119444 164.0014,211.306832 C168.747519,228.21137 177.313491,240.998193 189.457292,249.310522 C197.666459,254.934936 206.708466,257.786486 216.328833,257.786486 C221.238673,257.786486 226.372739,257.036267 231.588666,255.557287 C248.62985,250.723332 260.589465,239.641716 267.134732,222.620041 C273.454883,206.190314 273.595469,186.951064 267.553821,165.435222 C263.277509,150.209067 255.386886,139.078271 244.099949,132.347753" id="Fill-4"></path>
                            <path d="M332.911472,199.540514 C332.569231,199.540514 332.230564,199.530708 331.884749,199.510203 C330.460383,199.428184 329.079802,199.152707 327.708157,198.673965 C325.683306,193.188495 323.638796,187.257268 321.617518,181.007772 C319.310296,173.868548 316.978946,166.144492 314.689595,158.050458 L312.523558,150.392374 C313.121363,139.359027 315.421437,130.446586 319.366591,123.892193 C323.192006,117.537499 328.406043,113.503409 335.307159,111.559914 C340.60698,110.069307 345.107047,110.849379 349.368529,114.039208 C353.997271,117.506296 357.496529,123.340348 359.769796,131.378216 C364.419984,147.816797 364.45126,162.808455 359.862728,175.936854 C355.474358,188.500035 348.706386,195.911171 339.170997,198.596404 C336.94509,199.223136 334.838923,199.540514 332.911472,199.540514 M366.719165,92.5127696 C357.072972,85.7577866 346.026541,83.9658484 334.282223,87.2724647 C324.994356,89.8881596 316.96733,94.7504636 310.422752,101.728325 C309.001961,103.243894 307.66874,104.8397 306.423983,106.513067 C306.449897,105.194521 306.49547,103.855471 306.560701,102.500374 C306.636655,100.905459 306.045106,99.3506632 304.927237,98.2068539 C303.808476,97.0648276 302.270625,96.4505761 300.663969,96.4755385 C299.187775,96.5103074 297.805407,96.6529493 296.53295,96.9043555 C295.454399,97.1218843 294.207856,97.4294558 292.830849,97.8172633 C290.18496,98.562567 287.733871,99.4719088 285.541027,100.523892 C283.269547,101.615994 281.065086,103.009427 278.991088,104.663181 C277.407664,105.926452 276.60523,107.926113 276.876878,109.930231 C277.799946,116.708393 279.038447,123.581947 280.560214,130.360109 C282.054279,137.037531 284.004963,144.637667 286.356865,152.951904 C291.392186,170.75004 298.082417,190.547837 306.241693,211.793449 C314.412586,233.081853 322.639774,252.351876 330.695394,269.072175 C331.673864,271.10393 333.720161,272.332432 335.890666,272.332432 C336.409836,272.332432 336.936155,272.262003 337.457112,272.115795 C339.824204,271.449836 342.240444,270.6029 344.648641,269.5946 C347.003223,268.60324 349.395336,267.436251 351.758854,266.125729 C354.503931,264.603919 355.523505,261.169816 354.050886,258.401673 C349.550819,249.938554 345.612813,242.02728 342.347673,234.88449 C340.203975,230.204054 338.124616,225.404156 336.135507,220.545418 C338.789439,220.163851 341.715912,219.525529 344.842548,218.645607 C362.577423,213.652251 375.698747,201.675684 383.841045,183.047551 C391.809095,164.826838 392.75897,144.667087 386.666544,123.129951 C382.770536,109.35788 376.059753,99.0564644 366.719165,92.5127696" id="Fill-6"></path>
                            <path d="M484.445338,128.819901 C478.412486,124.459607 467.927462,120.478741 452.401473,116.653056 C435.86548,112.545714 428.761932,109.160454 425.709273,107.039957 C421.763462,104.305018 419.266984,100.943976 418.075813,96.7639779 C416.679923,91.8681772 417.876529,89.2328048 418.900121,87.6729299 C420.639322,85.0178236 423.855937,83.0184209 428.463007,81.7312326 C433.877175,80.2188984 438.322101,80.4619841 442.010655,82.5178975 C445.965525,84.7289911 449.672196,89.397852 453.030121,96.3953128 C454.38706,99.2226422 457.768537,100.470363 460.66177,99.2091873 C462.684496,98.3274409 464.767914,97.3434369 466.853143,96.2840854 C468.971888,95.206794 471.038094,94.0604339 472.993789,92.874606 C475.622518,91.2815423 476.549186,87.9402345 475.112534,85.2411755 C468.995439,73.7452828 461.678115,65.9782 453.362562,62.1552057 C444.952803,58.2927437 434.779385,57.9608554 423.202831,61.1954207 C410.968642,64.614767 401.965561,70.2030481 396.447223,77.8041869 C390.623618,85.8197375 389.157074,95.0991545 392.088351,105.386794 C394.313079,113.192448 398.81779,119.649021 405.476573,124.578907 C411.78661,129.250459 422.744479,133.51926 438.938067,137.617632 C454.781098,141.742017 461.554922,144.965818 464.444531,146.941002 C468.112252,149.451692 470.432092,152.55709 471.537209,156.435698 C472.923134,161.301001 472.540872,165.382329 470.366872,168.908418 C468.103193,172.582511 464.222602,175.145227 458.504074,176.742776 C455.584572,177.559042 452.820874,177.972556 450.292692,177.972556 C446.331482,177.972556 442.883879,176.990347 439.753318,174.967622 C434.531187,171.59761 430.82361,165.569802 428.733851,157.051934 C427.982915,153.993179 424.901269,152.090652 421.796977,152.766987 C419.081288,153.359004 416.492416,154.126832 414.103732,155.048046 C411.776646,155.944144 409.274733,157.082431 406.453967,158.528388 C403.989194,159.79046 402.761789,162.596262 403.515443,165.240604 C407.343496,178.668625 414.951593,188.457535 426.12958,194.335546 C432.776587,197.83024 440.054055,199.602703 447.759981,199.602703 C452.862542,199.602703 458.247723,198.82142 463.765156,197.278588 C476.438674,193.736353 486.030547,187.208918 492.27627,177.875681 C498.704971,168.263479 500.369893,157.795543 497.224839,146.7625 C495.155009,139.497734 490.856829,133.461852 484.445338,128.819901" id="Fill-8"></path>
                            <path d="M522.690815,123.935271 C523.766148,123.623866 524.694375,123.308932 525.501305,122.983413 C526.345226,122.649072 527.187427,122.264447 528.002959,121.841889 C530.449556,120.574215 531.62726,117.666593 530.776457,114.99451 C523.920996,93.4678739 518.189042,73.4956161 513.738025,55.6317372 C509.306793,37.8613679 505.770239,20.7508595 503.225572,4.77393546 C502.73522,1.70311261 499.937634,-0.39379802 496.931004,0.0622822475 C493.735115,0.549238355 492.592681,0.823592249 491.954364,1.00796512 L489.609278,1.68723361 C487.735618,2.22888406 485.925618,2.93461755 484.221431,3.78855507 C482.581763,4.61426325 480.75972,5.71344316 478.651207,7.14961081 C476.91519,8.33171441 475.971478,10.4118639 476.206331,12.5343573 C476.368921,14.0005187 476.731953,15.7401517 477.312633,17.8494127 L479.473622,25.7015799 C484.247239,43.0449804 488.976982,59.1948092 493.531232,73.7038075 C498.11387,88.2939653 503.498276,104.358224 509.533904,121.535777 C510.327929,123.795888 512.419237,125.256757 514.754859,125.256757 L514.870135,125.256757 C516.325705,125.256757 517.727079,125.107671 519.006295,124.832434 C520.09023,124.604835 521.295463,124.339303 522.690815,123.935271" id="Fill-10"></path>
                            <path d="M547.783133,156.754414 C547.622967,156.213007 547.245369,155.115724 545.92467,151.517416 C544.943988,148.8538 544.014309,146.391083 543.160687,144.197367 C542.205954,141.74146 539.560082,140.268767 536.842627,140.679078 C534.189597,141.077471 531.600096,141.615472 529.145708,142.275205 C526.724427,142.924722 523.987287,143.813445 521.01124,144.915837 C518.417266,145.876066 516.913136,148.460514 517.4339,151.061988 C517.868764,153.234423 518.422634,155.460487 519.081194,157.679741 C519.736175,159.884524 520.51911,162.173582 521.409418,164.484774 C522.257672,166.683598 524.449889,168.086486 526.827327,168.086486 C527.235347,168.086486 527.649632,168.044774 528.063021,167.959648 C529.985909,167.559552 531.883743,167.167969 532.757945,167.011336 C533.777102,166.824057 534.696044,166.618901 535.566667,166.384803 C536.897209,166.028122 538.302912,165.613554 539.880414,165.112158 C541.586764,164.563942 543.250165,163.904209 544.824087,163.149135 C547.291897,161.965873 548.532066,159.285232 547.783133,156.754414" id="Fill-12"></path>
                        </g>
                    </g>
                </g>
                <g id="Group" mask="url(#mask-2)">
                    <g transform="translate(147.367100, 193.000000)">
                        <g id="Group-54" stroke-width="1" fill="none">
                            <g id="Group-3" transform="translate(0.000000, 34.552992)">
                                <mask id="mask-6" fill="white">
                                    <use xlink:href="#path-5"></use>
                                </mask>
                                <g id="Clip-2"></g>
                                <path d="M28.034347,86.9897021 C13.5956494,62.1630099 5.32577546,15.9824113 5.32577546,15.9824113 C5.32577546,15.9824113 -1.82859995,8.51964765 0.446199413,6.13530342 C2.19975143,4.2988324 5.81782127,10.4277074 5.81782127,10.4277074 C5.81782127,10.4277074 3.2437062,2.38638963 5.28635339,1.18106855 C7.32608042,-0.0271745115 9.54831702,9.04998893 9.54831702,9.04998893 C9.54831702,9.04998893 9.70892545,-0.000876597145 11.5705231,0.440343966 C13.4292007,0.884486519 13.8292617,10.2363171 13.8292617,10.2363171 C13.8292617,10.2363171 16.9669663,6.81174422 18.5920316,8.13978889 C20.4521692,9.65484096 15.6499772,14.6543667 15.6499772,14.6543667 C22.5941016,55.5169426 34.9784714,81.7082043 34.9784714,81.7082043 L28.034347,86.9897021 Z" id="Fill-1" fill="#268267" mask="url(#mask-6)"></path>
                            </g>
                            <path d="M77.8451527,229.268156 C40.0043471,249.847735 26.0795965,269.986093 20.3940581,269.771327 C16.5890985,269.631071 7.35557396,253.850862 9.65665471,250.627906 C11.9591955,247.402029 20.3852977,256.708569 20.3852977,256.708569 C20.3852977,256.708569 45.700106,231.737238 71.5011198,221.169859 L77.8451527,229.268156 Z" id="Fill-4" fill="#268267"></path>
                            <g id="Group-8" transform="translate(81.764290, 0.447065)">
                                <mask id="mask-8" fill="white">
                                    <use xlink:href="#path-7"></use>
                                </mask>
                                <g id="Clip-7"></g>
                                <path d="M19.2582645,18.8316609 C19.2582645,18.8316609 26.9382675,12.7407717 23.5873917,9.76910741 C20.2335957,6.80036507 14.9320575,13.5004893 14.9320575,13.5004893 C14.9320575,13.5004893 21.1081816,-0.168582229 14.78897,0.0578720337 C8.46683827,0.284326296 9.37938616,11.6625572 9.37938616,11.6625572 C9.37938616,11.6625572 4.35964276,0.48594364 0.912401876,3.36994825 C-2.53629909,6.25395285 5.47952152,16.4487777 5.47952152,16.4487777 C5.47952152,16.4487777 9.05962938,24.935699 19.2582645,18.8316609" id="Fill-6" fill="#5BAA17" mask="url(#mask-8)"></path>
                            </g>
                            <path d="M151.271092,159.201016 C154.848279,166.403722 158.440068,173.051251 160.909057,180.604596 C157.228204,182.942188 132.625913,197.87356 97.4380668,200.576401 C59.2132611,203.527611 28.0844277,190.247165 28.0844277,190.247165 L27.7354693,190.320214 C25.8651112,181.422753 24.8153161,171.853234 24.4634377,161.845417 L25.251879,161.816197 C25.251879,161.816197 43.6926467,172.379193 88.9272802,173.15352 C130.202186,173.854798 148.425402,161.377899 151.271092,159.201016" id="Fill-9" fill="#268267"></path>
                            <path d="M139.31394,121.638974 C140.000176,127.424515 141.066032,132.552609 142.380101,137.227793 C97.0885245,155.300304 42.4086553,143.261704 25.2804965,134.598002 L25.0775459,134.583392 C25.5447704,128.169623 26.2310064,121.682804 27.1055923,115.152155 C32.4509328,117.153719 84.5902686,135.737578 138.948921,121.682804 L139.31394,121.638974 Z" id="Fill-11" fill="#268267"></path>
                            <path d="M162.397021,185.966302 C168.368735,211.519109 159.812686,253.844141 89.1011753,249.388106 C52.9642792,247.108953 34.68412,223.309341 27.7356154,190.320068 L28.0845737,190.247018 C28.0845737,190.247018 59.2134071,203.527465 97.4382128,200.576255 C132.626059,197.873414 157.22835,182.942042 160.907743,180.60445 C161.462572,182.343034 161.973599,184.125448 162.397021,185.966302" id="Fill-13" fill="#7EBC13"></path>
                            <path d="M142.379517,137.227647 C144.788643,145.73064 148.030013,152.684977 151.271384,159.201016 C148.425694,161.377899 130.202478,173.854798 88.9275722,173.15352 C43.6929387,172.379193 25.252171,161.816197 25.252171,161.816197 L24.4637297,161.845417 C24.1571136,153.035616 24.3907258,143.904395 25.0769618,134.583246 L25.2813726,134.597856 C42.4080713,143.261558 97.0879404,155.300158 142.379517,137.227647" id="Fill-15" fill="#66C6A8"></path>
                            <path d="M139.31394,121.638974 L138.948921,121.682804 C84.5902686,135.737578 32.4509328,117.153719 27.1055923,115.152155 C28.624072,103.771002 30.7280424,92.3167996 33.2393741,81.0671362 C50.4244759,3.9996372 94.1975728,16.5057565 107.513471,20.7864725 C137.78086,30.5313108 141.049971,52.3877996 138.715309,99.855535 C138.306487,108.066328 138.583902,115.239815 139.31394,121.638974" id="Fill-17" fill="#7EBC13"></path>
                            <path d="M59.1265325,84.573297 C61.4334536,84.5441588 65.8866872,92.3604833 66.1202995,92.7841719 C63.0833401,93.689989 58.8345172,93.6461591 55.2704702,92.3750933 L55.4018771,91.9806246 C55.4018771,91.9806246 56.7466076,84.6025986 59.1265325,84.573297" id="Fill-19" fill="#FFFFFF"></path>
                            <path d="M66.1204455,92.784318 C65.8868332,92.3606294 61.4335996,84.5443049 59.1266785,84.5735248 C56.7467536,84.6027447 55.4020231,91.9807707 55.4020231,91.9807707 L55.2706162,92.3752394 C49.8989943,90.4467257 46.0735936,85.6984911 50.2640135,77.0786192 C53.0673606,71.3222979 57.592138,68.1081084 62.4264517,66.3549141 L62.4848547,66.5156236 C62.4848547,66.5156236 65.4196087,75.5007443 68.0331459,75.2231552 C70.6320822,74.9601761 72.4265164,64.7478194 72.4265164,64.7478194 L72.4133757,64.3825705 C76.4577879,64.1195914 80.0203749,64.3679606 82.1374859,64.3971805 C87.5675109,64.4702303 92.3434215,64.9961885 96.5046398,65.9020056 L96.3863736,66.384134 C96.3863736,66.384134 95.7877422,77.2977685 97.9355149,78.2328054 C100.081828,79.1532324 106.855123,70.065842 106.855123,70.065842 L107.133998,69.5544937 C117.382275,74.8432965 120.172482,83.3170689 116.33248,90.6074351 C111.790182,99.2126971 105.133693,98.1900004 98.5633479,95.881628 C98.1983287,94.7420517 95.497187,86.5458684 93.2778705,86.341329 C90.9110863,86.1367897 86.7075257,91.6301318 86.7075257,91.6301318 L86.6622634,91.878501 C79.7853025,90.3736759 72.5433225,90.4467257 66.7920807,92.5651688 C66.5730692,92.6382185 66.3525977,92.7112683 66.1204455,92.784318" id="Fill-21" fill="#1E120D"></path>
                            <path d="M93.2772865,86.3410368 C95.498063,86.5455762 98.1977447,94.7417595 98.5627638,95.8813358 C96.4018504,95.1216182 94.240937,94.2158012 92.1676283,93.4706936 C90.3877949,92.8278557 88.5466382,92.3018974 86.6631394,91.8782088 L86.7069417,91.6298396 C86.7069417,91.6298396 90.9119624,86.1364975 93.2772865,86.3410368" id="Fill-23" fill="#FFFFFF"></path>
                            <path d="M107.133706,69.5539093 L106.856291,70.0652576 C106.856291,70.0652576 100.081536,79.152648 97.9352229,78.232221 C95.7874502,77.2971841 96.3875417,66.3835496 96.3875417,66.3835496 L96.5043478,65.9014212 C100.664106,66.7780183 104.198952,68.0344742 107.133706,69.5539093" id="Fill-25" fill="#FFFFFF"></path>
                            <path d="M72.4126457,64.38184 L72.4272464,64.7470889 C72.4272464,64.7470889 70.6313522,74.9594456 68.0324158,75.2224247 C65.4188787,75.5000138 62.4841247,66.5148931 62.4841247,66.5148931 L62.4257216,66.3541836 C65.7546963,65.1269476 69.2442794,64.6009893 72.4126457,64.38184" id="Fill-27" fill="#FFFFFF"></path>
                            <path d="M75.8204645,49.2291279 C75.8788675,54.7750658 71.4913373,59.3173 66.0218903,59.3742789 C60.5509833,59.4327187 56.068548,54.9883711 56.0072248,49.4424332 C55.9488218,43.8979563 60.336352,39.355722 65.805799,39.2972822 C71.2781661,39.2388424 75.7606013,43.6846509 75.8204645,49.2291279" id="Fill-29" fill="#62A51B"></path>
                            <path d="M99.5353209,39.7025623 C99.5937239,45.2470393 95.2061937,49.7892735 89.7382068,49.8477133 C84.2643795,49.9061531 79.7834044,45.4603446 79.7235413,39.9158676 C79.6651382,34.3713907 84.0526684,29.8291565 89.5221154,29.7707167 C94.9930225,29.7122769 99.4754577,34.1595464 99.5353209,39.7025623" id="Fill-31" fill="#62A51B"></path>
                            <path d="M121.925596,56.4433763 C121.983999,61.9878532 117.597929,66.5286265 112.125561,66.5885273 C106.656114,66.6469671 102.172219,62.1996975 102.112356,56.6566816 C102.053953,51.1122047 106.441483,46.5699705 111.91239,46.5115306 C117.381837,46.4530908 121.864273,50.8988994 121.925596,56.4433763" id="Fill-33" fill="#62A51B"></path>
                            <path d="M73.7572302,46.683782 C74.6814587,51.7782724 71.3568643,56.6448475 66.3327406,57.5565086 C61.308617,58.4696306 56.485984,55.0830436 55.5602954,49.9900142 C54.637527,44.8969848 57.9635815,40.0304097 62.984785,39.1172876 C68.0118287,38.2041656 72.8330017,41.5922136 73.7572302,46.683782" id="Fill-35" fill="#FFFFFF"></path>
                            <path d="M98.9378575,38.8344389 C98.9918803,44.0092841 94.8963654,48.2490923 89.7919376,48.3031491 C84.6831295,48.3586669 80.50001,44.2079794 80.4445271,39.0331343 C80.3905043,33.8582892 84.4860192,29.618481 89.590447,29.5644241 C94.697795,29.5089063 98.8809145,33.6595938 98.9378575,38.8344389" id="Fill-37" fill="#FFFFFF"></path>
                            <path d="M120.687889,54.9709853 C120.741912,60.1458304 116.647857,64.3841776 111.540509,64.4396955 C106.434621,64.4952133 102.250041,60.3445258 102.194558,55.1696806 C102.139075,49.9948355 106.23459,45.7550273 111.341938,45.7009705 C116.446366,45.6469137 120.630946,49.7961401 120.687889,54.9709853" id="Fill-39" fill="#FFFFFF"></path>
                            <path d="M62.070923,47.6667396 C62.5498281,46.0771768 62.0767633,44.5285218 61.0094473,44.2071028 C59.9465115,43.8813009 58.6937658,44.9083806 58.2119405,46.4935604 C57.7315753,48.0860452 58.2061002,49.6332392 59.2704961,49.9575801 C60.3348919,50.2804601 61.5890977,49.2548414 62.070923,47.6667396" id="Fill-41" fill="#1E120D"></path>
                            <path d="M92.2250093,36.7449236 C92.7039144,35.1553607 92.2323096,33.6081668 91.1635336,33.2838258 C90.1020579,32.9609459 88.8478521,33.9865645 88.3660268,35.5732054 C87.8842015,37.1627682 88.3572663,38.7114231 89.4216622,39.0357641 C90.4889782,39.358644 91.7417239,38.3330254 92.2250093,36.7449236" id="Fill-43" fill="#1E120D"></path>
                            <path d="M116.919431,54.9860335 C117.401256,53.3979317 116.928191,51.8492768 115.860875,51.5220138 C114.79648,51.2020559 113.542274,52.2276745 113.058988,53.8157764 C112.583003,55.4024172 113.056068,56.9525331 114.120464,57.2768741 C115.18486,57.599754 116.437606,56.5755964 116.919431,54.9860335" id="Fill-45" fill="#1E120D"></path>
                            <path d="M136.137105,131.799612 C154.115029,106.924707 167.788646,58.6841047 167.788646,58.6841047 C167.788646,58.6841047 176.184087,51.5018521 174.017333,48.7288831 C172.347005,46.5899861 167.85143,52.7232441 167.85143,52.7232441 C167.85143,52.7232441 171.438838,44.4467061 169.396191,42.946264 C167.349163,41.4472828 164.030409,50.8648582 164.030409,50.8648582 C164.030409,50.8648582 164.81593,41.2193676 162.789344,41.4969567 C160.765678,41.7716238 159.349403,51.6771715 159.349403,51.6771715 C159.349403,51.6771715 156.376687,47.6988815 154.504869,48.9378054 C152.370237,50.3549708 156.950498,56.1828808 156.950498,56.1828808 C145.243603,98.9067647 129.308327,125.450126 129.308327,125.450126 C129.308327,125.450126 128.446882,128.997423 131.178685,130.949312 C133.910489,132.901202 136.137105,131.799612 136.137105,131.799612" id="Fill-47" fill="#268267"></path>
                            <g id="Group-51" transform="translate(121.186359, 218.638393)">
                                <mask id="mask-10" fill="white">
                                    <use xlink:href="#path-9"></use>
                                </mask>
                                <g id="Clip-50"></g>
                                <path d="M6.07610883,7.56021208 C44.1476065,19.9626007 64.7244662,-1.66451188 70.093168,0.224554969 C73.6849564,1.48977685 80.0202288,17.4526109 76.8664634,19.8486431 C73.715618,22.2490582 66.2312653,12.7058373 66.2312653,12.7058373 C66.2312653,12.7058373 47.6240489,34.6353759 0.999422442,20.4271972 C0.999422442,20.4271972 -0.987741829,16.8872057 0.803772176,12.4063333 C2.9938871,6.92760114 6.07610883,7.56021208 6.07610883,7.56021208" id="Fill-49" fill="#268267" mask="url(#mask-10)"></path>
                            </g>
                            <path d="M77.3690217,89.3892573 C82.4413279,89.3892573 87.7311855,90.3272162 92.6662444,92.1008645 C93.6386554,92.4500423 94.6285874,92.8342841 95.6331201,93.2229088 C99.2117679,94.6093933 102.913062,96.0440906 106.231816,96.0440906 C110.035316,96.0440906 112.832823,94.099506 115.036078,89.9254426 C117.084566,86.0406562 116.999881,81.8549048 114.792245,78.1395939 C110.287909,70.5497237 98.3795242,66.0761562 82.1215711,65.8643119 C81.585723,65.8570069 80.9593501,65.835092 80.2585134,65.8117161 C79.1211137,65.7722692 77.7793033,65.7269784 76.3017057,65.7269784 C63.5902787,65.7269784 55.5043744,69.6497506 51.5796885,77.7188273 C49.6275661,81.7307202 49.415855,85.0077326 50.9489354,87.4607436 C53.0134837,90.7640538 57.744132,91.943077 61.4790079,91.943077 C63.2603014,91.943077 64.9700511,91.6742539 66.2899604,91.1892034 C69.5473913,89.9955703 73.2735068,89.3892573 77.3690217,89.3892573 M106.233276,98.9660811 L106.231816,98.9660811 C102.366993,98.9660811 98.4072657,97.4305751 94.5774847,95.9476649 C93.5977733,95.5678062 92.6282824,95.1923304 91.6792326,94.8504575 C87.0566301,93.1893059 82.1084304,92.3112478 77.3690217,92.3112478 C73.619545,92.3112478 70.2292471,92.85766 67.2974133,93.9329525 C65.6373061,94.5421875 63.6267806,94.8650675 61.4790079,94.8650675 C56.9600708,94.8650675 51.1723271,93.3266395 48.4726455,89.0093985 C47.0286297,86.6981041 45.9379525,82.6394593 48.9530107,76.4404565 C53.4164649,67.2639454 62.3623543,62.8049879 76.3017057,62.8049879 C77.8172653,62.8049879 79.1926574,62.8517397 80.3592586,62.8911866 C81.0367342,62.9145625 81.6412059,62.9350165 82.1595331,62.9423214 C99.4570607,63.1687757 112.266313,68.1639184 117.303577,76.6464568 C120.047061,81.2705067 120.160947,86.4701888 117.618954,91.2885511 C114.892991,96.4546303 111.168335,98.9660811 106.233276,98.9660811" id="Fill-52" fill="#E5E551"></path>
                        </g>
                        <path d="M99.6864388,302.929052 C145.874502,302.929052 183.310867,306.347781 183.310867,310.552526 C183.310867,314.787951 145.874502,318.208141 99.6864388,318.208141 C53.4998353,318.208141 16.0605507,314.787951 16.0605507,310.552526 C16.0605507,306.347781 53.4998353,302.929052 99.6864388,302.929052" id="Fill-1" fill-opacity="0.7" fill="#D9E5E7"></path>
                    </g>
                </g>
            </g>
        </g>
    </g>
</svg>