<?xml version="1.0" encoding="UTF-8"?>
<svg width="20px" height="20px" viewBox="0 0 20 20" version="1.1" xmlns="http://www.w3.org/2000/svg" xmlns:xlink="http://www.w3.org/1999/xlink">
    <title>icon/speed-0.5x</title>
    <defs>
        <path d="M10,0 C15.523,0 20,4.477 20,10 C20,15.523 15.523,20 10,20 C4.477,20 0,15.523 0,10 C0,4.477 4.477,0 10,0 Z M10,1 C5.0375,1 1,5.0375 1,10 C1,14.9625 5.0375,19 10,19 C14.9625,19 19,14.9625 19,10 C19,5.0375 14.9625,1 10,1 Z M8.47998047,11.9301758 C8.66910807,11.9301758 8.81551107,11.980306 8.91918945,12.0805664 C9.02286784,12.1808268 9.07470703,12.3243815 9.07470703,12.5112305 C9.07470703,12.6912435 9.02229818,12.8330892 8.91748047,12.9367676 C8.81266276,13.040446 8.66682943,13.0922852 8.47998047,13.0922852 C8.28857422,13.0922852 8.14046224,13.0415853 8.03564453,12.9401855 C7.93082682,12.8387858 7.87841797,12.6958008 7.87841797,12.5112305 C7.87841797,12.3198242 7.9296875,12.1751302 8.03222656,12.0771484 C8.13476562,11.9791667 8.28401693,11.9301758 8.47998047,11.9301758 Z M5.47900391,7.92431641 C6.0555013,7.92431641 6.49129232,8.14306641 6.78637695,8.58056641 C7.08146159,9.01806641 7.22900391,9.65836589 7.22900391,10.5014648 C7.22900391,11.3741862 7.08601888,12.0201823 6.80004883,12.4394531 C6.51407878,12.858724 6.07373047,13.0683594 5.47900391,13.0683594 C4.90250651,13.0683594 4.46785482,12.851888 4.17504883,12.4189453 C3.88224284,11.9860026 3.73583984,11.3468424 3.73583984,10.5014648 C3.73583984,9.61962891 3.87825521,8.96964518 4.16308594,8.55151367 C4.44791667,8.13338216 4.88655599,7.92431641 5.47900391,7.92431641 Z M12.8139648,8.00292969 L12.8139648,8.8984375 L11.0297852,8.8984375 L10.9375,9.87939453 L11.0571289,9.85546875 L11.167572,9.83453369 C11.2842102,9.81658936 11.4194336,9.80761719 11.5732422,9.80761719 C12.0563151,9.80761719 12.4408366,9.94319661 12.7268066,10.2143555 C13.0127767,10.4855143 13.1557617,10.8569336 13.1557617,11.3286133 C13.1557617,11.8868815 12.983724,12.3164062 12.6396484,12.6171875 C12.2955729,12.9179688 11.8033854,13.0683594 11.1630859,13.0683594 C10.6070964,13.0683594 10.1582031,12.9783529 9.81640625,12.7983398 L9.81640625,12.7983398 L9.81640625,11.8857422 L9.95697021,11.9542084 C10.1030884,12.0193634 10.2658691,12.074585 10.4453125,12.119873 C10.6845703,12.1802572 10.9112956,12.2104492 11.1254883,12.2104492 C11.7703451,12.2104492 12.0927734,11.9461263 12.0927734,11.4174805 C12.0927734,10.9138997 11.7589518,10.6621094 11.0913086,10.6621094 C10.9705404,10.6621094 10.8372396,10.6740723 10.6914062,10.697998 C10.5455729,10.7219238 10.4270833,10.7475586 10.3359375,10.7749023 L10.3359375,10.7749023 L9.91552734,10.5493164 L10.1035156,8.00292969 L12.8139648,8.00292969 Z M14.7519531,9.17871094 L15.4936523,10.3955078 L16.2421875,9.17871094 L17.4248047,9.17871094 L16.1806641,11.0483398 L17.4829102,13 L16.296875,13 L15.4936523,11.690918 L14.6870117,13 L13.5043945,13 L14.7998047,11.0483398 L13.5693359,9.17871094 L14.7519531,9.17871094 Z M5.47900391,8.77880859 C5.23063151,8.77880859 5.05289714,8.91267904 4.94580078,9.18041992 C4.83870443,9.44816081 4.78515625,9.88850911 4.78515625,10.5014648 C4.78515625,11.1144206 4.83813477,11.5536296 4.9440918,11.8190918 C5.05004883,12.084554 5.22835286,12.2172852 5.47900391,12.2172852 C5.72509766,12.2172852 5.90283203,12.0828451 6.01220703,11.8139648 C6.12158203,11.5450846 6.17626953,11.1075846 6.17626953,10.5014648 C6.17626953,9.88850911 6.12101237,9.44816081 6.01049805,9.18041992 C5.89998372,8.91267904 5.72281901,8.77880859 5.47900391,8.77880859 Z" id="path-1"></path>
    </defs>
    <g id="icon/speed-0.5x" stroke="none" stroke-width="1" fill="none" fill-rule="evenodd">
        <mask id="mask-2" fill="white">
            <use xlink:href="#path-1"></use>
        </mask>
        <use id="Combined-Shape" fill="#FFFFFF" fill-rule="nonzero" xlink:href="#path-1"></use>
        <g id="Group" mask="url(#mask-2)" fill="#788DB4">
            <g id="Rectangle-Copy">
                <rect x="0" y="0" width="20" height="20"></rect>
            </g>
        </g>
    </g>
</svg>