<?xml version="1.0" encoding="UTF-8"?>
<svg width="20px" height="20px" viewBox="0 0 20 20" version="1.1" xmlns="http://www.w3.org/2000/svg" xmlns:xlink="http://www.w3.org/1999/xlink">
    <title>icon/speed-0.75x</title>
    <defs>
        <path d="M10,0 C15.523,0 20,4.477 20,10 C20,15.523 15.523,20 10,20 C4.477,20 0,15.523 0,10 C0,4.477 4.477,0 10,0 Z M10,1 C5.0375,1 1,5.0375 1,10 C1,14.9625 5.0375,19 10,19 C13.9109721,19 17.2474175,16.4922692 18.4857681,13.0003758 L18.2946777,13 L17.4914551,11.690918 L16.6848145,13 L15.5021973,13 L16.7976074,11.0483398 L15.5671387,9.17871094 L16.7497559,9.17871094 L17.4914551,10.3955078 L18.2399902,9.17871094 L18.9628563,9.17878282 C18.5467171,4.59965622 14.6857031,1 10,1 Z M6.48217773,11.9301758 C6.67130534,11.9301758 6.81770833,11.980306 6.92138672,12.0805664 C7.0250651,12.1808268 7.0769043,12.3243815 7.0769043,12.5112305 C7.0769043,12.6912435 7.02449544,12.8330892 6.91967773,12.9367676 C6.81486003,13.040446 6.66902669,13.0922852 6.48217773,13.0922852 C6.29077148,13.0922852 6.14265951,13.0415853 6.0378418,12.9401855 C5.93302409,12.8387858 5.88061523,12.6958008 5.88061523,12.5112305 C5.88061523,12.3198242 5.93188477,12.1751302 6.03442383,12.0771484 C6.13696289,11.9791667 6.28621419,11.9301758 6.48217773,11.9301758 Z M3.48120117,7.92431641 C4.05769857,7.92431641 4.49348958,8.14306641 4.78857422,8.58056641 C5.08365885,9.01806641 5.23120117,9.65836589 5.23120117,10.5014648 C5.23120117,11.3741862 5.08821615,12.0201823 4.80224609,12.4394531 C4.51627604,12.858724 4.07592773,13.0683594 3.48120117,13.0683594 C2.90470378,13.0683594 2.47005208,12.851888 2.17724609,12.4189453 C1.8844401,11.9860026 1.73803711,11.3468424 1.73803711,10.5014648 C1.73803711,9.61962891 1.88045247,8.96964518 2.1652832,8.55151367 C2.45011393,8.13338216 2.88875326,7.92431641 3.48120117,7.92431641 Z M14.8117676,8.00292969 L14.8117676,8.8984375 L13.0275879,8.8984375 L12.9353027,9.87939453 L13.0549316,9.85546875 L13.1653748,9.83453369 C13.2820129,9.81658936 13.4172363,9.80761719 13.5710449,9.80761719 C14.0541178,9.80761719 14.4386393,9.94319661 14.7246094,10.2143555 C15.0105794,10.4855143 15.1535645,10.8569336 15.1535645,11.3286133 C15.1535645,11.8868815 14.9815267,12.3164062 14.6374512,12.6171875 C14.2933757,12.9179688 13.8011882,13.0683594 13.1608887,13.0683594 C12.6048991,13.0683594 12.1560059,12.9783529 11.814209,12.7983398 L11.814209,12.7983398 L11.814209,11.8857422 L11.9547729,11.9542084 C12.1008911,12.0193634 12.2636719,12.074585 12.4431152,12.119873 C12.682373,12.1802572 12.9090983,12.2104492 13.123291,12.2104492 C13.7681478,12.2104492 14.0905762,11.9461263 14.0905762,11.4174805 C14.0905762,10.9138997 13.7567546,10.6621094 13.0891113,10.6621094 C12.9683431,10.6621094 12.8350423,10.6740723 12.689209,10.697998 C12.5433757,10.7219238 12.4248861,10.7475586 12.3337402,10.7749023 L12.3337402,10.7749023 L11.9133301,10.5493164 L12.1013184,8.00292969 L14.8117676,8.00292969 Z M11.2502441,8.00976562 L11.2502441,8.67285156 L9.36010742,13 L8.25268555,13 L10.1291504,8.8984375 L7.66479492,8.8984375 L7.66479492,8.00976562 L11.2502441,8.00976562 Z M3.48120117,8.77880859 C3.23282878,8.77880859 3.0550944,8.91267904 2.94799805,9.18041992 C2.84090169,9.44816081 2.78735352,9.88850911 2.78735352,10.5014648 C2.78735352,11.1144206 2.84033203,11.5536296 2.94628906,11.8190918 C3.05224609,12.084554 3.23055013,12.2172852 3.48120117,12.2172852 C3.72729492,12.2172852 3.9050293,12.0828451 4.0144043,11.8139648 C4.1237793,11.5450846 4.1784668,11.1075846 4.1784668,10.5014648 C4.1784668,9.88850911 4.12320964,9.44816081 4.01269531,9.18041992 C3.90218099,8.91267904 3.72501628,8.77880859 3.48120117,8.77880859 Z M18.9981639,9.81684207 L18.1784668,11.0483398 L18.785577,11.9575658 C18.9259486,11.3271632 19,10.6720643 19,10 C19,9.93880475 18.999386,9.87775016 18.9981639,9.81684207 Z" id="path-1"></path>
    </defs>
    <g id="icon/speed-0.75x" stroke="none" stroke-width="1" fill="none" fill-rule="evenodd">
        <mask id="mask-2" fill="white">
            <use xlink:href="#path-1"></use>
        </mask>
        <use id="Mask" fill="#FFFFFF" fill-rule="nonzero" xlink:href="#path-1"></use>
        <g id="Group" mask="url(#mask-2)" fill="#788DB4">
            <g id="Rectangle-Copy">
                <rect x="0" y="0" width="20" height="20"></rect>
            </g>
        </g>
    </g>
</svg>