<?xml version="1.0" encoding="UTF-8"?>
<svg width="20px" height="20px" viewBox="0 0 20 20" version="1.1" xmlns="http://www.w3.org/2000/svg" xmlns:xlink="http://www.w3.org/1999/xlink">
    <title>icon/speed-1.5x</title>
    <defs>
        <path d="M10,0 C15.523,0 20,4.477 20,10 C20,15.523 15.523,20 10,20 C4.477,20 0,15.523 0,10 C0,4.477 4.477,0 10,0 Z M10,1 C5.0375,1 1,5.0375 1,10 C1,14.9625 5.0375,19 10,19 C14.9625,19 19,14.9625 19,10 C19,5.0375 14.9625,1 10,1 Z M7.58349609,11.4272461 C7.7726237,11.4272461 7.91902669,11.4773763 8.02270508,11.5776367 C8.12638346,11.6778971 8.17822266,11.8214518 8.17822266,12.0083008 C8.17822266,12.1883138 8.1258138,12.3301595 8.02099609,12.4338379 C7.91617839,12.5375163 7.77034505,12.5893555 7.58349609,12.5893555 C7.39208984,12.5893555 7.24397786,12.5386556 7.13916016,12.4372559 C7.03434245,12.3358561 6.98193359,12.1928711 6.98193359,12.0083008 C6.98193359,11.8168945 7.03320312,11.6722005 7.13574219,11.5742188 C7.23828125,11.476237 7.38753255,11.4272461 7.58349609,11.4272461 Z M11.9174805,7.5 L11.9174805,8.39550781 L10.1333008,8.39550781 L10.0410156,9.37646484 L10.1606445,9.35253906 L10.2710876,9.331604 C10.3877258,9.31365967 10.5229492,9.3046875 10.6767578,9.3046875 C11.1598307,9.3046875 11.5443522,9.44026693 11.8303223,9.71142578 C12.1162923,9.98258464 12.2592773,10.3540039 12.2592773,10.8256836 C12.2592773,11.3839518 12.0872396,11.8134766 11.7431641,12.1142578 C11.3990885,12.4150391 10.906901,12.5654297 10.2666016,12.5654297 C9.71061198,12.5654297 9.26171875,12.4754232 8.91992188,12.2954102 L8.91992188,12.2954102 L8.91992188,11.3828125 L9.06048584,11.4512787 C9.206604,11.5164337 9.36938477,11.5716553 9.54882812,11.6169434 C9.78808594,11.6773275 10.0148112,11.7075195 10.2290039,11.7075195 C10.8738607,11.7075195 11.1962891,11.4431966 11.1962891,10.9145508 C11.1962891,10.4109701 10.8624674,10.1591797 10.1948242,10.1591797 C10.074056,10.1591797 9.94075521,10.1711426 9.79492188,10.1950684 C9.64908854,10.2189941 9.53059896,10.2446289 9.43945312,10.2719727 L9.43945312,10.2719727 L9.01904297,10.0463867 L9.20703125,7.5 L11.9174805,7.5 Z M5.47802734,7.5 L5.47802734,12.4970703 L4.421875,12.4970703 L4.421875,9.60546875 L4.43212891,9.13037109 L4.44921875,8.61083984 L4.35037109,8.70886719 C4.22714193,8.82990885 4.13818359,8.91230469 4.08349609,8.95605469 L4.08349609,8.95605469 L3.50927734,9.41748047 L3,8.78173828 L4.60986328,7.5 L5.47802734,7.5 Z M13.8554688,8.67578125 L14.597168,9.89257812 L15.3457031,8.67578125 L16.5283203,8.67578125 L15.2841797,10.5454102 L16.5864258,12.4970703 L15.4003906,12.4970703 L14.597168,11.1879883 L13.7905273,12.4970703 L12.6079102,12.4970703 L13.9033203,10.5454102 L12.6728516,8.67578125 L13.8554688,8.67578125 Z" id="path-1"></path>
    </defs>
    <g id="icon/speed-1.5x" stroke="none" stroke-width="1" fill="none" fill-rule="evenodd">
        <mask id="mask-2" fill="white">
            <use xlink:href="#path-1"></use>
        </mask>
        <use id="Mask" fill="#FFFFFF" fill-rule="nonzero" xlink:href="#path-1"></use>
        <g id="Group" mask="url(#mask-2)" fill="#788DB4">
            <g id="Rectangle-Copy">
                <rect x="0" y="0" width="20" height="20"></rect>
            </g>
        </g>
    </g>
</svg>