<?xml version="1.0" encoding="UTF-8"?>
<svg width="100px" height="100px" viewBox="0 0 100 100" version="1.1" xmlns="http://www.w3.org/2000/svg" xmlns:xlink="http://www.w3.org/1999/xlink">
    <title>img/gold</title>
    <g id="img/gold" stroke="none" stroke-width="1" fill="none" fill-rule="evenodd">
        <g id="Group-13" transform="translate(3.000000, 3.000000)">
            <path d="M94.6259843,47.5 C94.6259843,73.5270079 73.5270079,94.6259843 47.5,94.6259843 C21.4729921,94.6259843 0.374015748,73.5270079 0.374015748,47.5 C0.374015748,21.4729921 21.4729921,0.374015748 47.5,0.374015748 C73.5270079,0.374015748 94.6259843,21.4729921 94.6259843,47.5" id="Fill-1" fill="#FFCC00"></path>
            <path d="M94.6259843,47.5 C94.6259843,73.5270079 73.5270079,94.6259843 47.5,94.6259843 C21.4729921,94.6259843 0.374015748,73.5270079 0.374015748,47.5 C0.374015748,21.4729921 21.4729921,0.374015748 47.5,0.374015748 C73.5270079,0.374015748 94.6259843,21.4729921 94.6259843,47.5 Z" id="Stroke-3" stroke="#FDC00F" stroke-width="5" stroke-linecap="round" stroke-linejoin="round"></path>
            <polygon id="Fill-5" fill="#FDC00F" points="47.5 5.52039764 52.6726378 10.066185 58.8798031 7.0845315 62.6326772 12.8570906 69.4143307 11.6602402 71.4714173 18.2316969 78.3241339 18.9086654 78.5313386 25.7920512 84.9472047 28.2919724 83.291063 34.9763819 88.7928346 39.1152402 85.3952756 45.1039803 89.5767717 50.5735866 84.6898819 55.4238228 87.2399213 61.8202402 81.225 65.1714213 81.9565748 72.0174055 75.2601969 73.6219331 74.1164567 80.411815 67.235315 80.1500039 64.3030315 86.3803583 57.7480315 84.2709094 53.2433858 89.4787047 47.5 85.6794528 41.7566142 89.4787047 37.2527165 84.2709094 30.6977165 86.3803583 27.764685 80.1500039 20.8835433 80.411815 19.7405512 73.6219331 13.0434252 72.0174055 13.775748 65.1714213 7.76007874 61.8202402 10.3116142 55.4238228 5.42322835 50.5735866 9.60547244 45.1039803 6.20641732 39.1152402 11.709685 34.9763819 10.0527953 28.2919724 16.4694094 25.7920512 16.6773622 18.9086654 23.5293307 18.2316969 25.5864173 11.6602402 32.3680709 12.8570906 36.1216929 7.0845315 42.3281102 10.066185"></polygon>
            <polygon id="Stroke-7" stroke="#F9B233" stroke-width="3" stroke-linecap="round" stroke-linejoin="round" points="47.5 5.52039764 52.6726378 10.066185 58.8798031 7.0845315 62.6326772 12.8570906 69.4143307 11.6602402 71.4714173 18.2316969 78.3241339 18.9086654 78.5313386 25.7920512 84.9472047 28.2919724 83.291063 34.9763819 88.7928346 39.1152402 85.3952756 45.1039803 89.5767717 50.5735866 84.6898819 55.4238228 87.2399213 61.8202402 81.225 65.1714213 81.9565748 72.0174055 75.2601969 73.6219331 74.1164567 80.411815 67.235315 80.1500039 64.3030315 86.3803583 57.7480315 84.2709094 53.2433858 89.4787047 47.5 85.6794528 41.7566142 89.4787047 37.2527165 84.2709094 30.6977165 86.3803583 27.764685 80.1500039 20.8835433 80.411815 19.7405512 73.6219331 13.0434252 72.0174055 13.775748 65.1714213 7.76007874 61.8202402 10.3116142 55.4238228 5.42322835 50.5735866 9.60547244 45.1039803 6.20641732 39.1152402 11.709685 34.9763819 10.0527953 28.2919724 16.4694094 25.7920512 16.6773622 18.9086654 23.5293307 18.2316969 25.5864173 11.6602402 32.3680709 12.8570906 36.1216929 7.0845315 42.3281102 10.066185"></polygon>
            <path d="M80.4878898,47.5 C80.4878898,65.7183071 65.7187559,80.488189 47.4997008,80.488189 C29.2813937,80.488189 14.5122598,65.7183071 14.5122598,47.5 C14.5122598,29.2809449 29.2813937,14.511063 47.4997008,14.511063 C65.7187559,14.511063 80.4878898,29.2809449 80.4878898,47.5" id="Fill-9" fill="#FFD633"></path>
            <polygon id="Fill-11" fill="#F9B233" points="31.4662441 69.8356969 34.5443937 52.0303031 21.6214016 39.4005394 39.5068346 36.825815 47.5249843 20.6339252 55.5004961 36.8467598 73.3784488 39.4693583 60.4225433 52.0647126 63.4535669 69.8783346 47.471126 61.4480197"></polygon>
        </g>
    </g>
</svg>