<?xml version="1.0" encoding="UTF-8"?>
<svg width="27px" height="82px" viewBox="0 0 27 82" version="1.1" xmlns="http://www.w3.org/2000/svg" xmlns:xlink="http://www.w3.org/1999/xlink">
    <title>img/user-award-right</title>
    <defs>
        <polygon id="path-1" points="0.163392429 0.321674607 5.80266667 0.321674607 5.80266667 9.38876574 0.163392429 9.38876574"></polygon>
        <polygon id="path-3" points="0.0453925382 0.274489405 10.3715046 0.274489405 10.3715046 6 0.0453925382 6"></polygon>
        <polygon id="path-5" points="0 0.208453251 4.87749015 0.208453251 4.87749015 9.44846264 0 9.44846264"></polygon>
    </defs>
    <g id="img/user-award-right" stroke="none" stroke-width="1" fill="none" fill-rule="evenodd">
        <g id="Group-46">
            <path d="M4.49480764,6.37440924 C6.98671253,9.0439944 8.3713547,9.39709467 9.35082742,8.67029661 C10.3295484,7.94349856 10.4843998,6.33247859 7.78652755,3.44294139 C5.08865526,0.551932943 1.44137849,-0.328610851 1.06402215,0.103936978 C0.685914109,0.536484806 2.00215105,3.70408846 4.49480764,6.37440924" id="Fill-1" fill="#FDC00F"></path>
            <path d="M12.0226115,8.26476045 C12.2369364,11.3600682 13.1763678,12.5229886 14.495952,12.8990019 C15.8186652,13.2757128 17.0639397,12.6959966 16.9974521,9.48907081 C16.9309644,6.28284266 14.5428845,3.13730681 13.8568884,3.005458 C13.1708923,2.87291158 11.8082866,5.16945272 12.0226115,8.26476045" id="Fill-3" fill="#FFCC00"></path>
            <path d="M9.57669563,10.4338668 C12.5251275,11.4268163 13.2366389,12.8177338 12.936899,13.9236379 C12.637901,15.0308555 11.4997795,15.4327637 8.72347553,14.4122322 C5.94642958,13.3917007 3.93060436,11.4176224 4.00182969,10.9053865 C4.07379695,10.3931506 6.62826373,9.44091719 9.57669563,10.4338668" id="Fill-5" fill="#FDC00F"></path>
            <path d="M16.0742659,15.930189 C15.7826437,18.9919827 16.3762109,20.2565603 17.3930174,20.7983216 C18.4111142,21.3407847 19.5053424,20.9330602 19.9253558,17.7765285 C20.3440787,14.6199968 18.8885487,11.2332868 18.3543382,11.0157401 C17.8201277,10.7974917 16.365888,12.869799 16.0742659,15.930189" id="Fill-7" fill="#FFCC00"></path>
            <path d="M13.292061,16.8884715 C15.8711349,18.3488392 16.3035671,19.9248372 15.8344522,21.0590133 C15.3660427,22.1917619 14.2295854,22.4565695 11.8078237,20.9854953 C9.38465114,19.5158486 7.85314965,17.1511378 8.0111673,16.6193812 C8.16777409,16.0869109 10.7129871,15.4288175 13.292061,16.8884715" id="Fill-9" fill="#FDC00F"></path>
            <path d="M19.4371637,23.5736768 C18.5842768,26.5879498 19.0626516,27.9537025 20.1535886,28.6649274 C21.2468001,29.3775876 22.5818523,29.1464934 23.5916704,26.0511221 C24.6014884,22.9579039 23.4915983,19.337188 22.910119,19.03289 C22.3286397,18.7285919 20.2900505,20.5586862 19.4371637,23.5736768" id="Fill-11" fill="#FFCC00"></path>
            <path d="M15.9276382,24.2811491 C18.1255694,25.9221119 18.3034907,27.383837 17.7028388,28.3279083 C17.1028558,29.2726266 15.9978704,29.3509218 13.943079,27.7183708 C11.8889565,26.0851729 10.8033685,23.7835543 11.029449,23.3338425 C11.2555296,22.8841307 13.7290382,22.6395393 15.9276382,24.2811491" id="Fill-13" fill="#FDC00F"></path>
            <path d="M21.8116734,31.7686782 C20.6291887,34.4270826 20.8613537,35.7478954 21.7243577,36.5465577 C22.5880386,37.3465622 23.7996285,37.3089781 25.1269626,34.5955399 C26.4556503,31.8821017 25.9933509,28.4082565 25.5242828,28.0538921 C25.0558916,27.6995276 22.9941581,29.1102739 21.8116734,31.7686782" id="Fill-15" fill="#FFCC00"></path>
            <path d="M18.2352541,31.9429751 C20.3446267,33.9967379 20.2923343,35.5548125 19.4777512,36.4544971 C18.663168,37.3534923 17.4457124,37.2666262 15.4873248,35.2397505 C13.5274643,33.2128748 12.7474972,30.6406729 13.0708263,30.2049636 C13.394892,29.7699437 16.1258814,29.8892122 18.2352541,31.9429751" id="Fill-17" fill="#FDC00F"></path>
            <g id="Group-21" transform="translate(21.000000, 36.000000)">
                <mask id="mask-2" fill="white">
                    <use xlink:href="#path-1"></use>
                </mask>
                <g id="Clip-20"></g>
                <path d="M1.43073333,3.72828571 C-0.1126,6.33328571 -0.0792666667,7.76257143 0.644066667,8.73971429 C1.3674,9.71685714 2.5514,9.86542857 4.24473333,7.21971429 C5.9374,4.574 6.00006667,0.861142857 5.59673333,0.415428571 C5.1934,-0.031 2.97406667,1.124 1.43073333,3.72828571" id="Fill-19" fill="#FFCC00" mask="url(#mask-2)"></path>
            </g>
            <path d="M18.7751094,39.6936326 C20.4661611,42.1450287 20.1811365,43.7642461 19.2701894,44.5833197 C18.3606567,45.4016652 17.2184365,45.1300968 15.6660071,42.7245688 C14.1135778,40.3190407 13.7634855,37.5298223 14.1376245,37.1242898 C14.5124708,36.7173013 17.0840576,37.2436926 18.7751094,39.6936326" id="Fill-22" fill="#FDC00F"></path>
            <path d="M21.9244851,47.6157758 C19.8723441,49.8289926 19.6911235,51.1791428 20.3203212,52.2081836 C20.9495188,53.2385792 22.2013901,53.5583338 24.4217038,51.3275035 C26.6434673,49.0966732 27.2690405,45.6193419 26.9015253,45.1390326 C26.5354599,44.6600781 23.9766262,45.4025591 21.9244851,47.6157758" id="Fill-24" fill="#FFCC00"></path>
            <path d="M18.2532142,47.1209322 C19.5011494,49.641732 19.0124194,51.1076468 18.0470103,51.7385295 C17.0836096,52.3687295 16.0519206,51.9495065 14.9285111,49.4887908 C13.8051016,47.0260267 13.86,44.3884726 14.2650434,44.0648379 C14.6694173,43.7425688 17.0052789,44.6001324 18.2532142,47.1209322" id="Fill-26" fill="#FDC00F"></path>
            <path d="M19.544312,55.168423 C17.1146339,57.2631794 16.7053862,58.7051306 17.1655134,59.9240462 C17.6263779,61.1437027 18.8327371,61.6823967 21.4415992,59.5883813 C24.0482493,57.4973298 25.2479719,53.8139077 24.9574429,53.2374236 C24.6661765,52.6594576 21.9732526,53.0751486 19.544312,55.168423" id="Fill-28" fill="#FFCC00"></path>
            <path d="M16.566422,53.9411056 C17.537945,56.832802 16.7359089,58.3159671 15.5487442,58.834014 C14.3630927,59.3513291 13.2863971,58.7337704 12.4495556,55.9232932 C11.6119576,53.1142794 12.1090686,50.3133144 12.616016,50.0367301 C13.1229633,49.759414 15.5948991,51.0516043 16.566422,53.9411056" id="Fill-30" fill="#FDC00F"></path>
            <path d="M17.2203799,63.4511458 C14.4375161,65.1319929 13.7893079,66.4775359 14.0544498,67.7307801 C14.3203429,68.9847454 15.4537684,69.6820337 18.4266631,68.0242613 C21.3988067,66.3657678 23.1872004,62.9658562 22.9844006,62.3637509 C22.7808497,61.7616457 20.0032437,61.7702987 17.2203799,63.4511458" id="Fill-32" fill="#FFCC00"></path>
            <path d="M13.891606,61.3342325 C14.3194208,64.2610313 13.4158916,65.5884981 12.319452,65.9247897 C11.2243247,66.2617893 10.3883798,65.5155759 10.0714556,62.6815228 C9.75387521,59.8467617 10.5701355,57.2130675 11.0432252,57.0162485 C11.5169711,56.8201374 13.4637911,58.4074337 13.891606,61.3342325" id="Fill-34" fill="#FDC00F"></path>
            <path d="M12.5772058,70.8267503 C9.77552843,72.0718345 8.96204926,73.2890801 9.00134444,74.5383401 C9.03995023,75.7869042 9.96993617,76.6164964 12.9515441,75.41665 C15.9324627,74.2161076 18.0888719,71.1747336 17.9971832,70.5650669 C17.9054944,69.9560961 15.3788833,69.5816661 12.5772058,70.8267503" id="Fill-36" fill="#FFCC00"></path>
            <path d="M9.99980732,68.6994201 C9.97890992,71.6479878 8.87918459,72.81906 7.73831751,72.9812834 C6.59940957,73.1435069 5.88889819,72.2752982 6.01428255,69.4311662 C6.13966691,66.5870342 7.34257312,64.1251369 7.83888622,64.005384 C8.33585236,63.8863273 10.0207047,65.7508525 9.99980732,68.6994201" id="Fill-38" fill="#FDC00F"></path>
            <g id="Group-42" transform="translate(3.000000, 76.000000)">
                <mask id="mask-4" fill="white">
                    <use xlink:href="#path-3"></use>
                </mask>
                <g id="Clip-41"></g>
                <path d="M4.57446,0.67665 C1.37052667,1.57965 0.267593333,2.77365 0.0717933333,4.1334 C-0.123273333,5.49615 0.717126667,6.5349 4.12126,5.7024 C7.52319333,4.8714 10.3589933,1.9269 10.3715046,1.2534 C10.3839267,0.5799 7.77839333,-0.22635 4.57446,0.67665" id="Fill-40" fill="#FFCC00" mask="url(#mask-4)"></path>
            </g>
            <g id="Group-45" transform="translate(0.000000, 69.000000)">
                <mask id="mask-6" fill="white">
                    <use xlink:href="#path-5"></use>
                </mask>
                <g id="Clip-44"></g>
                <path d="M4.75978571,5.39121429 C4.21121429,8.42621429 2.78335714,9.4605 1.50335714,9.44835714 C0.223357143,9.4355 -0.390928571,8.4255 0.266214286,5.51192857 C0.923357143,2.59978571 2.66764286,0.253357143 3.22978571,0.209071429 C3.79264286,0.166214286 5.30835714,2.35621429 4.75978571,5.39121429" id="Fill-43" fill="#FDC00F" mask="url(#mask-6)"></path>
            </g>
        </g>
    </g>
</svg>