<?xml version="1.0" encoding="utf-8"?>
<!-- Generator: Adobe Illustrator 14.0.0, SVG Export Plug-In . SVG Version: 6.00 Build 43363)  -->
<!DOCTYPE svg PUBLIC "-//W3C//DTD SVG 1.1//EN" "http://www.w3.org/Graphics/SVG/1.1/DTD/svg11.dtd">
<svg version="1.1" id="圖層_1" xmlns="http://www.w3.org/2000/svg" xmlns:xlink="http://www.w3.org/1999/xlink" x="0px" y="0px"
	 width="841.89px" height="595.28px" viewBox="0 0 841.89 595.28" enable-background="new 0 0 841.89 595.28" xml:space="preserve">
<g>
	<path fill="#3E3A39" d="M489.668,290.272v21.096c0,4.637-1.293,8.335-3.881,11.095c-2.586,2.76-6.023,4.14-10.313,4.14
		c-4.288,0-7.726-1.38-10.313-4.14c-2.586-2.76-3.88-6.458-3.88-11.095v-21.096h9.246v21.618c0,1.929,0.424,3.402,1.275,4.425
		c0.851,1.021,2.074,1.534,3.671,1.534c1.633,0,2.875-0.513,3.725-1.534c0.851-1.022,1.276-2.496,1.276-4.425v-21.618H489.668z"/>
	<path fill="#3E3A39" d="M510.242,325.979v-14.088c0-1.179-0.356-2.142-1.068-2.881c-0.712-0.738-1.632-1.108-2.76-1.108
		c-1.129,0-2.054,0.37-2.773,1.108c-0.721,0.739-1.082,1.702-1.082,2.881v14.088h-8.256v-12.815c0-3.957,1.107-7.107,3.322-9.451
		c2.214-2.343,5.143-3.515,8.789-3.515c1.979,0,3.832,0.419,5.56,1.259c1.728,0.839,3.182,2.03,4.362,3.578
		c0.765,1.029,1.319,2.17,1.667,3.415c0.347,1.248,0.521,2.817,0.521,4.714v12.815H510.242z"/>
	<path fill="#3E3A39" d="M522.534,293.864c0-1.28,0.473-2.369,1.419-3.268c0.946-0.897,2.087-1.346,3.425-1.346
		c1.337,0,2.477,0.448,3.424,1.346c0.946,0.898,1.421,1.987,1.421,3.268c0,1.279-0.475,2.372-1.421,3.278
		c-0.947,0.905-2.087,1.358-3.424,1.358c-1.338,0-2.479-0.453-3.425-1.358C523.007,296.236,522.534,295.144,522.534,293.864z
		 M523.159,325.979v-25.283h8.437v25.283H523.159z"/>
	<path fill="#3E3A39" d="M545.505,312.813c0.224,0.748,0.438,1.528,0.637,2.344c0.198,0.814,0.395,1.729,0.586,2.742
		c0.155-0.732,0.343-1.517,0.56-2.356c0.218-0.84,0.464-1.749,0.742-2.729l3.462-12.118h8.519l-6.979,20.845
		c-0.556,1.645-1.354,2.872-2.396,3.679c-1.041,0.806-2.344,1.208-3.906,1.208c-1.546,0-2.831-0.398-3.854-1.198
		c-1.024-0.798-1.814-2.026-2.371-3.688l-7.058-20.845h8.543L545.505,312.813z"/>
	<path fill="#3E3A39" d="M588.501,316.577c-1.39,3.143-3.334,5.569-5.835,7.281c-2.498,1.713-5.338,2.568-8.515,2.568
		c-1.754,0-3.441-0.328-5.067-0.984c-1.623-0.656-3.058-1.602-4.31-2.832c-1.301-1.262-2.286-2.682-2.953-4.262
		c-0.67-1.58-1.004-3.258-1.004-5.036s0.334-3.459,1.004-5.039c0.667-1.578,1.652-2.999,2.953-4.262
		c1.252-1.214,2.68-2.143,4.286-2.793c1.605-0.648,3.302-0.973,5.091-0.973c2.673,0,5.077,0.679,7.212,2.033
		c2.139,1.354,3.89,3.327,5.262,5.921l-12.787,8.328l-3.202-4.638l6.926-4.613c-0.451-0.283-0.919-0.495-1.406-0.636
		c-0.485-0.14-0.988-0.212-1.51-0.212c-1.632,0-3.02,0.596-4.168,1.782c-1.145,1.189-1.717,2.649-1.717,4.376
		c0,1.764,0.563,3.243,1.693,4.439c1.128,1.195,2.508,1.796,4.139,1.796c1.529,0,2.949-0.439,4.259-1.322
		c1.311-0.882,2.425-2.161,3.347-3.84L588.501,316.577z"/>
	<path fill="#3E3A39" d="M591.443,325.979v-25.283h7.63v3.788c0.835-1.312,1.91-2.271,3.229-2.877
		c1.32-0.606,3.004-0.911,5.054-0.911h0.99v7.654h-0.367c-3.004,0-5.168,0.636-6.496,1.908c-1.329,1.271-1.993,3.345-1.993,6.221
		v9.5H591.443z"/>
	<path fill="#3E3A39" d="M610.168,318.823h9.974c0.504,0,0.882-0.081,1.135-0.238c0.25-0.156,0.377-0.403,0.377-0.735
		c0-0.198-0.071-0.391-0.209-0.574c-0.139-0.182-0.313-0.324-0.521-0.422l-3.854-1.547c-2.188-0.882-3.812-1.945-4.872-3.192
		c-1.058-1.246-1.586-2.717-1.586-4.413c0-2.178,0.822-3.89,2.472-5.136c1.65-1.247,3.933-1.87,6.852-1.87h9.01v6.809h-8.907
		c-0.364,0-0.669,0.09-0.911,0.271c-0.244,0.185-0.365,0.416-0.365,0.698c0,0.184,0.07,0.372,0.208,0.562
		c0.141,0.19,0.304,0.32,0.495,0.387l3.673,1.495c2.535,1.015,4.37,2.143,5.508,3.38c1.136,1.238,1.705,2.73,1.705,4.475
		c0,1.213-0.283,2.319-0.846,3.315c-0.565,0.998-1.368,1.838-2.408,2.52c-0.801,0.482-1.723,0.832-2.774,1.048
		c-1.05,0.217-2.853,0.324-5.404,0.324h-8.75V318.823z"/>
	<path fill="#3E3A39" d="M660.848,316.577c-1.39,3.143-3.334,5.569-5.834,7.281c-2.499,1.713-5.338,2.568-8.516,2.568
		c-1.754,0-3.442-0.328-5.067-0.984c-1.622-0.656-3.059-1.602-4.31-2.832c-1.3-1.262-2.286-2.682-2.954-4.262
		c-0.669-1.58-1.003-3.258-1.003-5.036s0.334-3.459,1.003-5.039c0.668-1.578,1.654-2.999,2.954-4.262
		c1.251-1.214,2.68-2.143,4.285-2.793c1.606-0.648,3.304-0.973,5.092-0.973c2.674,0,5.078,0.679,7.212,2.033
		c2.138,1.354,3.89,3.327,5.262,5.921l-12.787,8.328l-3.203-4.638l6.927-4.613c-0.45-0.283-0.918-0.495-1.406-0.636
		c-0.486-0.14-0.987-0.212-1.51-0.212c-1.632,0-3.02,0.596-4.168,1.782c-1.145,1.189-1.717,2.649-1.717,4.376
		c0,1.764,0.563,3.243,1.693,4.439c1.127,1.195,2.508,1.796,4.14,1.796c1.528,0,2.947-0.439,4.258-1.322
		c1.311-0.882,2.425-2.161,3.347-3.84L660.848,316.577z"/>
</g>
<path fill="#3E3A39" d="M286.961,280.771v-16.277c0-4.568,1.224-8.24,3.671-11.02c2.44-2.783,5.622-4.166,9.538-4.166
	c1.764,0,3.424,0.346,4.973,1.031c1.555,0.689,2.926,1.699,4.123,3.01c1.239-1.293,2.631-2.297,4.17-2.998
	c1.541-0.697,3.103-1.043,4.682-1.043c4.102,0,7.389,1.375,9.863,4.123c2.475,2.753,3.713,6.434,3.713,11.063v16.277h-9.586V263
	c0-1.259-0.373-2.3-1.121-3.123c-0.757-0.822-1.706-1.232-2.869-1.232c-1.152,0-2.117,0.41-2.885,1.232
	c-0.771,0.823-1.162,1.864-1.162,3.123v17.771h-9.52V263c0-1.259-0.388-2.3-1.158-3.123c-0.768-0.822-1.746-1.232-2.916-1.232
	c-1.16,0-2.114,0.41-2.865,1.232c-0.752,0.823-1.123,1.864-1.123,3.123v17.771H286.961z"/>
<path fill="#3E3A39" d="M354.579,280.771V266.01c0-2.271-0.496-3.982-1.49-5.142c-0.998-1.15-2.48-1.735-4.445-1.735
	c-1.623,0-2.938,0.563-3.955,1.689c-1.014,1.122-1.521,2.604-1.521,4.428c0,1.883,0.533,3.388,1.598,4.502
	c1.066,1.121,2.518,1.671,4.367,1.671c0.445,0,0.963-0.054,1.555-0.177c0.586-0.123,1.359-0.334,2.312-0.64v10.107
	c-0.793,0.153-1.546,0.283-2.251,0.353c-0.716,0.089-1.373,0.131-1.979,0.131c-4.506,0-8.212-1.508-11.136-4.501
	c-2.924-3.01-4.384-6.823-4.384-11.446c0-4.628,1.46-8.438,4.384-11.44c2.924-3.005,6.63-4.502,11.136-4.502
	c3.103,0,5.915,0.797,8.429,2.385c2.514,1.595,4.397,3.771,5.66,6.526c0.488,1.056,0.837,2.231,1.052,3.516
	c0.211,1.29,0.316,3.328,0.316,6.13v12.906H354.579z"/>
<path fill="#3E3A39" d="M385.346,280.771v-17.191c0-1.447-0.418-2.615-1.246-3.515c-0.834-0.908-1.906-1.354-3.229-1.354
	c-1.319,0-2.399,0.446-3.238,1.354c-0.842,0.899-1.261,2.067-1.261,3.515v17.191h-9.65v-15.64c0-4.827,1.292-8.676,3.882-11.536
	c2.584-2.86,6.01-4.287,10.268-4.287c2.315,0,4.48,0.511,6.496,1.539c2.02,1.023,3.719,2.475,5.096,4.36
	c0.895,1.261,1.549,2.649,1.949,4.166c0.406,1.522,0.607,3.444,0.607,5.758v15.64H385.346z"/>
<path fill="#3E3A39" d="M427.552,279.036c0,4.969-1.375,8.808-4.141,11.515c-2.758,2.711-6.691,4.065-11.801,4.065
	c-1.805,0-3.621-0.12-5.445-0.354c-1.828-0.232-3.633-0.57-5.42-1.019v-9.369c1.768,0.563,3.436,0.99,5.021,1.276
	c1.582,0.288,3.098,0.424,4.535,0.424c2.879,0,4.865-0.555,5.959-1.67c1.096-1.118,1.648-3.292,1.648-6.511V266.01
	c0-2.289-0.496-4.008-1.48-5.155c-0.982-1.146-2.447-1.722-4.393-1.722c-1.623,0-2.943,0.563-3.961,1.689
	c-1.012,1.122-1.521,2.604-1.521,4.428c0,1.883,0.533,3.388,1.602,4.502c1.063,1.113,2.518,1.671,4.363,1.671
	c0.445,0,0.967-0.054,1.551-0.177c0.594-0.123,1.361-0.334,2.318-0.64v9.796c-0.875,0.166-1.664,0.284-2.359,0.368
	c-0.703,0.077-1.346,0.116-1.932,0.116c-4.484,0-8.182-1.485-11.094-4.456c-2.912-2.97-4.361-6.737-4.361-11.3
	c0-4.57,1.467-8.343,4.408-11.336c2.938-2.99,6.648-4.487,11.107-4.487c3.105,0,5.898,0.791,8.398,2.371
	c2.496,1.573,4.367,3.763,5.627,6.54c0.49,1.056,0.838,2.231,1.047,3.516c0.217,1.29,0.322,3.338,0.322,6.13V279.036z"/>
<path fill="#3E3A39" d="M429.11,265.314c0-2.157,0.387-4.185,1.17-6.104c0.777-1.921,1.93-3.668,3.453-5.25
	c1.479-1.502,3.158-2.649,5.039-3.456c1.871-0.797,3.846-1.196,5.908-1.196c2.113,0,4.121,0.399,6.016,1.196
	c1.898,0.807,3.574,1.954,5.035,3.456c1.484,1.52,2.611,3.253,3.377,5.191c0.771,1.939,1.16,3.984,1.16,6.163
	c0,2.169-0.389,4.219-1.16,6.157c-0.766,1.939-1.893,3.672-3.377,5.189c-1.461,1.505-3.137,2.656-5.035,3.453
	c-1.895,0.8-3.902,1.203-6.016,1.203c-2.063,0-4.037-0.403-5.908-1.203c-1.881-0.797-3.561-1.948-5.039-3.453
	c-1.523-1.587-2.676-3.334-3.453-5.25C429.497,269.494,429.11,267.46,429.11,265.314 M439.089,265.25
	c0,1.747,0.547,3.232,1.643,4.461c1.092,1.228,2.412,1.841,3.949,1.841c1.568,0,2.912-0.613,4.023-1.841
	c1.113-1.229,1.672-2.714,1.672-4.461c0-1.744-0.559-3.231-1.672-4.46c-1.111-1.229-2.455-1.838-4.023-1.838
	c-1.537,0-2.857,0.608-3.949,1.838C439.636,262.019,439.089,263.506,439.089,265.25"/>
<path fill="#3E3A39" d="M461.397,280.771v-10.403h14.996c0.883,0,1.549-0.19,2.027-0.556c0.473-0.365,0.717-0.886,0.717-1.579
	c0-0.611-0.244-1.212-0.738-1.811c-0.48-0.598-1.23-1.211-2.246-1.839l-8.371-5.057c-1.904-1.174-3.428-2.688-4.563-4.548
	c-1.135-1.857-1.705-3.767-1.705-5.733c0-1.912,0.326-3.641,0.977-5.184c0.65-1.556,1.609-2.878,2.887-3.979
	c1.199-1.053,2.672-1.795,4.414-2.236c1.748-0.435,4.578-0.654,8.494-0.654l18.051,0.146v9.986l-19.516-0.148
	c-1.578,0-2.674,0.123-3.268,0.375c-0.604,0.256-0.9,0.69-0.9,1.296c0,0.594,0.23,1.174,0.705,1.749
	c0.461,0.584,1.186,1.164,2.154,1.757l8.186,4.866c2.33,1.419,4.111,3.104,5.324,5.051c1.219,1.942,1.83,4.068,1.83,6.358
	c0,1.971-0.42,3.792-1.25,5.48c-0.828,1.679-1.984,3.05-3.467,4.101c-1.299,0.924-2.76,1.567-4.387,1.965
	c-1.619,0.395-4.193,0.597-7.729,0.597h-0.662H461.397z"/>
<polygon fill="#3E3A39" points="511.3,247.363 511.3,280.771 500.472,280.771 500.472,247.363 491.126,247.363 491.126,237.191 
	527.927,237.191 519.21,247.369 "/>
<path fill="#3E3A39" d="M548.882,280.771h-1.127c-3.791,0-7.109-0.304-9.949-0.915c-2.842-0.604-5.232-1.53-7.182-2.771
	c-3.188-2.044-5.643-4.641-7.381-7.786c-1.729-3.147-2.596-6.588-2.596-10.346c0-3.754,0.857-7.192,2.582-10.321
	c1.725-3.121,4.188-5.706,7.395-7.755c1.949-1.232,4.34-2.16,7.182-2.767c2.84-0.61,6.158-0.918,9.949-0.918h1.127v9.922
	c-0.283-0.02-0.584-0.03-0.895-0.041c-0.316-0.017-0.766-0.017-1.357-0.017c-3.811,0-6.846,0.552-9.096,1.668
	c-2.25,1.117-3.863,2.847-4.84,5.181h16.188v9.735h-16.398c0.729,2.394,2.291,4.193,4.684,5.402
	c2.393,1.204,5.621,1.811,9.682,1.811c0.549,0,0.967-0.007,1.264-0.021c0.289-0.006,0.545-0.014,0.77-0.014V280.771z"/>
<path fill="#3E3A39" d="M581.964,280.733l-4.105,0.037c-3.803,0-7.115-0.304-9.963-0.915c-2.836-0.604-5.229-1.53-7.172-2.771
	c-3.188-2.044-5.648-4.641-7.377-7.786c-1.74-3.147-2.602-6.588-2.602-10.346c0-3.754,0.857-7.192,2.584-10.321
	c1.721-3.121,4.188-5.706,7.395-7.755c1.943-1.232,4.336-2.16,7.172-2.767c2.848-0.61,6.16-0.918,9.963-0.918h1.121v9.922
	c-0.283-0.02-0.584-0.03-0.895-0.041c-0.316-0.017-0.77-0.017-1.357-0.017c-3.811,0-6.846,0.552-9.096,1.668
	c-2.25,1.117-3.863,2.847-4.84,5.181h16.188v9.735h-16.404c0.734,2.394,2.301,4.193,4.689,5.402c2.393,1.204,5.623,1.811,9.68,1.811
	c0.545,0,0.971-0.007,1.266-0.021c0.295-0.006,4.381-0.162,4.605-0.162L581.964,280.733z"/>
<path fill="#3E3A39" d="M579.931,280.771l4.711-35.265c0.357-2.867,1.262-5.075,2.68-6.643c1.416-1.561,3.236-2.335,5.443-2.335
	c2.094,0,3.848,0.683,5.264,2.062c1.426,1.388,2.445,3.391,3.078,6.027l2.861,12.084c0.281,1.155,0.52,2.436,0.729,3.847
	c0.201,1.411,0.377,3.02,0.51,4.823c0.152-1.804,0.32-3.412,0.521-4.823s0.453-2.691,0.734-3.847l2.861-12.084
	c0.629-2.637,1.65-4.64,3.072-6.027c1.42-1.379,3.186-2.062,5.295-2.062c2.209,0,4.016,0.774,5.432,2.335
	c1.41,1.567,2.285,3.775,2.666,6.643l4.738,35.265h-10.402l-2.434-27.234c-0.127-1.418-0.23-2.802-0.334-4.157
	c-0.111-1.342-0.188-2.645-0.244-3.873c-0.346,1.821-0.641,3.333-0.867,4.535c-0.24,1.193-0.465,2.255-0.689,3.189l-4.527,21.178
	c-0.531,2.421-1.248,4.137-2.145,5.174c-0.904,1.03-2.133,1.551-3.678,1.551c-1.514,0-2.732-0.521-3.627-1.551
	c-0.908-1.037-1.619-2.753-2.152-5.174l-4.564-21.178c-0.256-1.278-0.742-3.708-1.455-7.272l-0.092-0.452
	c0,2.03-0.143,4.469-0.43,7.329c-0.037,0.327-0.059,0.562-0.059,0.701l-2.434,27.234H579.931z"/>
<path fill="#3E3A39" d="M629.181,280.771l-2.051-10.438l18.719,0.034c0.859,0,1.541-0.19,2.006-0.556
	c0.482-0.365,0.723-0.886,0.723-1.579c0-0.611-0.24-1.212-0.732-1.811c-0.486-0.598-1.24-1.211-2.254-1.839l-8.363-5.057
	c-1.908-1.174-3.422-2.688-4.572-4.548c-1.131-1.857-1.701-3.767-1.701-5.733c0-1.912,0.33-3.641,0.984-5.184
	c0.641-1.556,1.609-2.878,2.879-3.979c1.199-1.053,2.676-1.795,4.418-2.236c1.75-0.435,4.572-0.654,8.488-0.654h9.951v9.984h-11.42
	c-1.57,0-2.658,0.123-3.262,0.375c-0.6,0.256-0.902,0.69-0.902,1.296c0,0.594,0.236,1.174,0.703,1.749
	c0.469,0.584,1.188,1.164,2.156,1.757l8.193,4.866c2.334,1.419,4.105,3.104,5.322,5.051c1.213,1.942,1.832,4.068,1.832,6.358
	c0,1.971-0.426,3.792-1.254,5.48c-0.826,1.679-1.984,3.05-3.465,4.101c-1.301,0.924-2.77,1.567-4.377,1.965
	c-1.627,0.395-4.209,0.597-7.742,0.597h-0.666H629.181z"/>
<g>
	<g>
		<defs>
			<path id="SVGID_1_" d="M194.522,219.544c-26.689,15.307-34.915,47.753-18.373,72.44c16.561,24.69,51.586,32.306,78.259,16.985
				c26.677-15.304,34.905-47.743,18.366-72.445c-10.758-16.06-29.347-24.903-48.366-24.903
				C214.189,211.621,203.835,214.188,194.522,219.544"/>
		</defs>
		<clipPath id="SVGID_2_">
			<use xlink:href="#SVGID_1_"  overflow="visible"/>
		</clipPath>
		
			<radialGradient id="SVGID_3_" cx="2.4487" cy="595.7305" r="0.5466" gradientTransform="matrix(88.3758 -50.7222 -54.7934 -81.8094 32650.1543 49124.8711)" gradientUnits="userSpaceOnUse">
			<stop  offset="0" style="stop-color:#A61C4B"/>
			<stop  offset="1" style="stop-color:#BD2A5B"/>
		</radialGradient>
		<polygon clip-path="url(#SVGID_2_)" fill="url(#SVGID_3_)" points="105.128,242.914 253.293,157.872 343.805,293.002 
			195.623,378.042 		"/>
	</g>
	<path fill="#431718" d="M221.902,318.89c-19.607,0-38.779-9.18-49.847-25.842c-8.247-12.405-10.824-27.061-7.246-41.289
		c3.567-14.195,12.851-26.264,26.14-33.952c27.449-15.878,63.611-7.97,80.633,17.645c17,25.609,8.523,59.361-18.92,75.249
		C243.079,316.231,232.433,318.89,221.902,318.89 M221.724,213.689c-9.746,0-19.592,2.445-28.462,7.571l0,0
		c-12.305,7.126-20.896,18.283-24.202,31.44c-3.308,13.159-0.933,26.712,6.695,38.219c15.735,23.687,49.215,31.005,74.603,16.315
		c25.415-14.7,33.259-45.92,17.5-69.633C257.616,222.179,239.868,213.689,221.724,213.689"/>
	<path fill="#911340" d="M185.957,267.402c-4.58,0.187-8.773-1.873-11.194-5.525c-2.409-3.646-2.537-8.069-0.311-11.825
		l8.454-14.342c1.04-1.786,2.544-3.254,4.359-4.313c2.824-1.635,6.296-2.157,9.547-1.434c3.248,0.721,6.012,2.574,7.771,5.249
		l20.22,30.652L185.957,267.402z"/>
	<path fill="#911340" d="M177.696,251.719l8.461-14.342c3.264-5.53,11.722-5.741,15.273-0.355l16.89,25.635l-32.509,1.278
		C178.916,264.218,174.363,257.359,177.696,251.719"/>
	<path fill="#911340" d="M202.324,299.35c-2.835,1.64-6.348,2.15-9.606,1.418c-3.252-0.721-6.014-2.633-7.765-5.316l-9.083-14.033
		c-3.562-5.458-1.695-12.645,4.125-16.025c1.862-1.073,4.036-1.674,6.267-1.74l38.542-0.996l-17.987,32.151
		C205.778,296.682,204.212,298.263,202.324,299.35"/>
	<path fill="#911340" d="M188.126,293.652l-9.073-14.025c-3.516-5.399,0.545-12.33,7.302-12.517l32.228-0.845l-15.06,26.933
		C200.342,298.896,191.691,299.153,188.126,293.652"/>
	<path fill="#911340" d="M238.677,307.901c-1.898,1.107-4.094,1.695-6.362,1.756l-17.536,0.301
		c-4.534,0.113-8.612-2.006-10.976-5.609c-2.35-3.589-2.474-7.941-0.326-11.644l18.341-31.668l20.848,30.61
		c1.81,2.669,2.404,5.814,1.649,8.862C243.566,303.579,241.513,306.267,238.677,307.901"/>
	<path fill="#911340" d="M232.248,306.179l-17.537,0.336c-6.775,0.127-11.187-6.609-7.964-12.185l15.326-26.453l17.457,25.629
		C243.23,298.943,239.135,306.058,232.248,306.179"/>
	<path fill="#911340" d="M200.956,236.862c-1.796-2.669-2.398-5.816-1.646-8.879c0.739-3.055,2.793-5.747,5.638-7.376
		c1.894-1.108,4.091-1.707,6.344-1.761l17.563-0.323c4.51-0.088,8.611,2.02,10.966,5.62c2.352,3.601,2.47,7.962,0.32,11.658
		l-18.341,31.665L200.956,236.862z"/>
	<path fill="#911340" d="M204.084,234.993c-3.685-5.415,0.396-12.526,7.292-12.675l17.544-0.32
		c6.766-0.132,11.185,6.601,7.957,12.16l-15.337,26.489L204.084,234.993z"/>
	<path fill="#911340" d="M256.371,297.115c-2.824,1.625-6.311,2.151-9.56,1.43c-3.262-0.713-6-2.59-7.773-5.25l-20.217-30.663
		l38.83-1.531c4.593-0.19,8.786,1.877,11.195,5.536c2.438,3.635,2.559,8.063,0.353,11.805l-8.479,14.352
		C259.663,294.569,258.171,296.062,256.371,297.115"/>
	<path fill="#911340" d="M265.943,276.788l-8.471,14.326c-3.27,5.547-11.714,5.743-15.277,0.352l-16.903-25.629l32.534-1.278
		C264.706,264.281,269.248,271.13,265.943,276.788"/>
	<path fill="#911340" d="M263.625,263.11c-1.862,1.078-4.032,1.688-6.263,1.741l-38.54,1.009l17.981-32.17
		c1.043-1.867,2.604-3.439,4.494-4.521c2.838-1.645,6.341-2.176,9.61-1.439c3.255,0.726,6.013,2.63,7.77,5.327l9.082,14.014
		C271.297,252.554,269.458,259.744,263.625,263.11"/>
	<path fill="#911340" d="M257.261,261.384l-32.239,0.839l15.083-26.913c3.181-5.712,11.832-5.966,15.394-0.459l9.072,14.017
		C268.085,254.291,264.04,261.212,257.261,261.384"/>
	<path fill="#F7F8F8" d="M222.121,221.606c-14.963,0.225-18.766,8.156-16.839,14.27c2.693,8.6,15.923,26.845,15.923,26.845
		c0.267,0.478,0.576,0.706,0.916,0.736c0.331-0.03,0.654-0.259,0.904-0.736c0,0,13.246-18.245,15.936-26.845
		C240.878,229.763,237.071,221.831,222.121,221.606"/>
	<path fill="#431718" d="M222.14,263.758c-0.529-0.039-0.935-0.351-1.214-0.906c-0.117-0.15-13.28-18.347-15.956-26.874
		c-0.998-3.186-0.416-6.462,1.621-9.005c1.962-2.512,6.277-5.541,15.521-5.673h0.009c9.243,0.132,13.555,3.161,15.534,5.673
		c2.028,2.543,2.613,5.819,1.623,9.005c-2.68,8.527-15.852,26.724-15.979,26.907C223.018,263.407,222.64,263.719,222.14,263.758
		 M222.121,221.93c-8.977,0.122-13.135,2.999-15.026,5.404c-1.873,2.399-2.419,5.469-1.502,8.465
		c2.653,8.453,15.759,26.568,15.883,26.751c0.211,0.375,0.435,0.575,0.665,0.594c0.197-0.019,0.404-0.219,0.599-0.561
		c0.149-0.216,13.252-18.331,15.906-26.784c0.934-2.996,0.389-6.065-1.515-8.465C235.241,224.929,231.101,222.052,222.121,221.93"/>
	<path fill="#F7F8F8" d="M222.197,306.515c14.969-0.209,18.763-8.146,16.825-14.264c-2.69-8.603-15.919-26.838-15.919-26.838
		c-0.255-0.484-0.571-0.703-0.906-0.737c-0.329,0.034-0.657,0.253-0.907,0.737c0,0-13.235,18.235-15.92,26.838
		C203.442,298.368,207.225,306.306,222.197,306.515"/>
	<path fill="#431718" d="M222.155,264.378c0.547,0.05,0.941,0.347,1.243,0.894c0.104,0.142,13.272,18.361,15.95,26.883
		c0.981,3.17,0.412,6.453-1.608,9.01c-1.986,2.503-6.292,5.536-15.543,5.663h-0.017c-9.245-0.127-13.551-3.16-15.528-5.663
		c-2.019-2.557-2.605-5.84-1.615-9.01c2.676-8.521,15.842-26.741,15.979-26.902C221.29,264.725,221.671,264.428,222.155,264.378
		 M222.197,306.206c8.972-0.115,13.118-3.014,15.007-5.399c1.9-2.397,2.432-5.482,1.499-8.469
		c-2.649-8.446-15.735-26.568-15.874-26.755c-0.212-0.377-0.419-0.581-0.675-0.604c-0.163,0.023-0.399,0.228-0.577,0.565
		c-0.158,0.226-13.269,18.348-15.907,26.794c-0.941,2.986-0.389,6.071,1.5,8.469C209.064,303.192,213.215,306.091,222.197,306.206"
		/>
	<path fill="#431718" d="M217.63,242.314c0.874,0.499,1.618,0.846,2.229,1.039c0.599,0.205,1.193,0.298,1.764,0.298
		c0.585,0,1.055-0.122,1.417-0.356c0.348-0.238,0.52-0.542,0.52-0.932c0-0.527-0.621-1.145-1.889-1.796
		c-0.196-0.122-0.35-0.215-0.466-0.283l-0.937-0.478c-0.933-0.497-1.625-1.043-2.086-1.668c-0.443-0.605-0.666-1.322-0.666-2.097
		c0-1.06,0.423-1.922,1.296-2.611c0.846-0.687,1.951-1.009,3.309-1.009c0.497,0,1.042,0.054,1.635,0.165
		c0.567,0.1,1.226,0.27,1.953,0.508v3.094c-0.687-0.405-1.349-0.728-1.936-0.927c-0.625-0.229-1.144-0.337-1.577-0.337
		c-0.464,0-0.845,0.101-1.119,0.288c-0.269,0.194-0.398,0.449-0.398,0.765c0,0.234,0.083,0.465,0.246,0.659
		c0.141,0.2,0.396,0.385,0.732,0.547l1.652,0.868c1.368,0.693,2.299,1.353,2.771,1.966c0.488,0.59,0.728,1.313,0.728,2.146
		c0,1.289-0.473,2.322-1.413,3.112c-0.935,0.781-2.171,1.19-3.724,1.19c-0.524,0-1.103-0.044-1.709-0.15
		c-0.624-0.112-1.298-0.279-2.048-0.482L217.63,242.314z"/>
	<path fill="#F7F8F8" d="M180.691,243.432c-7.069,12.321-1.462,19.254,5.193,20.664c9.347,1.961,32.884,0,32.884,0
		c0.567,0.034,0.919-0.118,1.112-0.377c0.15-0.292,0.082-0.662-0.244-1.105c0,0-10.682-19.653-17.417-26.011
		C197.409,232.07,188.137,231.314,180.691,243.432"/>
	<path fill="#431718" d="M198.581,265.267c-4.901,0-9.633-0.211-12.756-0.874c-3.465-0.74-6.25-2.789-7.657-5.667
		c-1.403-2.846-2.148-7.83,2.219-15.431l0.016-0.015c4.596-7.488,9.519-9.53,12.835-9.939c3.371-0.411,6.714,0.696,9.21,3.052
		c6.698,6.313,17.373,25.898,17.484,26.078c0.351,0.47,0.428,0.956,0.256,1.367c-0.317,0.419-0.791,0.59-1.439,0.57
		C218.629,264.423,208.263,265.267,198.581,265.267 M180.965,243.573c-4.229,7.396-3.527,12.18-2.208,14.888
		c1.327,2.708,3.955,4.649,7.211,5.323c9.187,1.951,32.536,0.015,32.76,0c0.463,0.015,0.753-0.05,0.884-0.25
		c0.067-0.146-0.009-0.42-0.244-0.745c-0.121-0.221-10.768-19.719-17.386-25.973c-2.335-2.215-5.515-3.263-8.661-2.873
		C190.159,234.324,185.45,236.315,180.965,243.573"/>
	<path fill="#F7F8F8" d="M263.444,243.432c7.053,12.321,1.469,19.254-5.222,20.664c-9.339,1.961-32.867,0-32.867,0
		c-0.586,0.034-0.936-0.118-1.124-0.377c-0.121-0.292-0.076-0.662,0.251-1.105c0,0,10.678-19.653,17.42-26.011
		C246.715,232.07,255.971,231.314,263.444,243.432"/>
	<path fill="#431718" d="M245.528,265.267c-9.679,0-20.038-0.844-20.189-0.858c-0.615,0.043-1.1-0.151-1.376-0.517
		c-0.219-0.465-0.13-0.951,0.24-1.45c0.086-0.15,10.762-19.736,17.462-26.049c2.484-2.347,5.847-3.463,9.213-3.052
		c3.324,0.409,8.247,2.451,12.847,9.939l0.009,0.015c4.351,7.601,3.601,12.585,2.231,15.431c-1.417,2.878-4.203,4.927-7.675,5.667
		C255.164,265.056,250.434,265.267,245.528,265.267 M225.344,263.784c0.269,0.015,23.624,1.951,32.806,0
		c3.248-0.674,5.89-2.615,7.209-5.323c1.329-2.708,2.024-7.492-2.209-14.888c-4.473-7.258-9.188-9.249-12.348-9.63
		c-3.164-0.39-6.326,0.658-8.667,2.873c-6.628,6.254-17.255,25.752-17.366,25.942c-0.257,0.355-0.346,0.629-0.226,0.833
		C224.639,263.734,224.91,263.799,225.344,263.784"/>
	<path fill="#F7F8F8" d="M179.975,288.129c8.264,11.001,17.458,9.785,22.081,5.227c6.62-6.552,17.216-27.064,17.216-27.064
		c0.341-0.483,0.387-0.878,0.231-1.156c-0.202-0.253-0.601-0.386-1.225-0.318c0,0-25.067-0.092-34.612,2.664
		C176.961,269.401,171.915,276.69,179.975,288.129"/>
	<path fill="#431718" d="M193.649,296.969c-0.159,0-0.308,0-0.47-0.015c-3.313-0.186-8.353-1.838-13.474-8.659l-0.01-0.009
		c-4.957-7.036-4.649-11.942-3.479-14.845c1.189-2.964,3.867-5.254,7.349-6.257c9.505-2.733,34.462-2.665,34.743-2.665
		c0.662-0.092,1.181,0.05,1.487,0.409c0.265,0.464,0.167,0.967-0.227,1.514c-0.08,0.174-10.681,20.6-17.269,27.097
		C199.998,295.798,196.87,297.031,193.649,296.969 M180.234,287.982c4.993,6.611,9.813,8.216,12.984,8.401
		c3.206,0.181,6.323-0.986,8.591-3.225c6.5-6.435,17.042-26.786,17.149-26.98c0.279-0.409,0.343-0.684,0.22-0.898
		c-0.109-0.127-0.41-0.198-0.863-0.136c-0.314,0-25.166-0.063-34.556,2.623c-3.275,0.957-5.805,3.103-6.917,5.889
		C175.732,276.417,175.432,281.134,180.234,287.982"/>
	<path fill="#F7F8F8" d="M264.425,288.129c-8.276,11.001-17.467,9.785-22.1,5.227c-6.616-6.552-17.211-27.064-17.211-27.064
		c-0.345-0.483-0.378-0.878-0.234-1.156c0.216-0.253,0.61-0.386,1.213-0.318c0,0,25.073-0.092,34.641,2.664
		C267.444,269.401,272.484,276.69,264.425,288.129"/>
	<path fill="#431718" d="M242.089,293.539c-6.582-6.497-17.195-26.923-17.267-27.097c-0.398-0.547-0.473-1.05-0.239-1.514
		c0.311-0.359,0.835-0.501,1.499-0.409c0.266,0,25.236-0.068,34.746,2.665c3.479,1.003,6.144,3.293,7.34,6.257
		c1.168,2.902,1.505,7.809-3.461,14.845v0.009c-5.149,6.835-10.175,8.474-13.497,8.659c-0.16,0.015-0.314,0.015-0.468,0.015
		C247.512,297.031,244.388,295.798,242.089,293.539 M267.555,273.656c-1.118-2.786-3.648-4.932-6.932-5.889
		c-9.374-2.686-34.239-2.623-34.542-2.623c-0.468-0.063-0.742,0.009-0.868,0.136c-0.123,0.215-0.066,0.489,0.219,0.898
		c0.109,0.194,10.646,20.546,17.138,26.98c2.277,2.238,5.39,3.405,8.586,3.225c3.19-0.186,8-1.79,12.994-8.401
		C268.97,281.134,268.666,276.417,267.555,273.656"/>
	<polygon fill="#431718" points="239.834,253.48 250.591,250.704 249.403,246.653 252.232,245.905 255.526,256.988 252.681,257.729 
		251.492,253.715 240.744,256.5 	"/>
	<polygon fill="#431718" points="207.111,281.188 193.851,287.427 193.698,287.251 197.639,278.045 187.316,279.651 
		187.157,279.476 196.802,268.915 198.772,271.261 194.443,275.86 202.264,274.627 202.384,274.782 199.344,281.842 
		205.256,278.973 	"/>
	<path fill="#431718" d="M196.312,258.241c0.96-0.297,1.723-0.594,2.269-0.901c0.579-0.303,1.037-0.66,1.393-1.079
		c0.388-0.415,0.59-0.828,0.621-1.234c0.019-0.408-0.114-0.726-0.427-0.965c-0.435-0.351-1.334-0.288-2.691,0.176
		c-0.227,0.078-0.399,0.121-0.52,0.16l-1.013,0.365c-1.01,0.347-1.906,0.484-2.706,0.4c-0.79-0.073-1.5-0.361-2.14-0.862
		c-0.875-0.679-1.299-1.537-1.319-2.601c0-1.049,0.438-2.059,1.319-3.02c0.312-0.361,0.707-0.721,1.17-1.063
		c0.461-0.351,1.02-0.693,1.672-1.063l2.522,1.991c-0.775,0.229-1.44,0.486-2.001,0.779c-0.573,0.308-0.993,0.601-1.262,0.908
		c-0.325,0.336-0.47,0.663-0.489,0.99c-0.029,0.327,0.097,0.585,0.371,0.774c0.194,0.157,0.409,0.239,0.677,0.254
		c0.279,0.02,0.584-0.038,0.922-0.165l1.763-0.636c1.486-0.531,2.62-0.765,3.42-0.712c0.8,0.041,1.542,0.327,2.228,0.865
		c1.06,0.828,1.6,1.829,1.651,3.005c0.037,1.175-0.439,2.335-1.441,3.424c-0.336,0.386-0.74,0.756-1.223,1.146
		c-0.483,0.352-1.056,0.742-1.709,1.123L196.312,258.241z"/>
	<polygon fill="#431718" points="245.364,272.567 257.192,279.759 252.442,286.564 250.002,285.075 252.962,280.843 250.83,279.535 
		248.295,283.172 245.872,281.704 248.408,278.062 246.061,276.642 243.06,280.936 240.584,279.433 	"/>
	<polygon fill="#431718" points="227.09,282.608 227.613,295.764 218.927,296.057 218.821,293.34 224.231,293.159 224.141,290.783 
		219.49,290.94 219.398,288.241 224.034,288.086 223.933,285.486 218.422,285.66 218.326,282.896 	"/>
</g>
</svg>
