<?xml version="1.0" encoding="utf-8"?>
<!-- Generator: Adobe Illustrator 14.0.0, SVG Export Plug-In . SVG Version: 6.00 Build 43363)  -->
<!DOCTYPE svg PUBLIC "-//W3C//DTD SVG 1.1//EN" "http://www.w3.org/Graphics/SVG/1.1/DTD/svg11.dtd">
<svg version="1.1" id="圖層_1" xmlns="http://www.w3.org/2000/svg" xmlns:xlink="http://www.w3.org/1999/xlink" x="0px" y="0px"
	 width="841.89px" height="595.28px" viewBox="0 0 841.89 595.28" enable-background="new 0 0 841.89 595.28" xml:space="preserve">
<g>
	<g>
		<g>
			<defs>
				<path id="SVGID_1_" d="M376.672,214.173c-47.933,27.5-62.7,85.774-32.992,130.127c29.737,44.348,92.658,58.025,140.576,30.51
					c47.924-27.494,62.688-85.767,32.992-130.125c-19.314-28.858-52.715-44.74-86.881-44.74
					C412.017,199.946,393.41,204.547,376.672,214.173"/>
			</defs>
			<clipPath id="SVGID_2_">
				<use xlink:href="#SVGID_1_"  overflow="visible"/>
			</clipPath>
			
				<radialGradient id="SVGID_3_" cx="3.9673" cy="594.4199" r="0.9816" gradientTransform="matrix(88.3758 -50.7222 -54.7934 -81.8094 32650.1543 49124.8711)" gradientUnits="userSpaceOnUse">
				<stop  offset="0" style="stop-color:#A61C4B"/>
				<stop  offset="1" style="stop-color:#BD2A5B"/>
			</radialGradient>
			<polygon clip-path="url(#SVGID_2_)" fill="url(#SVGID_3_)" points="216.1,256.165 482.252,103.393 644.834,346.127 
				378.67,498.883 			"/>
		</g>
		<path fill="#431718" d="M425.867,392.619c-35.221,0-69.669-16.488-89.539-46.418c-14.814-22.283-19.44-48.598-13.021-74.152
			c6.411-25.52,23.093-47.181,46.954-60.994c49.311-28.523,114.261-14.316,144.841,31.701
			c30.553,45.999,15.301,106.622-33.98,135.168C463.904,387.871,444.781,392.619,425.867,392.619 M425.541,203.657
			c-17.505,0-35.19,4.388-51.135,13.608l0,0c-22.088,12.792-37.53,32.842-43.463,56.47c-5.938,23.633-1.667,47.991,12.032,68.636
			c28.271,42.555,88.396,55.719,134.016,29.328c45.625-26.408,59.721-82.497,31.428-125.086
			C490.029,218.899,458.143,203.657,425.541,203.657"/>
		<path fill="#911340" d="M361.293,300.133c-8.224,0.35-15.762-3.354-20.096-9.923c-4.345-6.533-4.564-14.479-0.573-21.232
			l15.197-25.761c1.872-3.198,4.564-5.863,7.826-7.753c5.066-2.926,11.31-3.868,17.156-2.578c5.825,1.294,10.784,4.628,13.951,9.446
			l36.322,55.05L361.293,300.133z"/>
		<path fill="#911340" d="M346.456,271.981l15.201-25.774c5.863-9.935,21.057-10.319,27.431-0.63l30.352,46.046l-58.408,2.29
			C348.659,294.421,340.47,282.109,346.456,271.981"/>
		<path fill="#911340" d="M390.698,357.535c-5.092,2.934-11.394,3.863-17.244,2.547c-5.855-1.295-10.82-4.727-13.96-9.568
			l-16.313-25.18c-6.387-9.814-3.048-22.737,7.419-28.803c3.331-1.938,7.229-3.013,11.246-3.11l69.23-1.797l-32.29,57.753
			C396.893,352.73,394.096,355.563,390.698,357.535"/>
		<path fill="#911340" d="M365.202,347.291l-16.313-25.176c-6.3-9.711,0.985-22.168,13.135-22.496l57.889-1.508l-27.063,48.362
			C387.144,356.73,371.598,357.191,365.202,347.291"/>
		<path fill="#911340" d="M455.992,372.883c-3.393,1.99-7.336,3.055-11.42,3.145l-31.503,0.568
			c-8.129,0.186-15.479-3.6-19.705-10.072c-4.24-6.461-4.446-14.289-0.589-20.938l32.934-56.883l37.449,54.988
			c3.262,4.799,4.32,10.443,2.979,15.922C464.783,365.125,461.109,369.963,455.992,372.883"/>
		<path fill="#911340" d="M444.451,369.807l-31.507,0.592c-12.167,0.229-20.096-11.881-14.295-21.879l27.522-47.531l31.359,46.043
			C464.176,356.801,456.826,369.572,444.451,369.807"/>
		<path fill="#911340" d="M388.24,245.28c-3.233-4.791-4.309-10.449-2.965-15.935c1.335-5.509,5.024-10.331,10.129-13.263
			c3.403-1.983,7.351-3.068,11.39-3.155l31.553-0.583c8.102-0.148,15.469,3.627,19.705,10.092
			c4.227,6.458,4.438,14.285,0.568,20.957l-32.934,56.867L388.24,245.28z"/>
		<path fill="#911340" d="M393.866,241.933c-6.62-9.75,0.711-22.523,13.085-22.771l31.508-0.583
			c12.166-0.228,20.102,11.87,14.316,21.849l-27.555,47.575L393.866,241.933z"/>
		<path fill="#911340" d="M487.775,353.512c-5.078,2.924-11.338,3.863-17.168,2.57c-5.848-1.283-10.779-4.645-13.965-9.42
			l-36.312-55.078l69.759-2.772c8.244-0.338,15.771,3.376,20.1,9.953c4.375,6.53,4.588,14.471,0.633,21.223l-15.23,25.768
			C493.709,348.928,491.014,351.623,487.775,353.512"/>
		<path fill="#911340" d="M504.961,317l-15.201,25.744c-5.871,9.967-21.045,10.314-27.438,0.623l-30.361-46.031l58.422-2.293
			C502.75,294.542,510.928,306.851,504.961,317"/>
		<path fill="#911340" d="M500.805,292.429c-3.34,1.939-7.234,3.03-11.23,3.131l-69.244,1.809l32.302-57.778
			c1.879-3.358,4.684-6.186,8.064-8.132c5.098-2.955,11.385-3.91,17.266-2.577c5.855,1.301,10.809,4.716,13.963,9.565l16.301,25.168
			C514.598,273.463,511.271,286.397,500.805,292.429"/>
		<path fill="#911340" d="M489.377,289.336l-57.904,1.499l27.088-48.349c5.717-10.251,21.248-10.699,27.65-0.813l16.303,25.163
			C508.82,276.585,501.559,289.026,489.377,289.336"/>
		<path fill="#F7F8F8" d="M426.258,217.879c-26.879,0.403-33.699,14.658-30.253,25.639c4.844,15.443,28.614,48.209,28.614,48.209
			c0.479,0.872,1.035,1.269,1.639,1.331c0.602-0.062,1.182-0.458,1.641-1.331c0,0,23.781-32.767,28.607-48.209
			C459.941,232.537,453.123,218.282,426.258,217.879"/>
		<path fill="#431718" d="M426.307,293.588c-0.967-0.069-1.688-0.626-2.199-1.619c-0.207-0.26-23.862-32.963-28.673-48.275
			c-1.783-5.727-0.721-11.603,2.917-16.172c3.539-4.523,11.286-9.952,27.893-10.186h0.02c16.596,0.234,24.355,5.663,27.906,10.186
			c3.635,4.57,4.684,10.445,2.902,16.172c-4.813,15.312-28.457,48.015-28.697,48.332
			C427.869,292.962,427.193,293.519,426.307,293.588 M426.258,218.452c-16.126,0.22-23.588,5.404-26.982,9.728
			c-3.387,4.302-4.363,9.825-2.703,15.194c4.76,15.176,28.306,47.725,28.524,48.061c0.389,0.674,0.781,1.021,1.209,1.057
			c0.344-0.036,0.709-0.383,1.07-0.994c0.262-0.399,23.795-32.948,28.564-48.124c1.678-5.37,0.693-10.892-2.709-15.194
			C449.83,223.856,442.389,218.672,426.258,218.452"/>
		<path fill="#F7F8F8" d="M426.404,370.418c26.877-0.4,33.688-14.648,30.215-25.639c-4.84-15.443-28.602-48.211-28.602-48.211
			c-0.455-0.869-1.018-1.259-1.613-1.321c-0.609,0.062-1.184,0.452-1.639,1.321c0,0-23.773,32.768-28.61,48.211
			C392.7,355.77,399.504,370.018,426.404,370.418"/>
		<path fill="#431718" d="M426.34,294.708c0.961,0.088,1.666,0.627,2.213,1.599c0.18,0.267,23.846,32.988,28.648,48.303
			c1.764,5.691,0.738,11.59-2.895,16.182c-3.566,4.512-11.287,9.938-27.902,10.174h-0.037c-16.611-0.236-24.354-5.662-27.897-10.174
			c-3.62-4.592-4.676-10.49-2.891-16.182c4.795-15.314,28.451-48.036,28.695-48.332C424.766,295.335,425.461,294.796,426.34,294.708
			 M426.404,369.848c16.105-0.213,23.555-5.414,26.957-9.703c3.406-4.313,4.373-9.854,2.688-15.203
			c-4.752-15.182-28.277-47.728-28.512-48.063c-0.393-0.688-0.756-1.054-1.197-1.084c-0.326,0.031-0.729,0.396-1.063,1.004
			c-0.283,0.415-23.827,32.961-28.571,48.143c-1.684,5.35-0.701,10.891,2.703,15.203
			C402.804,364.434,410.263,369.635,426.404,369.848"/>
		<path fill="#431718" d="M418.198,255.061c1.568,0.899,2.896,1.531,3.988,1.891c1.082,0.355,2.15,0.534,3.189,0.534
			s1.885-0.218,2.531-0.652c0.629-0.414,0.945-0.966,0.945-1.655c0-0.963-1.125-2.06-3.396-3.241
			c-0.357-0.217-0.637-0.377-0.836-0.5l-1.691-0.868c-1.679-0.893-2.921-1.875-3.735-2.992c-0.799-1.08-1.204-2.363-1.204-3.765
			c0-1.909,0.751-3.464,2.336-4.695c1.512-1.223,3.505-1.816,5.938-1.816c0.898,0,1.867,0.103,2.93,0.307
			c1.025,0.173,2.199,0.481,3.504,0.904v5.561c-1.23-0.719-2.414-1.3-3.467-1.667c-1.121-0.403-2.047-0.596-2.826-0.596
			c-0.846,0-1.525,0.162-2.008,0.521c-0.496,0.334-0.73,0.799-0.73,1.37c0,0.43,0.146,0.834,0.441,1.177
			c0.266,0.348,0.715,0.7,1.32,0.985l2.957,1.543c2.461,1.258,4.141,2.442,4.988,3.543c0.873,1.069,1.303,2.366,1.303,3.857
			c0,2.312-0.855,4.171-2.531,5.584c-1.688,1.42-3.912,2.157-6.695,2.157c-0.936,0-1.969-0.103-3.07-0.28
			c-1.111-0.204-2.337-0.49-3.672-0.874L418.198,255.061z"/>
		<path fill="#F7F8F8" d="M351.829,257.087c-12.678,22.141-2.621,34.589,9.331,37.117c16.796,3.53,59.065,0,59.065,0
			c1.029,0.053,1.66-0.21,2.001-0.685c0.277-0.523,0.166-1.18-0.421-1.979c0,0-19.197-35.315-31.292-46.729
			C381.868,236.671,365.214,235.326,351.829,257.087"/>
		<path fill="#431718" d="M383.982,296.296c-8.804,0-17.315-0.379-22.919-1.553c-6.222-1.322-11.226-5.027-13.749-10.186
			c-2.525-5.114-3.851-14.052,3.978-27.727l0.032-0.02c8.249-13.448,17.099-17.121,23.063-17.859
			c6.049-0.744,12.059,1.258,16.527,5.497c12.034,11.339,31.22,46.511,31.418,46.854c0.627,0.837,0.771,1.692,0.459,2.433
			c-0.566,0.765-1.421,1.063-2.582,1.03C419.982,294.788,401.365,296.296,383.982,296.296 M352.341,257.351
			c-7.601,13.267-6.352,21.876-3.981,26.734c2.39,4.87,7.109,8.343,12.953,9.563c16.496,3.49,58.453,0.038,58.854,0
			c0.831,0.032,1.353-0.107,1.583-0.451c0.129-0.264-0.02-0.752-0.438-1.339c-0.218-0.4-19.333-35.413-31.218-46.646
			c-4.2-3.983-9.91-5.858-15.574-5.182C368.839,240.725,360.386,244.298,352.341,257.351"/>
		<path fill="#F7F8F8" d="M500.496,257.087c12.666,22.141,2.615,34.589-9.385,37.117c-16.771,3.53-59.041,0-59.041,0
			c-1.047,0.053-1.684-0.21-2.016-0.685c-0.23-0.523-0.146-1.18,0.449-1.979c0,0,19.178-35.315,31.283-46.729
			C470.438,236.671,487.07,235.326,500.496,257.087"/>
		<path fill="#431718" d="M468.311,296.296c-17.393,0-35.996-1.508-36.277-1.53c-1.096,0.065-1.959-0.265-2.463-0.931
			c-0.387-0.84-0.232-1.695,0.426-2.601c0.156-0.274,19.334-35.446,31.375-46.785c4.453-4.217,10.51-6.241,16.539-5.497
			c5.971,0.738,14.809,4.411,23.09,17.859l0.012,0.02c7.809,13.674,6.467,22.612,4,27.727c-2.545,5.158-7.551,8.863-13.779,10.186
			C485.615,295.917,477.115,296.296,468.311,296.296 M432.055,293.648c0.482,0.038,42.426,3.49,58.928,0
			c5.838-1.22,10.576-4.693,12.953-9.563c2.385-4.858,3.623-13.468-3.969-26.734c-8.041-13.053-16.514-16.626-22.18-17.32
			c-5.705-0.676-11.367,1.199-15.58,5.182c-11.902,11.233-30.984,46.246-31.184,46.583c-0.479,0.65-0.617,1.138-0.424,1.506
			C430.781,293.541,431.275,293.687,432.055,293.648"/>
		<path fill="#F7F8F8" d="M350.558,337.381c14.84,19.756,31.361,17.57,39.657,9.365c11.886-11.752,30.924-48.6,30.924-48.6
			c0.611-0.877,0.698-1.573,0.42-2.074c-0.372-0.461-1.091-0.699-2.192-0.571c0,0-45.026-0.16-62.194,4.779
			C345.141,303.733,336.061,316.828,350.558,337.381"/>
		<path fill="#431718" d="M375.114,353.254c-0.283,0-0.554-0.02-0.844-0.02c-5.954-0.352-14.987-3.314-24.196-15.559l-0.027-0.021
			c-8.896-12.631-8.34-21.447-6.248-26.664c2.149-5.313,6.951-9.424,13.202-11.242c17.068-4.917,61.912-4.803,62.418-4.803
			c1.179-0.149,2.122,0.11,2.661,0.754c0.472,0.832,0.303,1.732-0.403,2.73c-0.135,0.306-19.177,37-31.015,48.662
			C386.528,351.156,380.902,353.371,375.114,353.254 M351.031,337.115c8.958,11.871,17.631,14.758,23.313,15.078
			c5.756,0.324,11.363-1.766,15.429-5.789c11.677-11.57,30.613-48.101,30.8-48.462c0.503-0.722,0.614-1.227,0.4-1.603
			c-0.201-0.233-0.748-0.366-1.547-0.26c-0.56,0-45.21-0.115-62.074,4.726c-5.894,1.707-10.429,5.558-12.424,10.564
			C342.935,316.344,342.383,324.813,351.031,337.115"/>
		<path fill="#F7F8F8" d="M502.244,337.381c-14.861,19.756-31.369,17.57-39.699,9.365c-11.881-11.752-30.906-48.6-30.906-48.6
			c-0.615-0.877-0.686-1.573-0.416-2.074c0.377-0.461,1.092-0.699,2.18-0.571c0,0,45.033-0.16,62.205,4.779
			C507.666,303.733,516.717,316.828,502.244,337.381"/>
		<path fill="#431718" d="M462.117,347.092c-11.813-11.662-30.871-48.356-31.002-48.662c-0.709-0.998-0.857-1.898-0.424-2.73
			c0.555-0.645,1.492-0.904,2.682-0.754c0.484,0,45.336-0.114,62.404,4.803c6.256,1.818,11.059,5.929,13.205,11.242
			c2.082,5.217,2.688,14.033-6.232,26.664v0.021c-9.248,12.262-18.268,15.207-24.248,15.559c-0.279,0-0.545,0.02-0.832,0.02
			C471.881,353.371,466.258,351.156,462.117,347.092 M507.865,311.369c-2.004-5.007-6.539-8.857-12.447-10.564
			c-16.85-4.84-61.49-4.726-62.045-4.726c-0.836-0.106-1.34,0.027-1.563,0.26c-0.227,0.375-0.109,0.88,0.398,1.603
			c0.176,0.361,19.125,36.892,30.789,48.462c4.084,4.023,9.678,6.113,15.414,5.789c5.744-0.32,14.375-3.207,23.34-15.078
			C510.41,324.813,509.865,316.344,507.865,311.369"/>
		<polygon fill="#431718" points="458.084,275.123 477.4,270.14 475.264,262.86 480.35,261.544 486.262,281.452 481.162,282.767 
			479.006,275.562 459.699,280.567 		"/>
		<polygon fill="#431718" points="399.302,324.918 375.476,336.111 375.201,335.795 382.28,319.26 363.737,322.143 363.449,321.824 
			380.782,302.863 384.329,307.081 376.545,315.342 390.589,313.129 390.819,313.408 385.344,326.09 395.975,320.939 		"/>
		<path fill="#431718" d="M379.9,283.696c1.729-0.552,3.104-1.073,4.082-1.637c1.024-0.54,1.852-1.177,2.493-1.921
			c0.7-0.751,1.051-1.498,1.115-2.229c0.029-0.731-0.201-1.296-0.774-1.729c-0.776-0.628-2.385-0.526-4.826,0.314
			c-0.401,0.137-0.706,0.212-0.938,0.29l-1.827,0.656c-1.793,0.62-3.4,0.868-4.839,0.714c-1.41-0.13-2.703-0.645-3.866-1.542
			c-1.556-1.229-2.322-2.777-2.354-4.671c0-1.894,0.783-3.698,2.354-5.436c0.559-0.641,1.277-1.279,2.118-1.899
			c0.826-0.613,1.828-1.245,3.001-1.905l4.532,3.572c-1.393,0.403-2.595,0.861-3.603,1.401c-1.028,0.539-1.786,1.066-2.258,1.636
			c-0.583,0.6-0.847,1.185-0.894,1.77c-0.041,0.569,0.191,1.043,0.679,1.407c0.344,0.27,0.734,0.417,1.23,0.439
			c0.477,0.031,1.024-0.062,1.639-0.301l3.168-1.146c2.673-0.941,4.702-1.37,6.138-1.267c1.446,0.065,2.778,0.579,4.022,1.552
			c1.883,1.493,2.87,3.284,2.95,5.393c0.067,2.119-0.786,4.196-2.583,6.147c-0.61,0.698-1.338,1.371-2.193,2.056
			c-0.878,0.646-1.911,1.347-3.084,2.042L379.9,283.696z"/>
		<polygon fill="#431718" points="468.014,309.424 489.254,322.346 480.725,334.568 476.328,331.887 481.664,324.279 
			477.826,321.939 473.281,328.471 468.926,325.828 473.479,319.295 469.266,316.732 463.873,324.447 459.432,321.744 		"/>
		<polygon fill="#431718" points="435.189,327.453 436.113,351.09 420.514,351.605 420.331,346.74 430.055,346.404 429.9,342.139 
			421.542,342.42 421.355,337.572 429.701,337.303 429.518,332.627 419.629,332.951 419.45,327.982 		"/>
	</g>
	<g>
		<path fill="#7B7B7B" d="M298.1,322.139l8.021-2.096c2.249-0.588,4.208-0.48,5.88,0.32c1.672,0.801,2.75,2.131,3.235,3.986
			c0.219,0.838,0.254,1.668,0.106,2.492c-0.147,0.826-0.471,1.607-0.972,2.344c0.792,0.42,1.457,0.949,1.993,1.592
			c0.535,0.641,0.902,1.336,1.098,2.086c0.507,1.941,0.237,3.68-0.811,5.205c-1.048,1.527-2.709,2.59-4.989,3.188l-8.021,2.094
			l-1.187-4.547l8.756-2.285c0.62-0.164,1.084-0.477,1.396-0.938c0.313-0.461,0.397-0.967,0.253-1.514
			c-0.143-0.551-0.465-0.955-0.965-1.211c-0.5-0.262-1.06-0.311-1.68-0.15l-8.755,2.289l-1.179-4.518l8.754-2.285
			c0.621-0.164,1.085-0.48,1.395-0.949c0.308-0.473,0.391-0.986,0.244-1.545c-0.143-0.547-0.463-0.947-0.96-1.197
			c-0.499-0.252-1.057-0.293-1.676-0.131l-8.756,2.285L298.1,322.139z"/>
		<path fill="#7B7B7B" d="M310.097,357.096l6.769-3.262c1.043-0.502,1.724-1.102,2.043-1.793c0.319-0.699,0.27-1.479-0.149-2.348
			c-0.345-0.717-0.884-1.174-1.617-1.373c-0.731-0.199-1.516-0.096-2.354,0.307c-0.865,0.418-1.441,0.984-1.727,1.701
			c-0.286,0.719-0.231,1.482,0.161,2.299c0.095,0.195,0.232,0.41,0.414,0.643c0.18,0.234,0.442,0.525,0.785,0.881l-4.635,2.232
			c-0.243-0.314-0.458-0.619-0.646-0.914c-0.189-0.297-0.348-0.578-0.477-0.846c-0.958-1.99-1.059-3.959-0.303-5.914
			c0.756-1.953,2.195-3.441,4.317-4.463c2.121-1.02,4.182-1.219,6.182-0.592c1.998,0.625,3.475,1.934,4.434,3.924
			c0.66,1.369,0.893,2.785,0.697,4.248c-0.196,1.463-0.793,2.775-1.791,3.941c-0.38,0.449-0.845,0.861-1.389,1.24
			c-0.547,0.379-1.461,0.877-2.745,1.492l-5.919,2.852L310.097,357.096z"/>
		<path fill="#7B7B7B" d="M319.707,372.846l7.194-4.984c0.603-0.418,0.978-0.928,1.123-1.525c0.146-0.598,0.033-1.158-0.334-1.691
			c-0.367-0.529-0.859-0.834-1.471-0.912c-0.612-0.076-1.221,0.096-1.824,0.512l-7.195,4.988l-2.694-3.885l6.546-4.539
			c2.019-1.402,3.989-1.996,5.909-1.781c1.919,0.211,3.473,1.176,4.664,2.889c0.646,0.932,1.036,1.953,1.169,3.064
			c0.138,1.109,0.002,2.215-0.402,3.318c-0.277,0.727-0.677,1.391-1.201,1.992c-0.523,0.607-1.269,1.242-2.237,1.916l-6.545,4.537
			L319.707,372.846z"/>
		<path fill="#7B7B7B" d="M336.144,390.387c-1.827,1.754-3.707,2.615-5.638,2.594c-1.931-0.02-3.763-0.938-5.496-2.746
			c-0.613-0.641-1.185-1.324-1.717-2.051c-0.534-0.73-1.021-1.488-1.461-2.279l3.446-3.299c0.39,0.826,0.8,1.564,1.233,2.225
			c0.432,0.66,0.891,1.246,1.379,1.758c0.977,1.018,1.856,1.525,2.637,1.52c0.782-0.002,1.767-0.576,2.952-1.711l4.186-4.008
			c0.843-0.809,1.309-1.586,1.397-2.34c0.087-0.752-0.198-1.471-0.859-2.16c-0.549-0.574-1.204-0.844-1.961-0.809
			c-0.757,0.037-1.473,0.379-2.144,1.023c-0.694,0.664-1.065,1.381-1.115,2.152c-0.05,0.766,0.239,1.48,0.865,2.135
			c0.151,0.154,0.348,0.318,0.594,0.484c0.243,0.164,0.582,0.365,1.019,0.594l-3.604,3.451c-0.355-0.254-0.667-0.488-0.934-0.707
			c-0.266-0.221-0.5-0.436-0.7-0.643c-1.519-1.582-2.227-3.416-2.12-5.496c0.106-2.074,0.999-3.918,2.677-5.525
			c1.678-1.607,3.567-2.418,5.663-2.43c2.098-0.014,3.903,0.771,5.416,2.348c1.052,1.1,1.71,2.369,1.974,3.811
			s0.099,2.871-0.497,4.297c-0.224,0.543-0.534,1.082-0.938,1.609c-0.401,0.531-1.115,1.283-2.146,2.275L336.144,390.387z"/>
		<path fill="#7B7B7B" d="M343.377,387.529c0.662-0.869,1.441-1.58,2.337-2.123c0.895-0.549,1.882-0.914,2.965-1.105
			c1.039-0.172,2.049-0.137,3.029,0.094c0.979,0.23,1.872,0.654,2.679,1.266c0.824,0.627,1.481,1.387,1.975,2.27
			c0.494,0.889,0.793,1.854,0.901,2.895c0.108,1.057,0.015,2.088-0.281,3.105c-0.296,1.012-0.778,1.961-1.447,2.842
			c-0.669,0.879-1.453,1.6-2.35,2.156c-0.897,0.557-1.87,0.922-2.917,1.1c-1.032,0.176-2.042,0.145-3.028-0.094
			c-0.987-0.234-1.893-0.67-2.716-1.293c-0.807-0.615-1.453-1.363-1.938-2.244c-0.486-0.879-0.786-1.846-0.901-2.891
			c-0.106-1.094-0.017-2.146,0.271-3.154C342.24,389.344,342.714,388.4,343.377,387.529z M347.29,390.465
			c-0.537,0.707-0.782,1.473-0.732,2.295c0.049,0.82,0.375,1.463,0.976,1.916c0.609,0.467,1.322,0.613,2.136,0.449
			c0.813-0.168,1.488-0.602,2.026-1.311c0.537-0.711,0.777-1.477,0.721-2.305c-0.058-0.826-0.391-1.475-1.001-1.939
			c-0.601-0.457-1.305-0.598-2.109-0.426C348.499,389.32,347.828,389.76,347.29,390.465z"/>
		<path fill="#7B7B7B" d="M354.054,405.121l2.54-4.652l6.453,3.525c0.375,0.203,0.71,0.283,1.004,0.229
			c0.294-0.051,0.526-0.229,0.694-0.541c0.147-0.268,0.19-0.596,0.127-0.979c-0.062-0.381-0.235-0.832-0.52-1.35l-2.366-4.225
			c-0.534-0.973-0.817-2.006-0.853-3.105c-0.037-1.094,0.187-2.084,0.667-2.963c0.465-0.852,1.027-1.551,1.684-2.09
			c0.659-0.541,1.396-0.906,2.212-1.094c0.773-0.193,1.587-0.18,2.444,0.035c0.857,0.215,2.127,0.781,3.813,1.699l4.279,2.338
			l-2.435,4.463l-4.908-2.68c-0.68-0.373-1.181-0.572-1.501-0.602c-0.318-0.027-0.552,0.096-0.702,0.367
			c-0.144,0.266-0.186,0.578-0.126,0.949c0.061,0.365,0.228,0.795,0.502,1.287l2.334,4.1c0.656,1.182,1.01,2.35,1.058,3.506
			c0.047,1.158-0.208,2.252-0.768,3.271c-0.479,0.883-1.105,1.6-1.873,2.156c-0.769,0.559-1.6,0.898-2.496,1.023
			c-0.78,0.102-1.567,0.049-2.364-0.156c-0.793-0.201-1.95-0.721-3.468-1.549l-0.288-0.156L354.054,405.121z"/>
		<path fill="#7B7B7B" d="M384.985,400.982l-5.996,15.92l-4.968-1.875l5.997-15.918l-4.284-1.613l1.824-4.842l13.536,5.098
			l-1.823,4.84L384.985,400.982z"/>
		<path fill="#7B7B7B" d="M399.745,422.49l-0.538-0.123c-1.811-0.414-3.363-0.93-4.649-1.543c-1.288-0.609-2.328-1.328-3.116-2.158
			c-1.29-1.363-2.17-2.924-2.642-4.672c-0.471-1.752-0.492-3.557-0.068-5.42c0.427-1.861,1.229-3.477,2.407-4.84
			c1.178-1.359,2.65-2.375,4.415-3.041c1.071-0.402,2.319-0.598,3.745-0.588c1.427,0.006,3.046,0.215,4.859,0.633l0.536,0.123
			l-1.126,4.926c-0.134-0.041-0.274-0.082-0.424-0.123c-0.148-0.041-0.363-0.092-0.646-0.156c-1.822-0.412-3.334-0.471-4.536-0.162
			c-1.203,0.305-2.168,0.984-2.9,2.037l7.735,1.77l-1.106,4.834l-7.836-1.795c0.078,1.271,0.62,2.336,1.626,3.195
			c1.008,0.861,2.479,1.514,4.416,1.959c0.264,0.057,0.465,0.1,0.606,0.129c0.142,0.025,0.266,0.055,0.372,0.076L399.745,422.49z"/>
		<path fill="#7B7B7B" d="M417.519,424.363l-0.55-0.047c-1.854-0.164-3.458-0.463-4.818-0.893c-1.358-0.432-2.487-1.004-3.38-1.715
			c-1.464-1.176-2.548-2.598-3.255-4.266c-0.706-1.672-0.974-3.457-0.806-5.361c0.168-1.902,0.743-3.611,1.725-5.123
			c0.98-1.506,2.3-2.715,3.957-3.613c1.006-0.545,2.216-0.912,3.629-1.098c1.416-0.186,3.047-0.199,4.897-0.035l0.551,0.047
			l-0.444,5.035c-0.138-0.023-0.283-0.045-0.434-0.064c-0.156-0.02-0.375-0.041-0.662-0.066c-1.861-0.164-3.367-0.012-4.516,0.459
			c-1.15,0.467-2.015,1.273-2.594,2.414l7.903,0.699l-0.436,4.938l-8.006-0.703c0.249,1.24,0.931,2.225,2.045,2.941
			c1.114,0.713,2.662,1.158,4.643,1.332c0.267,0.023,0.474,0.041,0.617,0.049c0.143,0.01,0.27,0.018,0.379,0.023L417.519,424.363z"
			/>
		<path fill="#7B7B7B" d="M421.649,424.863l0.72-18.094c0.049-1.467,0.387-2.625,1.01-3.479c0.625-0.857,1.477-1.328,2.553-1.426
			c1.02-0.092,1.908,0.184,2.662,0.82c0.756,0.641,1.346,1.615,1.773,2.928l1.938,6.002c0.189,0.576,0.367,1.215,0.529,1.924
			c0.162,0.707,0.318,1.512,0.467,2.422c-0.012-0.922,0-1.744,0.039-2.471c0.033-0.723,0.096-1.385,0.184-1.984l0.854-6.246
			c0.189-1.369,0.598-2.43,1.229-3.193c0.633-0.756,1.465-1.188,2.494-1.275c1.078-0.096,1.996,0.223,2.756,0.955
			c0.76,0.73,1.289,1.814,1.598,3.248l3.898,17.686l-5.08,0.447l-2.408-13.707c-0.125-0.715-0.24-1.414-0.35-2.094
			c-0.111-0.68-0.209-1.33-0.295-1.957c-0.086,0.941-0.16,1.721-0.221,2.336c-0.057,0.615-0.123,1.17-0.189,1.652l-1.264,10.936
			c-0.148,1.248-0.422,2.152-0.816,2.719c-0.396,0.561-0.969,0.879-1.717,0.947c-0.746,0.063-1.357-0.148-1.848-0.631
			c-0.488-0.486-0.914-1.33-1.281-2.535l-3.178-10.545c-0.186-0.635-0.531-1.844-1.037-3.627l-0.064-0.225
			c0.09,1.027,0.133,2.271,0.119,3.738c-0.006,0.164-0.006,0.283,0.004,0.355l0.033,13.922L421.649,424.863z"/>
		<path fill="#7B7B7B" d="M450.08,421.545l-1.383-5.119l7.098-1.918c0.41-0.111,0.707-0.287,0.883-0.529
			c0.178-0.238,0.221-0.529,0.129-0.867c-0.08-0.301-0.277-0.566-0.588-0.797c-0.307-0.23-0.742-0.438-1.309-0.619l-4.631-1.408
			c-1.059-0.336-1.98-0.885-2.766-1.654c-0.783-0.768-1.305-1.633-1.568-2.6c-0.252-0.938-0.332-1.83-0.229-2.674
			c0.1-0.846,0.379-1.625,0.838-2.322c0.428-0.674,1.023-1.229,1.791-1.666s2.076-0.906,3.928-1.408l4.709-1.273l1.328,4.906
			l-5.398,1.461c-0.75,0.203-1.248,0.406-1.498,0.607s-0.334,0.451-0.254,0.748c0.08,0.291,0.266,0.547,0.566,0.771
			c0.297,0.225,0.713,0.42,1.256,0.582l4.518,1.346c1.293,0.398,2.355,1.002,3.193,1.803c0.834,0.799,1.4,1.764,1.705,2.893
			c0.264,0.965,0.311,1.916,0.141,2.85c-0.17,0.936-0.533,1.758-1.096,2.465c-0.492,0.615-1.096,1.123-1.809,1.527
			c-0.715,0.4-1.908,0.826-3.58,1.277l-0.316,0.086L450.08,421.545z"/>
		<path fill="#7B7B7B" d="M481.209,385.631l6.041,11.631c1.328,2.557,1.734,4.939,1.207,7.143c-0.525,2.205-1.877,3.873-4.055,5.004
			c-2.18,1.131-4.322,1.277-6.426,0.441c-2.105-0.84-3.82-2.539-5.148-5.1l-6.043-11.631l4.697-2.439l6.191,11.922
			c0.555,1.063,1.191,1.764,1.918,2.105c0.725,0.338,1.492,0.297,2.305-0.125c0.828-0.432,1.314-1.041,1.453-1.828
			c0.141-0.787-0.068-1.717-0.619-2.777l-6.193-11.922L481.209,385.631z"/>
		<path fill="#7B7B7B" d="M502.801,397.42l-5.133-7.09c-0.43-0.596-0.945-0.959-1.545-1.09c-0.6-0.135-1.164-0.014-1.684,0.365
			c-0.525,0.379-0.818,0.875-0.883,1.49c-0.066,0.615,0.119,1.221,0.549,1.813l5.133,7.094l-3.83,2.77l-4.67-6.451
			c-1.441-1.99-2.076-3.951-1.904-5.871c0.172-1.922,1.104-3.496,2.795-4.723c0.918-0.662,1.932-1.076,3.039-1.23
			c1.107-0.158,2.217-0.047,3.326,0.334c0.73,0.262,1.402,0.648,2.021,1.16c0.613,0.512,1.264,1.246,1.959,2.201l4.668,6.447
			L502.801,397.42z"/>
		<path fill="#7B7B7B" d="M496.127,377.246c-0.525-0.594-0.771-1.279-0.74-2.057c0.035-0.775,0.338-1.422,0.906-1.93
			c0.572-0.51,1.246-0.734,2.023-0.68c0.773,0.057,1.428,0.383,1.957,0.975c0.529,0.596,0.779,1.281,0.748,2.063
			c-0.029,0.783-0.332,1.428-0.902,1.936c-0.57,0.51-1.248,0.734-2.023,0.674C497.314,378.166,496.66,377.838,496.127,377.246z
			 M509.676,391.908l-10.455-11.732l3.609-3.213l10.453,11.73L509.676,391.908z"/>
		<path fill="#7B7B7B" d="M513.854,376.584c0.43,0.225,0.869,0.465,1.316,0.723c0.449,0.262,0.939,0.566,1.477,0.918
			c-0.273-0.377-0.557-0.789-0.855-1.234c-0.297-0.443-0.615-0.936-0.951-1.465l-4.168-6.576l3.316-3.574l6.771,11.742
			c0.533,0.928,0.781,1.781,0.74,2.563c-0.039,0.773-0.361,1.496-0.971,2.15c-0.604,0.646-1.283,1.018-2.049,1.111
			c-0.764,0.092-1.629-0.098-2.602-0.566l-12.242-5.855l3.332-3.586L513.854,376.584z"/>
		<path fill="#7B7B7B" d="M531.344,357.928c1.139,1.777,1.729,3.557,1.771,5.34c0.045,1.785-0.455,3.42-1.504,4.904
			c-0.578,0.822-1.303,1.496-2.172,2.021c-0.867,0.52-1.822,0.857-2.857,0.998c-1.074,0.158-2.121,0.109-3.143-0.141
			c-1.021-0.254-1.984-0.697-2.889-1.334s-1.645-1.393-2.225-2.273c-0.584-0.877-0.982-1.848-1.193-2.91
			c-0.203-1.02-0.205-2.02-0.004-3.006c0.199-0.982,0.596-1.893,1.186-2.73c0.881-1.252,2.018-2.133,3.41-2.646
			c1.395-0.518,2.977-0.631,4.744-0.342l0.01,8.963l-3.412-0.158l-0.055-4.895c-0.291,0.109-0.555,0.254-0.789,0.432
			c-0.229,0.176-0.434,0.387-0.607,0.627c-0.537,0.766-0.691,1.629-0.467,2.592c0.225,0.961,0.775,1.754,1.658,2.369
			c0.893,0.633,1.828,0.896,2.809,0.799c0.98-0.1,1.742-0.533,2.279-1.297c0.504-0.715,0.752-1.537,0.734-2.467
			c-0.016-0.926-0.299-1.906-0.846-2.941L531.344,357.928z"/>
		<path fill="#7B7B7B" d="M537.678,358.316l-13.84-7.438l2.068-3.848l2.072,1.115c-0.492-0.809-0.725-1.633-0.699-2.475
			c0.025-0.848,0.314-1.785,0.871-2.818l0.27-0.5l4.189,2.252l-0.1,0.186c-0.816,1.514-1.055,2.793-0.717,3.838
			c0.336,1.043,1.291,1.986,2.863,2.834l5.201,2.793L537.678,358.316z"/>
		<path fill="#7B7B7B" d="M539.227,345.838l2.15-5.291c0.109-0.268,0.145-0.486,0.109-0.656c-0.039-0.17-0.15-0.295-0.344-0.371
			c-0.115-0.049-0.24-0.057-0.375-0.023c-0.135,0.025-0.252,0.086-0.355,0.176l-1.723,1.682c-0.977,0.953-1.941,1.57-2.887,1.838
			c-0.947,0.27-1.906,0.207-2.885-0.191c-1.252-0.51-2.057-1.346-2.422-2.512c-0.363-1.166-0.229-2.525,0.4-4.072l1.945-4.781
			l3.916,1.594l-1.918,4.725c-0.082,0.193-0.096,0.377-0.041,0.549s0.16,0.291,0.322,0.359c0.107,0.039,0.229,0.047,0.371,0.018
			c0.139-0.027,0.246-0.086,0.328-0.172l1.65-1.598c1.131-1.107,2.174-1.816,3.133-2.131s1.941-0.268,2.945,0.141
			c0.699,0.285,1.275,0.691,1.727,1.225c0.453,0.533,0.764,1.154,0.932,1.867c0.102,0.539,0.105,1.107,0.004,1.717
			s-0.43,1.59-0.979,2.941l-1.887,4.643L539.227,345.838z"/>
		<path fill="#7B7B7B" d="M547.207,316.697c1.695,1.256,2.877,2.711,3.553,4.359c0.674,1.652,0.787,3.359,0.334,5.121
			c-0.254,0.975-0.689,1.859-1.316,2.66c-0.625,0.797-1.398,1.445-2.316,1.951c-0.947,0.525-1.941,0.854-2.99,0.98
			c-1.043,0.127-2.102,0.051-3.172-0.225s-2.033-0.721-2.889-1.334c-0.854-0.615-1.572-1.381-2.145-2.299
			c-0.553-0.881-0.91-1.818-1.072-2.807c-0.16-0.992-0.113-1.982,0.139-2.977c0.385-1.482,1.133-2.711,2.256-3.686
			c1.115-0.973,2.557-1.643,4.311-2.002l3.191,8.379l-3.246,1.063l-1.791-4.557c-0.234,0.205-0.43,0.436-0.584,0.682
			c-0.152,0.246-0.268,0.516-0.34,0.803c-0.234,0.906-0.074,1.77,0.475,2.588c0.555,0.82,1.352,1.363,2.391,1.629
			c1.061,0.273,2.033,0.189,2.912-0.252c0.883-0.441,1.441-1.115,1.674-2.018c0.217-0.85,0.154-1.703-0.189-2.566
			s-0.955-1.682-1.834-2.451L547.207,316.697z"/>
	</g>
	<g>
		<path fill="#7B7B7B" d="M309.651,276.814l-7.92-2.451c-2.22-0.686-3.828-1.812-4.826-3.375c-0.998-1.563-1.213-3.261-0.645-5.092
			c0.256-0.828,0.664-1.553,1.224-2.175c0.561-0.622,1.248-1.115,2.063-1.476c-0.451-0.777-0.737-1.577-0.853-2.405
			c-0.117-0.825-0.061-1.61,0.167-2.351c0.594-1.918,1.739-3.25,3.435-3.996c1.696-0.746,3.669-0.769,5.918-0.071l7.92,2.45
			l-1.39,4.488l-8.645-2.675c-0.611-0.189-1.172-0.17-1.68,0.057c-0.508,0.229-0.846,0.613-1.014,1.153
			c-0.167,0.542-0.107,1.056,0.181,1.539c0.287,0.487,0.738,0.823,1.349,1.011l8.645,2.679l-1.381,4.458l-8.643-2.676
			c-0.613-0.189-1.174-0.166-1.685,0.072c-0.512,0.236-0.852,0.632-1.022,1.181c-0.169,0.542-0.107,1.05,0.184,1.526
			c0.292,0.474,0.742,0.806,1.354,0.996l8.645,2.675L309.651,276.814z"/>
		<path fill="#7B7B7B" d="M322.089,244.755l-6.651-3.5c-1.024-0.537-1.91-0.729-2.657-0.572c-0.749,0.156-1.347,0.663-1.796,1.514
			c-0.371,0.704-0.417,1.411-0.142,2.117c0.277,0.707,0.826,1.275,1.648,1.708c0.851,0.449,1.648,0.574,2.395,0.376
			c0.746-0.197,1.329-0.695,1.751-1.497c0.101-0.192,0.191-0.433,0.271-0.717c0.079-0.284,0.159-0.668,0.239-1.154l4.553,2.395
			c-0.106,0.382-0.224,0.737-0.349,1.063c-0.126,0.328-0.257,0.623-0.397,0.887c-1.026,1.952-2.55,3.206-4.57,3.763
			c-2.02,0.554-4.072,0.283-6.156-0.814c-2.084-1.097-3.47-2.635-4.157-4.613c-0.687-1.979-0.515-3.944,0.512-5.898
			c0.709-1.346,1.708-2.377,3.001-3.091c1.291-0.711,2.703-1.014,4.232-0.906c0.587,0.039,1.194,0.166,1.823,0.379
			c0.63,0.211,1.575,0.65,2.836,1.316l5.814,3.059L322.089,244.755z"/>
		<path fill="#7B7B7B" d="M331.064,231.033l-7.07-5.164c-0.592-0.433-1.194-0.621-1.806-0.563c-0.611,0.06-1.108,0.349-1.489,0.87
			c-0.381,0.523-0.508,1.086-0.38,1.689c0.127,0.604,0.489,1.124,1.081,1.555l7.069,5.165l-2.787,3.817l-6.432-4.696
			c-1.985-1.452-3.192-3.117-3.621-5c-0.428-1.882-0.026-3.667,1.204-5.352c0.668-0.916,1.506-1.621,2.51-2.111
			c1.005-0.491,2.095-0.725,3.27-0.705c0.775,0.024,1.534,0.184,2.276,0.481c0.742,0.296,1.589,0.792,2.54,1.486l6.433,4.697
			L331.064,231.033z"/>
		<path fill="#7B7B7B" d="M345.172,214.094c1.808,1.771,2.73,3.624,2.767,5.554c0.04,1.933-0.819,3.79-2.572,5.58
			c-0.621,0.631-1.286,1.224-1.998,1.782c-0.71,0.557-1.454,1.066-2.228,1.531l-3.408-3.34c0.811-0.417,1.541-0.85,2.187-1.302
			c0.647-0.454,1.216-0.931,1.711-1.434c0.988-1.009,1.467-1.903,1.438-2.684c-0.031-0.783-0.631-1.748-1.805-2.898l-4.137-4.056
			c-0.834-0.819-1.629-1.259-2.381-1.322c-0.756-0.066-1.466,0.242-2.135,0.925c-0.556,0.567-0.803,1.229-0.742,1.987
			c0.061,0.754,0.423,1.458,1.087,2.11c0.687,0.671,1.415,1.021,2.187,1.047c0.77,0.024,1.474-0.288,2.106-0.933
			c0.153-0.157,0.308-0.358,0.466-0.608c0.157-0.25,0.345-0.596,0.562-1.037l3.562,3.492c-0.241,0.363-0.465,0.682-0.676,0.955
			c-0.211,0.276-0.417,0.515-0.619,0.72c-1.538,1.571-3.347,2.332-5.427,2.292c-2.078-0.04-3.949-0.874-5.608-2.501
			c-1.66-1.628-2.529-3.489-2.607-5.585c-0.08-2.096,0.647-3.925,2.178-5.486c1.065-1.086,2.314-1.784,3.745-2.094
			c1.432-0.308,2.869-0.188,4.311,0.363c0.551,0.206,1.096,0.501,1.638,0.885c0.541,0.385,1.321,1.076,2.338,2.073L345.172,214.094z
			"/>
		<path fill="#7B7B7B" d="M342.576,207.064c-0.663-0.874-1.137-1.813-1.422-2.82c-0.287-1.01-0.377-2.06-0.271-3.154
			c0.115-1.047,0.416-2.011,0.901-2.892c0.484-0.882,1.132-1.63,1.938-2.243c0.824-0.626,1.729-1.058,2.716-1.296
			c0.987-0.236,1.997-0.267,3.027-0.094c1.048,0.181,2.021,0.547,2.918,1.103c0.896,0.558,1.68,1.274,2.349,2.156
			c0.669,0.879,1.151,1.828,1.448,2.84c0.296,1.015,0.39,2.052,0.28,3.107c-0.108,1.042-0.408,2.005-0.901,2.895
			c-0.493,0.886-1.151,1.643-1.975,2.268c-0.806,0.614-1.7,1.037-2.679,1.269c-0.979,0.232-1.989,0.263-3.029,0.092
			c-1.081-0.189-2.069-0.557-2.966-1.104C344.018,208.644,343.239,207.936,342.576,207.064z M346.453,204.077
			c0.536,0.71,1.208,1.148,2.014,1.321c0.806,0.173,1.509,0.031,2.111-0.427c0.609-0.462,0.942-1.108,1-1.935
			c0.057-0.829-0.184-1.597-0.721-2.305c-0.537-0.708-1.214-1.144-2.026-1.313c-0.813-0.166-1.525-0.017-2.134,0.447
			c-0.602,0.456-0.928,1.096-0.976,1.919C345.67,202.606,345.915,203.372,346.453,204.077z"/>
		<path fill="#7B7B7B" d="M361.124,203.062l-2.575-4.629l6.426-3.572c0.373-0.208,0.618-0.451,0.73-0.726
			c0.115-0.276,0.085-0.568-0.085-0.875c-0.148-0.271-0.404-0.482-0.76-0.631c-0.356-0.152-0.831-0.247-1.421-0.284l-4.833-0.257
			c-1.107-0.067-2.135-0.381-3.081-0.937c-0.946-0.556-1.663-1.271-2.15-2.147c-0.471-0.849-0.76-1.696-0.865-2.542
			c-0.106-0.844-0.021-1.662,0.255-2.454c0.253-0.756,0.698-1.438,1.337-2.046c0.639-0.611,1.797-1.382,3.476-2.314l4.261-2.368
			l2.47,4.441l-4.888,2.718c-0.679,0.375-1.115,0.693-1.308,0.948c-0.193,0.255-0.215,0.519-0.065,0.79
			c0.146,0.263,0.39,0.464,0.732,0.612c0.344,0.146,0.795,0.232,1.358,0.262l4.711,0.219c1.352,0.076,2.528,0.403,3.531,0.979
			c1.004,0.579,1.788,1.376,2.356,2.396c0.485,0.878,0.759,1.788,0.82,2.735c0.061,0.949-0.095,1.833-0.469,2.656
			c-0.332,0.714-0.795,1.354-1.393,1.916c-0.598,0.564-1.651,1.265-3.164,2.104l-0.287,0.16L361.124,203.062z"/>
		<path fill="#7B7B7B" d="M378.072,175.987l6.188,15.848l-4.945,1.93l-6.189-15.847l-4.264,1.666l-1.883-4.819l13.474-5.264
			l1.883,4.819L378.072,175.987z"/>
		<path fill="#7B7B7B" d="M403.255,186.489l-0.537,0.132c-1.806,0.44-3.423,0.676-4.848,0.705c-1.426,0.03-2.676-0.15-3.753-0.535
			c-1.765-0.643-3.249-1.641-4.455-2.996c-1.206-1.354-2.036-2.959-2.488-4.816c-0.452-1.854-0.458-3.657-0.015-5.403
			c0.443-1.747,1.305-3.312,2.583-4.698c0.78-0.837,1.806-1.573,3.086-2.205c1.278-0.631,2.82-1.166,4.627-1.608l0.535-0.131
			l1.199,4.908c-0.137,0.021-0.283,0.05-0.432,0.082c-0.151,0.032-0.366,0.082-0.646,0.15c-1.816,0.443-3.193,1.072-4.131,1.885
			c-0.936,0.814-1.496,1.854-1.677,3.122l7.707-1.882l1.176,4.816l-7.809,1.908c0.638,1.1,1.599,1.806,2.884,2.127
			c1.286,0.318,2.894,0.241,4.826-0.23c0.261-0.063,0.461-0.114,0.6-0.153c0.138-0.039,0.262-0.072,0.367-0.098L403.255,186.489z"/>
		<path fill="#7B7B7B" d="M419.197,184.624l-0.548,0.059c-1.848,0.195-3.481,0.211-4.9,0.05c-1.416-0.163-2.63-0.506-3.647-1.032
			c-1.661-0.873-2.999-2.061-4.012-3.565c-1.014-1.501-1.622-3.203-1.824-5.104c-0.201-1.899,0.036-3.686,0.709-5.356
			c0.672-1.67,1.734-3.109,3.187-4.312c0.882-0.727,2-1.317,3.352-1.772c1.352-0.455,2.952-0.78,4.801-0.976l0.549-0.058
			l0.532,5.023c-0.141,0.004-0.286,0.011-0.439,0.023c-0.154,0.011-0.374,0.032-0.662,0.061c-1.857,0.199-3.306,0.636-4.343,1.318
			c-1.038,0.682-1.732,1.638-2.082,2.869l7.889-0.834l0.523,4.93l-7.994,0.847c0.485,1.174,1.343,2.005,2.573,2.494
			c1.232,0.486,2.837,0.626,4.814,0.415c0.267-0.027,0.471-0.051,0.615-0.071c0.143-0.021,0.269-0.037,0.377-0.047L419.197,184.624z
			"/>
		<path fill="#7B7B7B" d="M421.021,184.093l3.525-17.76c0.279-1.441,0.791-2.534,1.539-3.28c0.748-0.747,1.664-1.083,2.744-1.009
			c1.021,0.069,1.855,0.478,2.502,1.226c0.646,0.75,1.078,1.804,1.299,3.163l0.979,6.234c0.098,0.597,0.172,1.255,0.223,1.979
			c0.053,0.724,0.078,1.546,0.086,2.468c0.131-0.913,0.273-1.723,0.42-2.435c0.148-0.709,0.311-1.353,0.49-1.931l1.816-6.042
			c0.398-1.318,0.969-2.305,1.713-2.958c0.74-0.653,1.627-0.945,2.658-0.875c1.08,0.074,1.939,0.531,2.576,1.372
			c0.633,0.84,0.99,1.994,1.07,3.458l1.102,18.078l-5.088-0.348l-0.246-13.918c-0.01-0.726-0.018-1.431-0.02-2.12
			c-0.004-0.688,0-1.349,0.014-1.98c-0.23,0.917-0.424,1.674-0.58,2.273c-0.16,0.601-0.307,1.134-0.447,1.602l-2.951,10.608
			c-0.338,1.209-0.748,2.061-1.225,2.557c-0.48,0.496-1.092,0.718-1.848,0.666c-0.742-0.048-1.32-0.355-1.725-0.91
			c-0.406-0.556-0.695-1.456-0.871-2.699l-1.5-10.913c-0.084-0.658-0.236-1.905-0.459-3.742l-0.029-0.236
			c-0.07,1.031-0.225,2.268-0.463,3.713c-0.031,0.161-0.047,0.281-0.055,0.353l-2.131,13.754L421.021,184.093z"/>
		<path fill="#7B7B7B" d="M447.197,186.469l1.289-5.139l7.131,1.793c0.416,0.105,0.758,0.097,1.027-0.028
			c0.273-0.123,0.453-0.354,0.541-0.694c0.076-0.301,0.033-0.629-0.123-0.982c-0.154-0.354-0.438-0.748-0.844-1.179l-3.35-3.495
			c-0.758-0.807-1.293-1.74-1.602-2.792c-0.307-1.053-0.344-2.064-0.1-3.036c0.236-0.942,0.605-1.755,1.109-2.446
			c0.502-0.688,1.121-1.227,1.867-1.613c0.699-0.379,1.492-0.571,2.375-0.579c0.881-0.006,2.254,0.227,4.115,0.692l4.729,1.19
			l-1.238,4.929l-5.426-1.364c-0.75-0.189-1.285-0.258-1.602-0.203c-0.313,0.052-0.51,0.23-0.586,0.53
			c-0.07,0.291-0.037,0.606,0.113,0.948c0.15,0.341,0.424,0.715,0.811,1.122l3.289,3.384c0.928,0.98,1.564,2.024,1.9,3.132
			c0.338,1.107,0.363,2.227,0.076,3.359c-0.242,0.971-0.666,1.822-1.271,2.554s-1.324,1.27-2.158,1.615
			c-0.732,0.294-1.508,0.442-2.328,0.443c-0.822,0.003-2.068-0.208-3.746-0.63l-0.318-0.079L447.197,186.469z"/>
		<path fill="#7B7B7B" d="M496.299,181.469l-5.959,11.675c-1.314,2.567-3.021,4.276-5.119,5.13c-2.1,0.854-4.242,0.72-6.43-0.395
			c-2.186-1.118-3.549-2.778-4.088-4.978c-0.539-2.202-0.154-4.584,1.156-7.152l5.967-11.672l4.711,2.408l-6.109,11.964
			c-0.547,1.068-0.746,1.994-0.6,2.781c0.143,0.788,0.621,1.39,1.438,1.805c0.832,0.424,1.611,0.465,2.33,0.122
			c0.725-0.344,1.359-1.05,1.902-2.117l6.113-11.964L496.299,181.469z"/>
		<path fill="#7B7B7B" d="M495.932,208.082l5.113-7.104c0.43-0.596,0.613-1.2,0.549-1.81c-0.063-0.61-0.352-1.107-0.877-1.484
			c-0.523-0.376-1.088-0.5-1.693-0.367c-0.602,0.132-1.119,0.494-1.545,1.089l-5.117,7.105l-3.836-2.762l4.652-6.462
			c1.438-1.995,3.096-3.214,4.973-3.655c1.883-0.441,3.67-0.054,5.365,1.169c0.92,0.662,1.625,1.494,2.125,2.495
			c0.498,1,0.74,2.089,0.729,3.264c-0.02,0.776-0.176,1.534-0.467,2.28c-0.293,0.746-0.781,1.594-1.467,2.552l-4.658,6.463
			L495.932,208.082z"/>
		<path fill="#7B7B7B" d="M501.744,212.723l10.443-11.738l3.609,3.213l-10.443,11.736L501.744,212.723z M514.744,197.577
			c0.527-0.594,1.182-0.92,1.957-0.977c0.773-0.056,1.449,0.169,2.021,0.678c0.57,0.509,0.877,1.151,0.906,1.93
			c0.035,0.776-0.211,1.462-0.74,2.055c-0.529,0.594-1.184,0.921-1.963,0.982s-1.455-0.164-2.027-0.672
			c-0.572-0.51-0.873-1.152-0.902-1.935C513.965,198.857,514.213,198.17,514.744,197.577z"/>
		<path fill="#7B7B7B" d="M517.049,216.073c-0.254,0.41-0.527,0.831-0.818,1.257c-0.293,0.428-0.637,0.896-1.023,1.404
			c0.393-0.242,0.826-0.497,1.291-0.759c0.467-0.263,0.977-0.543,1.535-0.841l6.873-3.662l3.311,3.577l-12.221,5.871
			c-0.965,0.46-1.834,0.645-2.605,0.547c-0.771-0.098-1.461-0.475-2.072-1.132c-0.602-0.648-0.92-1.356-0.953-2.124
			c-0.033-0.766,0.221-1.618,0.76-2.553l6.76-11.767l3.322,3.587L517.049,216.073z"/>
		<path fill="#7B7B7B" d="M530.918,237.813c-2.055,0.465-3.93,0.417-5.619-0.15c-1.695-0.564-3.063-1.592-4.102-3.084
			c-0.576-0.825-0.963-1.733-1.16-2.729c-0.197-0.997-0.188-2.006,0.031-3.03c0.217-1.061,0.613-2.03,1.203-2.906
			c0.586-0.876,1.332-1.627,2.236-2.262c0.908-0.632,1.871-1.074,2.895-1.321c1.025-0.249,2.072-0.292,3.143-0.13
			c1.027,0.158,1.971,0.495,2.828,1.02c0.855,0.522,1.578,1.205,2.166,2.044c0.875,1.256,1.318,2.625,1.326,4.11
			c0.01,1.484-0.422,3.009-1.293,4.577l-8.436-3.042l1.314-3.153l4.621,1.61c-0.002-0.312-0.053-0.608-0.137-0.884
			c-0.088-0.28-0.219-0.542-0.389-0.786c-0.535-0.767-1.293-1.206-2.271-1.323c-0.982-0.116-1.914,0.136-2.793,0.75
			c-0.898,0.626-1.469,1.417-1.709,2.372c-0.238,0.957-0.092,1.817,0.441,2.584c0.504,0.717,1.191,1.228,2.07,1.529
			s1.896,0.37,3.057,0.205L530.918,237.813z"/>
		<path fill="#7B7B7B" d="M526.838,242.789l13.898-7.329l2.035,3.866l-2.082,1.098c0.943,0.042,1.76,0.308,2.447,0.8
			c0.684,0.492,1.299,1.259,1.846,2.295l0.266,0.502l-4.207,2.22l-0.1-0.187c-0.801-1.521-1.727-2.433-2.783-2.739
			c-1.051-0.303-2.369-0.039-3.951,0.793l-5.225,2.754L526.838,242.789z"/>
		<path fill="#7B7B7B" d="M535.984,250.766l2.09,5.314c0.111,0.269,0.232,0.451,0.379,0.549c0.143,0.099,0.313,0.11,0.502,0.034
			c0.117-0.045,0.211-0.127,0.287-0.24c0.08-0.117,0.123-0.241,0.141-0.376l0.082-2.405c0.053-1.367,0.324-2.473,0.822-3.322
			c0.5-0.848,1.238-1.465,2.219-1.852c1.262-0.495,2.424-0.446,3.492,0.149c1.066,0.595,1.904,1.669,2.516,3.223l1.891,4.801
			l-3.934,1.549l-1.869-4.745c-0.074-0.193-0.191-0.334-0.352-0.422c-0.156-0.087-0.316-0.1-0.479-0.035
			c-0.107,0.041-0.201,0.121-0.281,0.239c-0.082,0.118-0.123,0.233-0.119,0.351l-0.094,2.297c-0.059,1.582-0.322,2.816-0.801,3.703
			c-0.477,0.888-1.219,1.531-2.229,1.93c-0.703,0.276-1.4,0.378-2.096,0.304c-0.695-0.073-1.348-0.309-1.961-0.709
			c-0.449-0.315-0.844-0.728-1.188-1.24c-0.348-0.509-0.785-1.445-1.322-2.806l-1.836-4.661L535.984,250.766z"/>
		<path fill="#7B7B7B" d="M546.162,278.761c-2.088-0.31-3.816-1.032-5.189-2.171c-1.373-1.138-2.279-2.59-2.709-4.359
			c-0.236-0.975-0.27-1.963-0.094-2.961c0.176-1.002,0.549-1.938,1.123-2.815c0.584-0.912,1.309-1.67,2.17-2.273
			c0.863-0.605,1.834-1.04,2.906-1.302c1.072-0.262,2.133-0.323,3.174-0.185c1.045,0.139,2.037,0.478,2.979,1.015
			c0.902,0.516,1.658,1.174,2.266,1.971c0.609,0.799,1.037,1.695,1.281,2.689c0.363,1.487,0.281,2.926-0.248,4.312
			c-0.527,1.389-1.477,2.656-2.859,3.8l-6.764-5.884l2.363-2.465l3.727,3.172c0.107-0.293,0.172-0.585,0.193-0.876
			c0.02-0.291-0.006-0.581-0.078-0.871c-0.223-0.908-0.768-1.594-1.645-2.056c-0.871-0.462-1.828-0.563-2.873-0.311
			c-1.063,0.26-1.881,0.792-2.447,1.597c-0.572,0.804-0.746,1.662-0.523,2.568c0.207,0.851,0.668,1.574,1.377,2.174
			c0.709,0.599,1.635,1.03,2.775,1.294L546.162,278.761z"/>
	</g>
	<path fill="#7B7B7B" d="M305.521,297.413c0,2.351-1.908,4.259-4.263,4.259c-2.351,0-4.26-1.908-4.26-4.259
		c0-2.357,1.909-4.266,4.26-4.266C303.613,293.147,305.521,295.055,305.521,297.413z"/>
	<path fill="#7B7B7B" d="M553.072,297.413c0,2.351-1.908,4.259-4.264,4.259c-2.35,0-4.26-1.908-4.26-4.259
		c0-2.357,1.91-4.266,4.26-4.266C551.164,293.147,553.072,295.055,553.072,297.413z"/>
</g>
</svg>
