<?xml version="1.0" encoding="UTF-8"?>
<svg width="20px" height="20px" viewBox="0 0 20 20" version="1.1" xmlns="http://www.w3.org/2000/svg" xmlns:xlink="http://www.w3.org/1999/xlink">
    <title>icon/add-circle_active</title>
    <defs>
        <path d="M10,0 C4.477,0 0,4.477 0,10 C0,15.523 4.477,20 10,20 C15.523,20 20,15.523 20,10 C20,4.477 15.523,0 10,0" id="path-1"></path>
        <polygon id="path-3" points="4.56357388 8 4.56357388 4.56357388 8 4.56357388 8 3.43642612 4.56357388 3.43642612 4.56357388 0 3.43642612 0 3.43642612 3.43642612 0 3.43642612 0 4.56357388 3.43642612 4.56357388 3.43642612 8"></polygon>
    </defs>
    <g id="icon/add-circle_active" stroke="none" stroke-width="1" fill="none" fill-rule="evenodd">
        <g id="color/bg-white">
            <mask id="mask-2" fill="white">
                <use xlink:href="#path-1"></use>
            </mask>
            <use id="Mask" fill="#FFFFFF" xlink:href="#path-1"></use>
            <g id="Group" mask="url(#mask-2)" fill="#32C1DB">
                <g id="Rectangle">
                    <rect x="0" y="0" width="20" height="20"></rect>
                </g>
            </g>
        </g>
        <g id="color/gray-copy-3" transform="translate(6.000000, 6.000000)">
            <mask id="mask-4" fill="white">
                <use xlink:href="#path-3"></use>
            </mask>
            <use id="Mask" fill="#FFFFFF" xlink:href="#path-3"></use>
            <g id="Group" mask="url(#mask-4)">
                <g transform="translate(-6.000000, -6.000000)">
                    <rect id="Rectangle" fill="#FFFFFF" x="0" y="0" width="20" height="20"></rect>
                </g>
            </g>
        </g>
    </g>
</svg>