<?xml version="1.0" encoding="UTF-8"?>
<svg width="20px" height="20px" viewBox="0 0 20 20" version="1.1" xmlns="http://www.w3.org/2000/svg" xmlns:xlink="http://www.w3.org/1999/xlink">
    <title>icon/bookmark_circle-white</title>
    <defs>
        <path d="M10,0 C15.523,0 20,4.477 20,10 C20,15.523 15.523,20 10,20 C4.477,20 0,15.523 0,10 C0,4.477 4.477,0 10,0 Z M10,1 C5.0375,1 1,5.0375 1,10 C1,14.9625 5.0375,19 10,19 C14.9625,19 19,14.9625 19,10 C19,5.0375 14.9625,1 10,1 Z M12.6666667,5 L12.7934694,5.00680272 C13.0416327,5.03401361 13.2571429,5.14285714 13.44,5.33333333 C13.6533333,5.55555556 13.76,5.81777778 13.76,6.12 L13.76,6.12 L13.76,15 L9.88,13.3333333 L6,15 L6,6.12 L6.00888889,5.97222222 C6.03851852,5.73148148 6.14222222,5.51851852 6.32,5.33333333 C6.53333333,5.11111111 6.79111111,5 7.09333333,5 L7.09333333,5 L12.6666667,5 Z M12.6666667,6.12 L7.09333333,6.12 L7.09333333,13.3333333 L9.88,12.1066667 L12.6666667,13.3333333 L12.6666667,6.12 Z" id="path-1"></path>
    </defs>
    <g id="icon/bookmark_circle-white" stroke="none" stroke-width="1" fill="none" fill-rule="evenodd">
        <mask id="mask-2" fill="white">
            <use xlink:href="#path-1"></use>
        </mask>
        <use id="Combined-Shape" fill="#999999" fill-rule="nonzero" xlink:href="#path-1"></use>
        <g id="Group" mask="url(#mask-2)" fill="#FFFFFF">
            <g id="Rectangle">
                <rect x="0" y="0" width="20" height="20"></rect>
            </g>
        </g>
    </g>
</svg>