<?xml version="1.0" encoding="UTF-8"?>
<svg width="20px" height="20px" viewBox="0 0 20 20" version="1.1" xmlns="http://www.w3.org/2000/svg" xmlns:xlink="http://www.w3.org/1999/xlink">
    <title>icon/bookmark_circle</title>
    <defs>
        <path d="M6,-2 C11.523,-2 16,2.477 16,8 C16,13.523 11.523,18 6,18 C0.477,18 -4,13.523 -4,8 C-4,2.477 0.477,-2 6,-2 Z M6,-1 C1.0375,-1 -3,3.0375 -3,8 C-3,12.9625 1.0375,17 6,17 C10.9625,17 15,12.9625 15,8 C15,3.0375 10.9625,-1 6,-1 Z M8.66666667,3 L8.79346939,3.00680272 C9.04163265,3.03401361 9.25714286,3.14285714 9.44,3.33333333 C9.65333333,3.55555556 9.76,3.81777778 9.76,4.12 L9.76,4.12 L9.76,13 L5.88,11.3333333 L2,13 L2,4.12 L2.00888889,3.97222222 C2.03851852,3.73148148 2.14222222,3.51851852 2.32,3.33333333 C2.53333333,3.11111111 2.79111111,3 3.09333333,3 L3.09333333,3 L8.66666667,3 Z M8.66666667,4.12 L3.09333333,4.12 L3.09333333,11.3333333 L5.88,10.1066667 L8.66666667,11.3333333 L8.66666667,4.12 Z" id="path-1"></path>
    </defs>
    <g id="icon/bookmark_circle" stroke="none" stroke-width="1" fill="none" fill-rule="evenodd">
        <g id="color/gray-copy-3" transform="translate(4.000000, 2.000000)">
            <mask id="mask-2" fill="white">
                <use xlink:href="#path-1"></use>
            </mask>
            <use id="Combined-Shape" fill="#999999" fill-rule="nonzero" xlink:href="#path-1"></use>
            <g id="Group" mask="url(#mask-2)">
                <g transform="translate(-4.000000, -2.000000)">
                    <rect id="Rectangle-Copy" fill="#788DB4" x="0" y="0" width="20" height="20"></rect>
                </g>
            </g>
        </g>
    </g>
</svg>