<?xml version="1.0" encoding="UTF-8"?>
<svg width="20px" height="20px" viewBox="0 0 20 20" version="1.1" xmlns="http://www.w3.org/2000/svg" xmlns:xlink="http://www.w3.org/1999/xlink">
    <title>icon/bookmark_circle_active</title>
    <defs>
        <path d="M6,-2 C0.477,-2 -4,2.477 -4,8 C-4,13.523 0.477,18 6,18 C11.523,18 16,13.523 16,8 C16,2.477 11.523,-2 6,-2 M6,-1 C10.9625,-1 15,3.0375 15,8 C15,12.9625 10.9625,17 6,17 C1.0375,17 -3,12.9625 -3,8 C-3,3.0375 1.0375,-1 6,-1" id="path-1"></path>
        <path d="M9.76,13 L9.76,4.12 C9.76,3.81777778 9.65333333,3.55555556 9.44,3.33333333 C9.22666667,3.11111111 8.96888889,3 8.66666667,3 L8.66666667,3 L3.09333333,3 C2.79111111,3 2.53333333,3.11111111 2.32,3.33333333 C2.10666667,3.55555556 2,3.81777778 2,4.12 L2,4.12 L2,13 L5.88,11.3333333 L9.76,13 Z" id="path-3"></path>
    </defs>
    <g id="icon/bookmark_circle_active" stroke="none" stroke-width="1" fill="none" fill-rule="evenodd">
        <g id="color/gray-copy-3" transform="translate(4.000000, 2.000000)">
            <g>
                <mask id="mask-2" fill="white">
                    <use xlink:href="#path-1"></use>
                </mask>
                <use id="Combined-Shape" fill="#999999" fill-rule="nonzero" xlink:href="#path-1"></use>
                <g id="Group" mask="url(#mask-2)">
                    <g transform="translate(-4.000000, -2.000000)">
                        <rect id="Rectangle" fill="#FFFFFF" x="0" y="0" width="20" height="20"></rect>
                    </g>
                </g>
            </g>
            <mask id="mask-4" fill="white">
                <use xlink:href="#path-3"></use>
            </mask>
            <use id="Mask" fill="#999999" fill-rule="nonzero" xlink:href="#path-3"></use>
            <g id="Group" mask="url(#mask-4)">
                <g transform="translate(-4.000000, -2.000000)">
                    <rect id="Rectangle" fill="#FFCE67" x="0" y="0" width="20" height="20"></rect>
                </g>
            </g>
        </g>
    </g>
</svg>