<?xml version="1.0" encoding="UTF-8"?>
<svg width="20px" height="20px" viewBox="0 0 20 20" version="1.1" xmlns="http://www.w3.org/2000/svg" xmlns:xlink="http://www.w3.org/1999/xlink">
    <title>icon/bullhorn - LineAwesome</title>
    <defs>
        <path d="M5.4453125,15.375 L5.23046875,14.5742188 L4.21484375,11 L6.32421875,11 C7.24869792,11 8.296875,11.1888021 9.46875,11.5664062 C10.4322917,11.8789062 11.4283854,12.2955729 12.4570312,12.8164062 C13.1992188,13.1940104 13.9283854,13.6106771 14.6445312,14.0664062 C15.0091146,14.2877604 15.2955729,14.4765625 15.5039062,14.6328125 L16.5,15.3554688 L16.5,9.6328125 C16.8645833,9.50260417 17.1640625,9.27799479 17.3984375,8.95898438 C17.6328125,8.63997396 17.75,8.27864583 17.75,7.875 C17.75,7.47135417 17.6328125,7.11002604 17.3984375,6.79101562 C17.1640625,6.47200521 16.8645833,6.24739583 16.5,6.1171875 L16.5,0.39453125 L15.5039062,1.1171875 L15.1132812,1.390625 C14.7877604,1.61197917 14.4361979,1.83984375 14.0585938,2.07421875 C13.5377604,2.38671875 13.0104167,2.6796875 12.4765625,2.953125 C11.4609375,3.47395833 10.4648438,3.890625 9.48828125,4.203125 C8.31640625,4.56770833 7.26171875,4.75 6.32421875,4.75 L0.25,4.75 L0.25,10.453125 L0.26953125,10.5507812 L1.51953125,14.9257812 L1.65625,15.375 L5.4453125,15.375 Z M15.25,13.0117188 L15.0351562,12.875 C14.7486979,12.6666667 14.5013021,12.5039062 14.2929688,12.3867188 C13.9414062,12.1653646 13.5182292,11.9309896 13.0234375,11.6835938 C10.5755208,10.4335938 8.40104167,9.7890625 6.5,9.75 L6.5,6 C8.38802083,5.9609375 10.5690104,5.30989583 13.0429688,4.046875 C13.5377604,3.79947917 13.9544271,3.57161458 14.2929688,3.36328125 C14.5013021,3.23307292 14.7486979,3.0703125 15.0351562,2.875 L15.25,2.71875 L15.25,13.0117188 Z M5.25,9.75 L1.5,9.75 L1.5,6 L5.25,6 L5.25,9.75 Z M3.78515625,14.125 L2.59375,14.125 L1.71484375,11 L2.90625,11 L3.78515625,14.125 Z" id="path-1"></path>
    </defs>
    <g id="icon/bullhorn---LineAwesome" stroke="none" stroke-width="1" fill="none" fill-rule="evenodd">
        <g id="color/gray-copy-3" transform="translate(1.000000, 2.000000)">
            <mask id="mask-2" fill="white">
                <use xlink:href="#path-1"></use>
            </mask>
            <use id="Mask" fill="#999999" fill-rule="nonzero" xlink:href="#path-1"></use>
            <g id="Group" mask="url(#mask-2)">
                <g transform="translate(-1.000000, -2.000000)">
                    <rect id="Rectangle-Copy" fill="#788DB4" x="0" y="0" width="20" height="20"></rect>
                </g>
            </g>
        </g>
    </g>
</svg>