<?xml version="1.0" encoding="UTF-8"?>
<svg width="20px" height="20px" viewBox="0 0 20 20" version="1.1" xmlns="http://www.w3.org/2000/svg" xmlns:xlink="http://www.w3.org/1999/xlink">
    <title>icon/crown</title>
    <defs>
        <path d="M15.4791667,13.875 C15.6875,13.875 15.875,14.0416667 15.8541667,14.2708333 L15.8541667,14.2708333 L15.8541667,15.4791667 C15.8541667,15.6875 15.6875,15.8541667 15.4791667,15.8541667 L15.4791667,15.8541667 L4.58333333,15.8541667 C4.375,15.8541667 4.20833333,15.6875 4.20833333,15.4791667 L4.20833333,15.4791667 L4.20833333,14.2708333 C4.20833333,14.0416667 4.375,13.875 4.58333333,13.875 L4.58333333,13.875 Z M9.95833333,3.0625 C10.7708333,3.0625 11.4166667,3.70833333 11.4166667,4.52083333 C11.4166667,5.25 10.9166667,5.83333333 10.2291667,5.95833333 C10.8125,7.5625 12.3541667,8.72916667 14.1666667,8.72916667 C15.7291667,8.72916667 17.0833333,7.875 17.7916667,6.60416667 C17.3125,6.35416667 16.9791667,5.875 16.9791667,5.29166667 C16.9791667,4.47916667 17.625,3.83333333 18.4375,3.83333333 C19.25,3.83333333 19.9166667,4.45833333 19.9166667,5.27083333 C19.9166667,6.08333333 19.2708333,6.72916667 18.4583333,6.72916667 L18.4583333,6.72916667 L18.375,6.72916667 L15.9791667,12.7708333 C15.9166667,12.9166667 15.7916667,13.0208333 15.625,13.0208333 L15.625,13.0208333 L4.47916667,13.0208333 C4.33333333,13.0208333 4.1875,12.9166667 4.125,12.7708333 L4.125,12.7708333 L1.72916667,6.72916667 C1.6875,6.75 1.625,6.75 1.58333333,6.75 C0.770833333,6.75 0.125,6.10416667 0.125,5.29166667 C0.125,4.47916667 0.770833333,3.83333333 1.58333333,3.83333333 C2.39583333,3.83333333 3.04166667,4.47916667 3.04166667,5.29166667 C3.04166667,5.83333333 2.72916667,6.3125 2.27083333,6.5625 C2.97916667,7.85416667 4.35416667,8.72916667 5.91666667,8.72916667 C7.70833333,8.72916667 9.25,7.58333333 9.83333333,5.95833333 C9.08333333,5.89583333 8.5,5.29166667 8.5,4.52083333 C8.5,3.70833333 9.14583333,3.0625 9.95833333,3.0625 Z" id="path-1"></path>
    </defs>
    <g id="icon/crown" stroke="none" stroke-width="1" fill="none" fill-rule="evenodd">
        <mask id="mask-2" fill="white">
            <use xlink:href="#path-1"></use>
        </mask>
        <use id="Mask" fill="#000000" fill-rule="nonzero" xlink:href="#path-1"></use>
        <g id="Group" mask="url(#mask-2)" fill="#FF5C75">
            <g id="Rectangle">
                <rect x="0" y="0" width="20" height="20"></rect>
            </g>
        </g>
    </g>
</svg>