<?xml version="1.0" encoding="UTF-8"?>
<svg width="20px" height="20px" viewBox="0 0 20 20" version="1.1" xmlns="http://www.w3.org/2000/svg" xmlns:xlink="http://www.w3.org/1999/xlink">
    <title>icon/delete_forever - material</title>
    <defs>
        <path d="M11.82,3 L11.82,1.32 L8.94,1.32 L8.08,0.5 L3.94,0.5 L3.08,1.32 L0.18,1.32 L0.18,3 L11.82,3 Z M9.32,15.5 C9.77333333,15.5 10.1666667,15.3333333 10.5,15 C10.8333333,14.6666667 11,14.2733333 11,13.82 L11,13.82 L11,3.82 L1,3.82 L1,13.82 C1,14.2733333 1.16666667,14.6666667 1.5,15 C1.83333333,15.3333333 2.22666667,15.5 2.68,15.5 L2.68,15.5 L9.32,15.5 Z M7.76,12.6 L6,10.86 L4.24,12.6 L3.08,11.44 L4.82,9.68 L3.04,7.88 L4.24,6.7 L6,8.5 L7.76,6.7 L8.94,7.88 L7.18,9.68 L8.94,11.44 L7.76,12.6 Z" id="path-1"></path>
    </defs>
    <g id="icon/delete_forever---material" stroke="none" stroke-width="1" fill="none" fill-rule="evenodd">
        <g id="color/gray-copy-3" transform="translate(4.000000, 2.000000)">
            <mask id="mask-2" fill="white">
                <use xlink:href="#path-1"></use>
            </mask>
            <use id="Mask" fill="#999999" fill-rule="nonzero" xlink:href="#path-1"></use>
            <g id="Group" mask="url(#mask-2)">
                <g transform="translate(-4.000000, -2.000000)">
                    <rect id="Rectangle-Copy" fill="#788DB4" x="0" y="0" width="20" height="20"></rect>
                </g>
            </g>
        </g>
    </g>
</svg>