<?xml version="1.0" encoding="UTF-8"?>
<svg width="20px" height="20px" viewBox="0 0 20 20" version="1.1" xmlns="http://www.w3.org/2000/svg" xmlns:xlink="http://www.w3.org/1999/xlink">
    <title>icon/event_available - material</title>
    <defs>
        <path d="M13.82,17.5 C14.2733333,17.5 14.6666667,17.3333333 15,17 C15.3333333,16.6666667 15.5,16.2733333 15.5,15.82 L15.5,15.82 L15.5,4.18 C15.5,3.72666667 15.3333333,3.33333333 15,3 C14.6666667,2.66666667 14.2733333,2.5 13.82,2.5 L13.82,2.5 L13,2.5 L13,0.82 L11.32,0.82 L11.32,2.5 L4.68,2.5 L4.68,0.82 L3,0.82 L3,2.5 L2.18,2.5 C1.71333333,2.5 1.31666667,2.66666667 0.99,3 C0.663333333,3.33333333 0.5,3.72666667 0.5,4.18 L0.5,4.18 L0.5,15.82 C0.5,16.2733333 0.663333333,16.6666667 0.99,17 C1.31666667,17.3333333 1.71333333,17.5 2.18,17.5 L2.18,17.5 L13.82,17.5 Z M13.82,15.82 L2.18,15.82 L2.18,6.68 L13.82,6.68 L13.82,15.82 Z M6.82,14.18 L11.8,9.22 L10.9,8.32 L6.82,12.38 L5.08,10.62 L4.18,11.52 L6.82,14.18 Z" id="path-1"></path>
    </defs>
    <g id="icon/event_available---material" stroke="none" stroke-width="1" fill="none" fill-rule="evenodd">
        <g id="color/gray-copy-3" transform="translate(2.000000, 0.000000)">
            <mask id="mask-2" fill="white">
                <use xlink:href="#path-1"></use>
            </mask>
            <use id="Mask" fill="#999999" fill-rule="nonzero" xlink:href="#path-1"></use>
            <g id="Group" mask="url(#mask-2)">
                <g transform="translate(-2.000000, 0.000000)">
                    <rect id="Rectangle-Copy" fill="#788DB4" x="0" y="0" width="20" height="20"></rect>
                </g>
            </g>
        </g>
    </g>
</svg>