<?xml version="1.0" encoding="UTF-8"?>
<svg width="20px" height="20px" viewBox="0 0 20 20" version="1.1" xmlns="http://www.w3.org/2000/svg" xmlns:xlink="http://www.w3.org/1999/xlink">
    <title>icon/EXP</title>
    <defs>
        <path d="M13.6289091,13.7691818 L14.4148182,19.3019091 C14.4689091,19.6841818 14.073,19.9719091 13.7261818,19.8014545 L13.7261818,19.8014545 L10.1470909,18.0450909 C10.0107273,17.9778182 9.85027273,17.9796364 9.71436364,18.0496364 L9.71436364,18.0496364 L6.068,19.9319091 C5.71890909,20.1119091 5.313,19.821 5.37118182,19.4328182 L5.37118182,19.4328182 L6.22390909,13.7764545 C6.28209091,13.7819091 6.34118182,13.7878182 6.39709091,13.7928182 C6.68118182,13.8182727 7.003,13.8469091 7.163,13.9132727 C7.30254545,13.971 7.53754545,14.1700909 7.74527273,14.346 C8.25209091,14.7750909 8.94618182,15.3623636 9.88572727,15.3623636 C10.8257273,15.3623636 11.5198182,14.7750909 12.0266364,14.346 C12.2339091,14.1700909 12.4693636,13.971 12.6084545,13.9132727 C12.7689091,13.8473636 13.0907273,13.8182727 13.3748182,13.7928182 C13.4570909,13.7855455 13.5420909,13.7778182 13.6289091,13.7691818 L13.6289091,13.7691818 Z M1.9946994,12.0629225 C2.02190912,11.9790258 2.13891093,11.9790258 2.16657414,12.0629225 C2.54841725,13.234301 2.92663239,13.6120627 4.09801094,13.9943593 C4.18190758,14.0220225 4.18190758,14.1390243 4.09801094,14.166234 C2.92663239,14.5485306 2.54841725,14.9267458 2.16657414,16.0976708 C2.13891093,16.1815675 2.02190912,16.1815675 1.9946994,16.0976708 C1.6124028,14.9267458 1.23464115,14.5485306 0.0632626045,14.166234 C-0.0210875348,14.1390243 -0.0210875348,14.0220225 0.0632626045,13.9943593 C1.23464115,13.6120627 1.6124028,13.234301 1.9946994,12.0629225 Z M9.88577273,0.454454545 C10.7580455,0.454454545 11.4153182,1.50263636 12.1735,1.81718182 C12.9598636,2.14263636 14.1625909,1.879 14.7548636,2.47127273 C15.3475909,3.06354545 15.0835,4.26672727 15.4089545,5.05263636 C15.7239545,5.81081818 16.7712273,6.46809091 16.7712273,7.33990909 C16.7712273,8.21218182 15.7235,8.86945455 15.4089545,9.62763636 C15.0835,10.414 15.3471364,11.6167273 14.7548636,12.209 C14.1621364,12.8017273 12.9594091,12.5376364 12.1735,12.8635455 C11.4153182,13.1780909 10.7580455,14.2258182 9.88577273,14.2258182 C9.01395455,14.2258182 8.35668182,13.1780909 7.5985,12.8635455 C6.81213636,12.5376364 5.60940909,12.8012727 5.01713636,12.209 C4.42440909,11.6167273 4.6885,10.414 4.36259091,9.62763636 C4.04804545,8.86945455 3.00031818,8.21218182 3.00031818,7.33990909 C3.00031818,6.46809091 4.04804545,5.81081818 4.36259091,5.05263636 C4.68804545,4.26627273 4.42440909,3.06354545 5.01668182,2.47127273 C5.60940909,1.879 6.81213636,2.14263636 7.5985,1.81672727 C8.35668182,1.50263636 9.01395455,0.454454545 9.88577273,0.454454545 Z M9.88577273,3.46763636 C7.74668182,3.46763636 6.01259091,5.20127273 6.01259091,7.33990909 C6.01304545,9.479 7.74713636,11.2130909 9.88577273,11.2130909 C12.0244091,11.2130909 13.7585,9.479 13.7589545,7.33990909 C13.7589545,5.20127273 12.0248636,3.46763636 9.88577273,3.46763636 Z M9.57027273,5.39645455 C9.74481818,5.04281818 10.0270909,5.04281818 10.2011818,5.39645455 L10.2011818,5.39645455 L10.7066364,6.41872727 L11.8352727,6.58281818 C12.2252727,6.63963636 12.3120909,6.90872727 12.0298182,7.18372727 L12.0298182,7.18372727 L11.2134545,7.97918182 L11.4061818,9.10327273 C11.4725455,9.49190909 11.2439091,9.65827273 10.8948182,9.47463636 L10.8948182,9.47463636 L9.88572727,8.94418182 L8.87663636,9.47463636 C8.528,9.65827273 8.29936364,9.49190909 8.36572727,9.10327273 L8.36572727,9.10327273 L8.55845455,7.97918182 L7.74163636,7.18372727 C7.45936364,6.90872727 7.54709091,6.63963636 7.93663636,6.58281818 L7.93663636,6.58281818 L9.06527273,6.41872727 Z" id="path-1"></path>
    </defs>
    <g id="icon/EXP" stroke="none" stroke-width="1" fill="none" fill-rule="evenodd">
        <mask id="mask-2" fill="white">
            <use xlink:href="#path-1"></use>
        </mask>
        <use id="Mask" fill="#173042" xlink:href="#path-1"></use>
        <g id="Group" mask="url(#mask-2)" fill="#FFFFFF">
            <g id="Rectangle">
                <rect x="0" y="0" width="20" height="20"></rect>
            </g>
        </g>
    </g>
</svg>