<?xml version="1.0" encoding="UTF-8"?>
<svg width="20px" height="20px" viewBox="0 0 20 20" version="1.1" xmlns="http://www.w3.org/2000/svg" xmlns:xlink="http://www.w3.org/1999/xlink">
    <title>icon/flag - FontAwesome</title>
    <defs>
        <path d="M2.38095323,16.2856956 C2.55803657,16.2856956 2.71428657,16.1294456 2.71428657,15.9523622 L2.71428657,2.76486222 C3.12053657,2.52527889 3.38095323,2.09819555 3.38095323,1.61902889 C3.38095323,0.879445553 2.78720323,0.285695553 2.0476199,0.285695553 C1.30803657,0.285695553 0.714286566,0.879445553 0.714286566,1.61902889 C0.714286566,2.09819555 0.974703232,2.52527889 1.38095323,2.76486222 L1.38095323,15.9523622 C1.38095323,16.1294456 1.53720323,16.2856956 1.71428657,16.2856956 L2.38095323,16.2856956 Z M4.0476199,12.2856956 C4.1726199,12.2856956 4.27678657,12.2544456 4.3913699,12.1919456 C5.8288699,11.4211122 7.56845323,10.6711122 9.22470323,10.6711122 C11.4955366,10.6711122 12.4122032,12.1294456 14.3288699,12.1294456 C15.6934532,12.1294456 16.9955366,11.5565289 18.1726199,10.9211122 C18.4747032,10.7648622 18.7142866,10.6190289 18.7142866,10.2336122 L18.7142866,2.28569555 C18.7142866,1.92111222 18.4122032,1.61902889 18.0476199,1.61902889 C17.5892866,1.61902889 15.8288699,3.03569555 14.1934532,3.03569555 C13.8705366,3.03569555 13.5684532,2.98361222 13.2767866,2.83777889 C11.8288699,2.16069555 10.5476199,1.61902889 8.91220323,1.61902889 C7.43303657,1.61902889 5.83928657,2.20236222 4.52678657,2.86902889 C4.25595323,3.00444555 3.9538699,3.15027889 3.7038699,3.31694555 C3.50595323,3.46277889 3.38095323,3.63986222 3.38095323,3.88986222 L3.38095323,11.6190289 C3.38095323,11.9836122 3.68303657,12.2856956 4.0476199,12.2856956 Z" id="path-1"></path>
    </defs>
    <g id="icon/flag---FontAwesome" stroke="none" stroke-width="1" fill="none" fill-rule="evenodd">
        <g id="color/gray-copy-3" transform="translate(0.000000, 2.000000)">
            <mask id="mask-2" fill="white">
                <use xlink:href="#path-1"></use>
            </mask>
            <use id="Mask" fill="#999999" fill-rule="nonzero" xlink:href="#path-1"></use>
            <g id="Group" mask="url(#mask-2)">
                <g transform="translate(0.000000, -1.000000)">
                    <rect id="Rectangle-Copy" fill="#788DB4" x="0" y="0" width="20" height="20"></rect>
                </g>
            </g>
        </g>
    </g>
</svg>