<?xml version="1.0" encoding="UTF-8"?>
<svg width="20px" height="20px" viewBox="0 0 20 20" version="1.1" xmlns="http://www.w3.org/2000/svg" xmlns:xlink="http://www.w3.org/1999/xlink">
    <title>icon/font_download - material</title>
    <defs>
        <path d="M15.68,17.32 C16.1333333,17.32 16.52,17.16 16.84,16.84 C17.16,16.52 17.32,16.1333333 17.32,15.68 L17.32,15.68 L17.32,2.32 C17.32,1.86666667 17.16,1.48 16.84,1.16 C16.52,0.84 16.1333333,0.68 15.68,0.68 L15.68,0.68 L2.32,0.68 C1.86666667,0.68 1.48,0.84 1.16,1.16 C0.84,1.48 0.68,1.86666667 0.68,2.32 L0.68,2.32 L0.68,15.68 C0.68,16.1333333 0.84,16.52 1.16,16.84 C1.48,17.16 1.86666667,17.32 2.32,17.32 L2.32,17.32 L15.68,17.32 Z M5.72,14.42 L3.96,14.42 L8.22,3.56 L9.78,3.56 L14.04,14.42 L12.28,14.42 L11.34,11.92 L6.66,11.92 L5.72,14.42 Z M10.72,10.24 L9,5.64 L7.28,10.24 L10.72,10.24 Z" id="path-1"></path>
    </defs>
    <g id="icon/font_download---material" stroke="none" stroke-width="1" fill="none" fill-rule="evenodd">
        <g id="color/gray-copy-3" transform="translate(1.000000, 1.000000)">
            <mask id="mask-2" fill="white">
                <use xlink:href="#path-1"></use>
            </mask>
            <use id="Mask" fill="#999999" fill-rule="nonzero" xlink:href="#path-1"></use>
            <g id="Group" mask="url(#mask-2)">
                <g transform="translate(-1.000000, -1.000000)">
                    <rect id="Rectangle-Copy" fill="#788DB4" x="0" y="0" width="20" height="20"></rect>
                </g>
            </g>
        </g>
    </g>
</svg>