<?xml version="1.0" encoding="UTF-8"?>
<svg width="20px" height="20px" viewBox="0 0 20 20" version="1.1" xmlns="http://www.w3.org/2000/svg" xmlns:xlink="http://www.w3.org/1999/xlink">
    <title>icon/fullscreen - material</title>
    <defs>
        <path d="M10,0 C15.523,0 20,4.477 20,10 C20,15.523 15.523,20 10,20 C4.477,20 0,15.523 0,10 C0,4.477 4.477,0 10,0 Z M10,1 C5.0375,1 1,5.0375 1,10 C1,14.9625 5.0375,19 10,19 C14.9625,19 19,14.9625 19,10 C19,5.0375 14.9625,1 10,1 Z M7.13706321,9.90949033 L7.13706321,12.9189368 L10.1465097,12.9189368 L10.135196,14.2426407 L5.81335931,14.2426407 L5.81335931,9.92080404 L7.13706321,9.90949033 Z M14.2986407,5.75735931 L14.2986407,10.079196 L12.9749368,10.0905097 L12.9749368,7.08106321 L9.96549033,7.08106321 L9.97680404,5.75735931 L14.2986407,5.75735931 Z" id="path-1"></path>
    </defs>
    <g id="icon/fullscreen---material" stroke="none" stroke-width="1" fill="none" fill-rule="evenodd">
        <mask id="mask-2" fill="white">
            <use xlink:href="#path-1"></use>
        </mask>
        <use id="Mask" fill="#FFFFFF" xlink:href="#path-1"></use>
        <g id="Group" mask="url(#mask-2)" fill="#788DB4">
            <g id="Rectangle-Copy">
                <rect x="0" y="0" width="20" height="20"></rect>
            </g>
        </g>
    </g>
</svg>