<?xml version="1.0" encoding="UTF-8"?>
<svg width="20px" height="20px" viewBox="0 0 20 20" version="1.1" xmlns="http://www.w3.org/2000/svg" xmlns:xlink="http://www.w3.org/1999/xlink">
    <title>icon/fullscreen-exit</title>
    <defs>
        <path d="M10,0 C15.523,0 20,4.477 20,10 C20,15.523 15.523,20 10,20 C4.477,20 0,15.523 0,10 C0,4.477 4.477,0 10,0 Z M10,1 C5.0375,1 1,5.0375 1,10 C1,14.9625 5.0375,19 10,19 C14.9625,19 19,14.9625 19,10 C19,5.0375 14.9625,1 10,1 Z M9.66092715,10 C9.84635762,10 10,10.1536424 10,10.3390728 L10,10.3390728 L10,12.7125828 C10,12.8980132 9.84635762,13.0516556 9.66092715,13.0516556 C9.57086093,13.0516556 9.48609272,13.0145695 9.42251656,12.9509934 L9.42251656,12.9509934 L8.65960265,12.1880795 L6.90066225,13.9470199 C6.86887417,13.9788079 6.82119205,14 6.77880795,14 C6.73642384,14 6.68874172,13.9788079 6.65695364,13.9470199 L6.65695364,13.9470199 L6.05298013,13.3430464 C6.02119205,13.3112583 6,13.2635762 6,13.2211921 C6,13.1788079 6.02119205,13.1311258 6.05298013,13.0993377 L6.05298013,13.0993377 L7.81192053,11.3403974 L7.04900662,10.5774834 C6.98543046,10.5139073 6.94834437,10.4291391 6.94834437,10.3390728 C6.94834437,10.1536424 7.10198675,10 7.28741722,10 L7.28741722,10 Z M13.2211921,6 C13.2635762,6 13.3112583,6.02119205 13.3430464,6.05298013 L13.3430464,6.05298013 L13.9470199,6.65695364 C13.9788079,6.68874172 14,6.73642384 14,6.77880795 C14,6.82119205 13.9788079,6.86887417 13.9470199,6.90066225 L13.9470199,6.90066225 L12.1880795,8.65960265 L12.9509934,9.42251656 C13.0145695,9.48609272 13.0516556,9.57086093 13.0516556,9.66092715 C13.0516556,9.84635762 12.8980132,10 12.7125828,10 L12.7125828,10 L10.3390728,10 C10.1536424,10 10,9.84635762 10,9.66092715 L10,9.66092715 L10,7.28741722 C10,7.10198675 10.1536424,6.94834437 10.3390728,6.94834437 C10.4291391,6.94834437 10.5139073,6.98543046 10.5774834,7.04900662 L10.5774834,7.04900662 L11.3403974,7.81192053 L13.0993377,6.05298013 C13.1311258,6.02119205 13.1788079,6 13.2211921,6 Z" id="path-1"></path>
    </defs>
    <g id="icon/fullscreen-exit" stroke="none" stroke-width="1" fill="none" fill-rule="evenodd">
        <mask id="mask-2" fill="white">
            <use xlink:href="#path-1"></use>
        </mask>
        <use id="Mask" fill="#FFFFFF" xlink:href="#path-1"></use>
        <g id="Group" mask="url(#mask-2)" fill="#788DB4">
            <g id="Rectangle-Copy">
                <rect x="0" y="0" width="20" height="20"></rect>
            </g>
        </g>
    </g>
</svg>