<?xml version="1.0" encoding="UTF-8"?>
<svg width="20px" height="20px" viewBox="0 0 20 20" version="1.1" xmlns="http://www.w3.org/2000/svg" xmlns:xlink="http://www.w3.org/1999/xlink">
    <title>icon/fullscreen</title>
    <defs>
        <path d="M10,0 C15.523,0 20,4.477 20,10 C20,15.523 15.523,20 10,20 C4.477,20 0,15.523 0,10 C0,4.477 4.477,0 10,0 Z M10,1 C5.0375,1 1,5.0375 1,10 C1,14.9625 5.0375,19 10,19 C14.9625,19 19,14.9625 19,10 C19,5.0375 14.9625,1 10,1 Z M9.16666667,10.0677083 C9.20833333,10.0677083 9.25520833,10.0885417 9.28645833,10.1197917 L9.28645833,10.1197917 L9.88020833,10.7135417 C9.91145833,10.7447917 9.93229167,10.7916667 9.93229167,10.8333333 C9.93229167,10.875 9.91145833,10.921875 9.88020833,10.953125 L9.88020833,10.953125 L8.15104167,12.6822917 L8.90104167,13.4322917 C8.96354167,13.4947917 9,13.578125 9,13.6666667 C9,13.8489583 8.84895833,14 8.66666667,14 L8.66666667,14 L6.33333333,14 C6.15104167,14 6,13.8489583 6,13.6666667 L6,13.6666667 L6,11.3333333 C6,11.1510417 6.15104167,11 6.33333333,11 C6.421875,11 6.50520833,11.0364583 6.56770833,11.0989583 L6.56770833,11.0989583 L7.31770833,11.8489583 L9.046875,10.1197917 C9.078125,10.0885417 9.125,10.0677083 9.16666667,10.0677083 Z M13.6666667,6 C13.8489583,6 14,6.15104167 14,6.33333333 L14,6.33333333 L14,8.66666667 C14,8.84895833 13.8489583,9 13.6666667,9 C13.578125,9 13.4947917,8.96354167 13.4322917,8.90104167 L13.4322917,8.90104167 L12.6822917,8.15104167 L10.953125,9.88020833 C10.921875,9.91145833 10.875,9.93229167 10.8333333,9.93229167 C10.7916667,9.93229167 10.7447917,9.91145833 10.7135417,9.88020833 L10.7135417,9.88020833 L10.1197917,9.28645833 C10.0885417,9.25520833 10.0677083,9.20833333 10.0677083,9.16666667 C10.0677083,9.125 10.0885417,9.078125 10.1197917,9.046875 L10.1197917,9.046875 L11.8489583,7.31770833 L11.0989583,6.56770833 C11.0364583,6.50520833 11,6.421875 11,6.33333333 C11,6.15104167 11.1510417,6 11.3333333,6 L11.3333333,6 Z" id="path-1"></path>
    </defs>
    <g id="icon/fullscreen" stroke="none" stroke-width="1" fill="none" fill-rule="evenodd">
        <g id="color/white">
            <mask id="mask-2" fill="white">
                <use xlink:href="#path-1"></use>
            </mask>
            <use id="Mask" fill="#788DB4" fill-rule="nonzero" xlink:href="#path-1"></use>
            <g id="Group" mask="url(#mask-2)" fill="#788DB4">
                <g id="Rectangle-Copy">
                    <rect x="0" y="0" width="20" height="20"></rect>
                </g>
            </g>
        </g>
    </g>
</svg>