<?xml version="1.0" encoding="UTF-8"?>
<svg width="20px" height="20px" viewBox="0 0 20 20" version="1.1" xmlns="http://www.w3.org/2000/svg" xmlns:xlink="http://www.w3.org/1999/xlink">
    <title>icon/game-controller</title>
    <defs>
        <path d="M15.1112867,4.28112077 L15.1112867,4.29227266 C17.339343,4.40750894 18.6668835,6.04683797 19.1115654,8.47469913 C19.230519,9.12615585 20,14.4339947 20,14.4339947 L20,14.4339947 L19.9893128,14.437712 C19.9948887,14.5097347 20,14.5812927 20,14.6547094 C20,16.2392082 18.7068445,17.5239998 17.1111937,17.5239998 C16.0875424,17.5239998 15.1902793,16.99382 14.6772919,16.1964593 L14.6772919,16.1964593 L14.6666047,16.1997119 L13.0440035,13.5358022 C12.8827657,13.2714093 12.5956043,13.1097068 12.2856745,13.1097068 L12.2856745,13.1097068 L7.71432554,13.1097068 C7.40439571,13.1097068 7.11723433,13.2714093 6.95599647,13.5358022 L6.95599647,13.5358022 L5.33339529,16.1997119 L5.32270805,16.1964593 C4.80972074,16.99382 3.9124576,17.5239998 2.88880628,17.5239998 C1.29315552,17.5239998 0,16.2392082 0,14.6547094 C0,14.5812927 0.00511128665,14.5097347 0.0106872357,14.437712 L0.0106872357,14.437712 L0,14.4339947 C0,14.4339947 0.787138144,9.12940848 0.888434552,8.47469913 C1.33311649,5.60540867 2.66065703,4.40750894 4.88871335,4.29227266 L4.88871335,4.29227266 L4.88871335,4.28112077 L15.1112867,4.28112077 Z M14.1819618,9.85706984 C13.6689745,9.85706984 13.252637,10.2734074 13.252637,10.7863947 C13.252637,11.299382 13.6689745,11.7157195 14.1819618,11.7157195 C14.6949491,11.7157195 15.1112867,11.299382 15.1112867,10.7863947 C15.1112867,10.2734074 14.6949491,9.85706984 14.1819618,9.85706984 Z M5.8180382,6.60443288 C5.30505088,6.60443288 4.88871335,7.02077041 4.88871335,7.53375773 L4.88871335,7.53375773 L4.88871335,7.99842015 L4.42405093,7.99842015 C3.91106361,7.99842015 3.49472608,8.41475768 3.49472608,8.92774499 C3.49472608,9.44073231 3.91106361,9.85706984 4.42405093,9.85706984 L4.42405093,9.85706984 L4.88871335,9.85706984 L4.88871335,10.3217323 C4.88871335,10.8347196 5.30505088,11.2510571 5.8180382,11.2510571 C6.33102551,11.2510571 6.74736304,10.8347196 6.74736304,10.3217323 L6.74736304,10.3217323 L6.74736304,9.85706984 L7.21202546,9.85706984 C7.72501278,9.85706984 8.14135031,9.44073231 8.14135031,8.92774499 C8.14135031,8.41475768 7.72501278,7.99842015 7.21202546,7.99842015 L7.21202546,7.99842015 L6.74736304,7.99842015 L6.74736304,7.53375773 C6.74736304,7.02077041 6.33102551,6.60443288 5.8180382,6.60443288 Z M16.0406115,7.99842015 C15.5276242,7.99842015 15.1112867,8.41475768 15.1112867,8.92774499 C15.1112867,9.44073231 15.5276242,9.85706984 16.0406115,9.85706984 C16.5535988,9.85706984 16.9699363,9.44073231 16.9699363,8.92774499 C16.9699363,8.41475768 16.5535988,7.99842015 16.0406115,7.99842015 Z M12.3233121,7.99842015 C11.8103248,7.99842015 11.3939873,8.41475768 11.3939873,8.92774499 C11.3939873,9.44073231 11.8103248,9.85706984 12.3233121,9.85706984 C12.8362994,9.85706984 13.252637,9.44073231 13.252637,8.92774499 C13.252637,8.41475768 12.8362994,7.99842015 12.3233121,7.99842015 Z M14.1819618,6.13977046 C13.6689745,6.13977046 13.252637,6.55610799 13.252637,7.0690953 C13.252637,7.58208262 13.6689745,7.99842015 14.1819618,7.99842015 C14.6949491,7.99842015 15.1112867,7.58208262 15.1112867,7.0690953 C15.1112867,6.55610799 14.6949491,6.13977046 14.1819618,6.13977046 Z M14.8789554,2 C15.1995725,2 15.4597835,2.26021096 15.4597835,2.58082803 C15.4597835,2.9014451 15.1995725,3.16165606 14.8789554,3.16165606 L14.8789554,3.16165606 L12.5556433,3.16165606 C12.2350263,3.16165606 11.9748153,2.9014451 11.9748153,2.58082803 C11.9748153,2.26021096 12.2350263,2 12.5556433,2 L12.5556433,2 Z M7.44435667,2 C7.76497375,2 8.0251847,2.26021096 8.0251847,2.58082803 C8.0251847,2.9014451 7.76497375,3.16165606 7.44435667,3.16165606 L7.44435667,3.16165606 L5.12104456,3.16165606 C4.80042749,3.16165606 4.54021653,2.9014451 4.54021653,2.58082803 C4.54021653,2.26021096 4.80042749,2 5.12104456,2 L5.12104456,2 Z" id="path-1"></path>
    </defs>
    <g id="icon/game-controller" stroke="none" stroke-width="1" fill="none" fill-rule="evenodd">
        <mask id="mask-2" fill="white">
            <use xlink:href="#path-1"></use>
        </mask>
        <use id="Mask" fill="#173042" xlink:href="#path-1"></use>
        <g id="Group" mask="url(#mask-2)" fill="#FFFFFF">
            <g id="Rectangle">
                <rect x="0" y="0" width="20" height="20"></rect>
            </g>
        </g>
    </g>
</svg>