<?xml version="1.0" encoding="UTF-8"?>
<svg width="20px" height="20px" viewBox="0 0 20 20" version="1.1" xmlns="http://www.w3.org/2000/svg" xmlns:xlink="http://www.w3.org/1999/xlink">
    <title>icon/group - material</title>
    <defs>
        <path d="M6.68,5.18 C7.12,5.18 7.53,5.06666667 7.91,4.84 C8.29,4.61333333 8.59,4.31 8.81,3.93 C9.03,3.55 9.14,3.13333333 9.14,2.68 C9.14,2.22666667 9.03,1.81 8.81,1.43 C8.59,1.05 8.29,0.746666667 7.91,0.52 C7.53,0.293333333 7.12,0.18 6.68,0.18 C6.24,0.18 5.82666667,0.293333333 5.44,0.52 C5.05333333,0.746666667 4.74666667,1.05333333 4.52,1.44 C4.29333333,1.82666667 4.18,2.24 4.18,2.68 C4.18,3.12 4.29333333,3.53333333 4.52,3.92 C4.74666667,4.30666667 5.05333333,4.61333333 5.44,4.84 C5.82666667,5.06666667 6.24,5.18 6.68,5.18 Z M13.32,5.18 C13.76,5.18 14.1733333,5.06666667 14.56,4.84 C14.9466667,4.61333333 15.2533333,4.30666667 15.48,3.92 C15.7066667,3.53333333 15.82,3.12 15.82,2.68 C15.82,2.24 15.7066667,1.82666667 15.48,1.44 C15.2533333,1.05333333 14.9466667,0.746666667 14.56,0.52 C14.1733333,0.293333333 13.76,0.18 13.32,0.18 C12.88,0.18 12.4666667,0.293333333 12.08,0.52 C11.6933333,0.746666667 11.3866667,1.05333333 11.16,1.44 C10.9333333,1.82666667 10.82,2.24 10.82,2.68 C10.82,3.12 10.9333333,3.53333333 11.16,3.92 C11.3866667,4.30666667 11.6933333,4.61333333 12.08,4.84 C12.4666667,5.06666667 12.88,5.18 13.32,5.18 Z M19.18,11.82 L19.18,9.74 C19.18,9.14 18.82,8.6 18.1,8.12 C17.4866667,7.72 16.6933333,7.39333333 15.72,7.14 C14.84,6.92666667 14.04,6.82 13.32,6.82 C12.9866667,6.82 12.7266667,6.83333333 12.54,6.86 C13.6333333,7.64666667 14.18,8.60666667 14.18,9.74 L14.18,9.74 L14.18,11.82 L19.18,11.82 Z M12.5,11.82 L12.5,9.74 C12.5,9.14 12.14,8.6 11.42,8.12 C10.82,7.72 10.0333333,7.39333333 9.06,7.14 C8.19333333,6.92666667 7.4,6.82 6.68,6.82 C5.96,6.82 5.16,6.92666667 4.28,7.14 C3.30666667,7.39333333 2.51333333,7.72 1.9,8.12 C1.18,8.6 0.82,9.14 0.82,9.74 L0.82,9.74 L0.82,11.82 L12.5,11.82 Z" id="path-1"></path>
    </defs>
    <g id="icon/group---material" stroke="none" stroke-width="1" fill="none" fill-rule="evenodd">
        <g id="color/gray-copy-3" transform="translate(0.000000, 4.000000)">
            <mask id="mask-2" fill="white">
                <use xlink:href="#path-1"></use>
            </mask>
            <use id="Mask" fill="#999999" fill-rule="nonzero" xlink:href="#path-1"></use>
            <g id="Group" mask="url(#mask-2)">
                <g transform="translate(0.000000, -4.000000)">
                    <rect id="Rectangle-Copy" fill="#788DB4" x="0" y="0" width="20" height="20"></rect>
                </g>
            </g>
        </g>
    </g>
</svg>