<?xml version="1.0" encoding="UTF-8"?>
<svg width="20px" height="20px" viewBox="0 0 20 20" version="1.1" xmlns="http://www.w3.org/2000/svg" xmlns:xlink="http://www.w3.org/1999/xlink">
    <title>icon/lock</title>
    <defs>
        <path d="M9.31608615,0.231893305 C9.67190127,-0.0772977682 10.2009615,-0.0772977682 10.5567767,0.231893305 C11.8244601,1.3346748 14.8614035,3.69581488 18.0156432,4.08696612 C18.5172198,4.14929512 18.8926661,4.57332859 18.8720534,5.07834067 C18.4833561,14.6691533 12.1773305,18.8780781 10.3997272,19.8777959 C10.1101673,20.0407347 9.76269547,20.0407347 9.47313558,19.8777959 C7.6955323,18.8780781 1.38950676,14.6691533 1.00080941,5.07834067 C0.980196669,4.57332859 1.35564297,4.14929512 1.8572196,4.08696612 C5.01145932,3.69581488 8.04840275,1.3346748 9.31608615,0.231893305 Z M9.93643141,5.24324258 C7.30928885,5.24324258 5.1793059,7.37273475 5.1793059,9.99987731 C5.1793059,12.6275106 7.30928885,14.7570028 9.93643141,14.7570028 C12.563574,14.7570028 14.6935569,12.6275106 14.6935569,9.99987731 C14.6935569,7.37273475 12.563574,5.24324258 9.93643141,5.24324258 Z M9.515588,7.40856165 C9.74821748,6.93741335 10.1246453,6.93741335 10.3572748,7.40856165 L10.3572748,7.40856165 L11.0306243,8.77194704 L12.5348634,8.99034391 C13.0545988,9.06592395 13.1709136,9.42468375 12.7944857,9.79129603 L12.7944857,9.79129603 L11.7064276,10.8518705 L11.9626145,12.3502202 C12.0514456,12.8679926 11.7466715,13.0898249 11.2819034,12.844926 L11.2819034,12.844926 L9.9366768,12.1377127 L8.59145024,12.844926 C8.12668207,13.0898249 7.82141724,12.8679926 7.91024832,12.3502202 L7.91024832,12.3502202 L8.16692599,10.8518705 L7.0783771,9.79129603 C6.70194924,9.42468375 6.81875476,9.06592395 7.33849023,8.99034391 L7.33849023,8.99034391 L8.84272934,8.77194704 Z" id="path-1"></path>
    </defs>
    <g id="icon/lock" stroke="none" stroke-width="1" fill="none" fill-rule="evenodd">
        <mask id="mask-2" fill="white">
            <use xlink:href="#path-1"></use>
        </mask>
        <use id="Mask" fill="#173042" xlink:href="#path-1"></use>
        <g id="Group" mask="url(#mask-2)">
            <g transform="translate(0.000000, 0.000000)">
                <rect id="Rectangle" fill="#FFFFFF" x="0" y="0" width="20" height="20"></rect>
            </g>
        </g>
    </g>
</svg>