<?xml version="1.0" encoding="UTF-8"?>
<svg width="20px" height="20px" viewBox="0 0 20 20" version="1.1" xmlns="http://www.w3.org/2000/svg" xmlns:xlink="http://www.w3.org/1999/xlink">
    <title>icon/lock - material</title>
    <defs>
        <path d="M12,18.32 C12.4533333,18.32 12.8466667,18.16 13.18,17.84 C13.5133333,17.52 13.68,17.1333333 13.68,16.68 L13.68,16.68 L13.68,8.32 C13.68,7.86666667 13.5133333,7.48 13.18,7.16 C12.8466667,6.84 12.4533333,6.68 12,6.68 L12,6.68 L11.18,6.68 L11.18,5 C11.18,4.24 10.9933333,3.54 10.62,2.9 C10.2466667,2.26 9.74,1.75333333 9.1,1.38 C8.46,1.00666667 7.76,0.82 7,0.82 C6.24,0.82 5.54,1.00666667 4.9,1.38 C4.26,1.75333333 3.75333333,2.26 3.38,2.9 C3.00666667,3.54 2.82,4.24 2.82,5 L2.82,5 L2.82,6.68 L2,6.68 C1.54666667,6.68 1.15333333,6.84 0.82,7.16 C0.486666667,7.48 0.32,7.86666667 0.32,8.32 L0.32,8.32 L0.32,16.68 C0.32,17.1333333 0.486666667,17.52 0.82,17.84 C1.15333333,18.16 1.54666667,18.32 2,18.32 L2,18.32 L12,18.32 Z M9.58,6.68 L4.42,6.68 L4.42,5 C4.42,4.54666667 4.53666667,4.12 4.77,3.72 C5.00333333,3.32 5.32,3.00333333 5.72,2.77 C6.12,2.53666667 6.54666667,2.42 7,2.42 C7.45333333,2.42 7.88,2.53666667 8.28,2.77 C8.68,3.00333333 8.99666667,3.32 9.23,3.72 C9.46333333,4.12 9.58,4.54666667 9.58,5 L9.58,5 L9.58,6.68 Z M7,14.18 C6.54666667,14.18 6.15333333,14.0133333 5.82,13.68 C5.48666667,13.3466667 5.32,12.9533333 5.32,12.5 C5.32,12.0466667 5.48666667,11.6533333 5.82,11.32 C6.15333333,10.9866667 6.54666667,10.82 7,10.82 C7.45333333,10.82 7.84666667,10.9866667 8.18,11.32 C8.51333333,11.6533333 8.68,12.0466667 8.68,12.5 C8.68,12.9533333 8.51333333,13.3466667 8.18,13.68 C7.84666667,14.0133333 7.45333333,14.18 7,14.18 Z" id="path-1"></path>
    </defs>
    <g id="icon/lock---material" stroke="none" stroke-width="1" fill="none" fill-rule="evenodd">
        <g id="color/text-i" transform="translate(3.000000, 0.000000)">
            <mask id="mask-2" fill="white">
                <use xlink:href="#path-1"></use>
            </mask>
            <use id="Mask" fill="#999999" fill-rule="nonzero" xlink:href="#path-1"></use>
            <g id="Group" mask="url(#mask-2)">
                <g transform="translate(-3.000000, 0.000000)">
                    <rect id="Rectangle-Copy" fill="#788DB4" x="0" y="0" width="20" height="20"></rect>
                </g>
            </g>
        </g>
    </g>
</svg>