<?xml version="1.0" encoding="UTF-8"?>
<svg width="20px" height="20px" viewBox="0 0 20 20" version="1.1" xmlns="http://www.w3.org/2000/svg" xmlns:xlink="http://www.w3.org/1999/xlink">
    <title>icon/map - FontAwesome</title>
    <defs>
        <path d="M0.285714286,16 C0.330357143,16 0.375,15.9910714 0.419642857,15.9642857 L4.70535714,13.6785714 C4.79464286,13.6339286 4.85714286,13.5357143 4.85714286,13.4285714 L4.85714286,0.285714286 C4.85714286,0.133928571 4.72321429,0 4.57142857,0 C4.52678571,0 4.48214286,0.00892857143 4.4375,0.0357142857 L0.151785714,2.32142857 C0.0625,2.36607143 0,2.46428571 0,2.57142857 L0,15.7142857 C0,15.8660714 0.133928571,16 0.285714286,16 Z M11.4285714,16 C11.4732143,16 11.5178571,15.9910714 11.5625,15.9642857 L15.8482143,13.6785714 C15.9375,13.6339286 16,13.5357143 16,13.4285714 L16,0.285714286 C16,0.133928571 15.8660714,0 15.7142857,0 C15.6696429,0 15.625,0.00892857143 15.5803571,0.0357142857 L11.2946429,2.32142857 C11.2053571,2.36607143 11.1428571,2.46428571 11.1428571,2.57142857 L11.1428571,15.7142857 C11.1428571,15.8660714 11.2767857,16 11.4285714,16 Z M10.2857143,16 C10.4375,16 10.5714286,15.8660714 10.5714286,15.7142857 L10.5714286,2.57142857 C10.5714286,2.46428571 10.5089286,2.36607143 10.4107143,2.3125 L5.83928571,0.0267857143 C5.80357143,0.00892857143 5.75892857,0 5.71428571,0 C5.5625,0 5.42857143,0.133928571 5.42857143,0.285714286 L5.42857143,13.4285714 C5.42857143,13.5357143 5.49107143,13.6339286 5.58928571,13.6875 L10.1607143,15.9732143 C10.1964286,15.9910714 10.2410714,16 10.2857143,16 Z" id="path-1"></path>
    </defs>
    <g id="icon/map---FontAwesome" stroke="none" stroke-width="1" fill="none" fill-rule="evenodd">
        <g id="color/gray-copy-3" transform="translate(2.000000, 2.000000)">
            <mask id="mask-2" fill="white">
                <use xlink:href="#path-1"></use>
            </mask>
            <use id="Mask" fill="#999999" fill-rule="nonzero" xlink:href="#path-1"></use>
            <g id="Group" mask="url(#mask-2)">
                <g transform="translate(-2.000000, -2.000000)">
                    <rect id="Rectangle-Copy" fill="#788DB4" x="0" y="0" width="20" height="20"></rect>
                </g>
            </g>
        </g>
    </g>
</svg>