<?xml version="1.0" encoding="UTF-8"?>
<svg width="20px" height="20px" viewBox="0 0 20 20" version="1.1" xmlns="http://www.w3.org/2000/svg" xmlns:xlink="http://www.w3.org/1999/xlink">
    <title>icon/person - material</title>
    <defs>
        <path d="M7,7 C7.6,7 8.15333333,6.85 8.66,6.55 C9.16666667,6.25 9.57,5.84666667 9.87,5.34 C10.17,4.83333333 10.32,4.28 10.32,3.68 C10.32,3.08 10.17,2.52 9.87,2 C9.57,1.48 9.16666667,1.07 8.66,0.77 C8.15333333,0.47 7.6,0.32 7,0.32 C6.4,0.32 5.84666667,0.47 5.34,0.77 C4.83333333,1.07 4.43,1.48 4.13,2 C3.83,2.52 3.68,3.08 3.68,3.68 C3.68,4.28 3.83,4.83333333 4.13,5.34 C4.43,5.84666667 4.83333333,6.25 5.34,6.55 C5.84666667,6.85 6.4,7 7,7 Z M13.68,13.68 L13.68,12 C13.68,11.32 13.2666667,10.7066667 12.44,10.16 C11.7466667,9.69333333 10.84,9.32 9.72,9.04 C8.73333333,8.8 7.82666667,8.68 7,8.68 C6.17333333,8.68 5.26666667,8.8 4.28,9.04 C3.16,9.32 2.25333333,9.69333333 1.56,10.16 C0.733333333,10.7066667 0.32,11.32 0.32,12 L0.32,12 L0.32,13.68 L13.68,13.68 Z" id="path-1"></path>
    </defs>
    <g id="icon/person---material" stroke="none" stroke-width="1" fill="none" fill-rule="evenodd">
        <g id="color/text-i" transform="translate(3.000000, 3.000000)">
            <mask id="mask-2" fill="white">
                <use xlink:href="#path-1"></use>
            </mask>
            <use id="Mask" fill="#999999" fill-rule="nonzero" xlink:href="#path-1"></use>
            <g id="Group" mask="url(#mask-2)">
                <g transform="translate(-3.000000, -3.000000)">
                    <rect id="Rectangle-Copy" fill="#788DB4" x="0" y="0" width="20" height="20"></rect>
                </g>
            </g>
        </g>
    </g>
</svg>