<?xml version="1.0" encoding="UTF-8"?>
<svg width="20px" height="20px" viewBox="0 0 20 20" version="1.1" xmlns="http://www.w3.org/2000/svg" xmlns:xlink="http://www.w3.org/1999/xlink">
    <title>icon/phone_iphone - material</title>
    <defs>
        <path d="M8.94,19.18 C9.3,19.18 9.64,19.0833333 9.96,18.89 C10.28,18.6966667 10.5333333,18.44 10.72,18.12 C10.9066667,17.8 11,17.4533333 11,17.08 L11,17.08 L11,2.92 C11,2.54666667 10.9066667,2.2 10.72,1.88 C10.5333333,1.56 10.28,1.30333333 9.96,1.11 C9.64,0.916666667 9.3,0.82 8.94,0.82 L8.94,0.82 L2.26,0.82 C1.88666667,0.82 1.54,0.916666667 1.22,1.11 C0.9,1.30333333 0.646666667,1.56 0.46,1.88 C0.273333333,2.2 0.18,2.54666667 0.18,2.92 L0.18,2.92 L0.18,17.08 C0.18,17.4533333 0.273333333,17.8 0.46,18.12 C0.646666667,18.44 0.9,18.6966667 1.22,18.89 C1.54,19.0833333 1.88666667,19.18 2.26,19.18 L2.26,19.18 L8.94,19.18 Z M9.32,15 L1.82,15 L1.82,3.32 L9.32,3.32 L9.32,15 Z M5.58,18.32 C5.22,18.32 4.92,18.2033333 4.68,17.97 C4.44,17.7366667 4.32,17.44 4.32,17.08 C4.32,16.72 4.44333333,16.42 4.69,16.18 C4.93666667,15.94 5.23333333,15.82 5.58,15.82 C5.92666667,15.82 6.22,15.9433333 6.46,16.19 C6.7,16.4366667 6.82,16.7333333 6.82,17.08 C6.82,17.4266667 6.7,17.72 6.46,17.96 C6.22,18.2 5.92666667,18.32 5.58,18.32 Z" id="path-1"></path>
    </defs>
    <g id="icon/phone_iphone---material" stroke="none" stroke-width="1" fill="none" fill-rule="evenodd">
        <g id="color/text-i" transform="translate(4.000000, 0.000000)">
            <mask id="mask-2" fill="white">
                <use xlink:href="#path-1"></use>
            </mask>
            <use id="Mask" fill="#999999" fill-rule="nonzero" xlink:href="#path-1"></use>
            <g id="Group" mask="url(#mask-2)">
                <g transform="translate(-4.000000, 0.000000)">
                    <rect id="Rectangle-Copy" fill="#788DB4" x="0" y="0" width="20" height="20"></rect>
                </g>
            </g>
        </g>
    </g>
</svg>