<?xml version="1.0" encoding="UTF-8"?>
<svg width="20px" height="20px" viewBox="0 0 20 20" version="1.1" xmlns="http://www.w3.org/2000/svg" xmlns:xlink="http://www.w3.org/1999/xlink">
    <title>icon/Present</title>
    <defs>
        <path d="M10.0855913,5.35915326 C12.6887338,6.33520971 16.5929596,8.71629942 16.5929596,16.0957742 C16.5929596,16.4056721 16.5900315,16.6726236 16.5846632,16.9205419 L16.5846632,16.9205419 L16.6320019,16.9278623 C17.1707851,17.0108271 17.5690161,17.4744539 17.5690161,18.0195815 C17.5690161,18.5891104 17.1361351,19.0654259 16.5690463,19.1195971 L16.5690463,19.1195971 L14.4270904,19.2342837 C13.0054642,19.705231 11.0055245,20 8.78450805,20 C6.56349159,20 4.56355193,19.705231 3.14192571,19.2342837 L3.14192571,19.2342837 L0.999969833,19.1195971 C0.432881035,19.0654259 1.77635684e-15,18.5891104 1.77635684e-15,18.0195815 C1.77635684e-15,17.4744539 0.397743003,17.0108271 0.936526163,16.9278623 L0.936526163,16.9278623 L0.98679307,16.9200539 C0.979472647,16.6740876 0.976056449,16.4051841 0.976056449,16.0957742 C0.976056449,8.22827119 4.88028225,6.33520971 7.29992619,5.35915326 L7.29992619,5.35915326 Z M10.5331132,9.95345097 L7.03541489,9.95345097 C6.89291065,9.95345097 6.75772683,10.0159186 6.66500147,10.1237728 L6.66500147,10.1237728 L5.42443372,11.5732166 C5.26728863,11.7567153 5.26826469,12.0270829 5.4258978,12.2096054 L5.4258978,12.2096054 L8.41507068,15.6692375 C8.60979394,15.8947066 8.95922215,15.8947066 9.15394541,15.6692375 L9.15394541,15.6692375 L12.1431183,12.2096054 C12.3007514,12.0270829 12.3012394,11.7567153 12.1445824,11.5732166 L12.1445824,11.5732166 L10.9040146,10.1237728 C10.8112893,10.0159186 10.6756174,9.95345097 10.5331132,9.95345097 L10.5331132,9.95345097 Z M2.07607207,3.72523476 C2.13561151,3.57736221 2.35034393,3.57736221 2.40939535,3.72523476 C2.61924748,4.24742496 2.86716582,4.49583133 3.38984405,4.70519544 C3.5377166,4.76424685 3.5377166,4.9794673 3.38984405,5.03851871 C2.86716582,5.24837085 2.61924748,5.49628919 2.40939535,6.01847939 C2.35034393,6.16683997 2.13561151,6.16683997 2.07607207,6.01847939 C1.86670796,5.49628919 1.61830159,5.24837085 1.09611139,5.03851871 C0.948238841,4.9794673 0.948238841,4.76424685 1.09611139,4.70519544 C1.61830159,4.49583133 1.86670796,4.24742496 2.07607207,3.72523476 Z M14.6813531,1.37489083 C14.7770066,1.135757 15.1239947,1.135757 15.2196482,1.37489083 C15.5578518,2.2182036 15.9585229,2.61887478 16.8018357,2.95659031 C17.0404815,3.05273187 17.0404815,3.39971994 16.8018357,3.49488544 C15.9585229,3.83357703 15.5578518,4.2342482 15.2196482,5.07756097 C15.1239947,5.31620677 14.7770066,5.31620677 14.6813531,5.07756097 C14.3431495,4.2342482 13.9424784,3.83357703 13.0991656,3.49488544 C12.8605198,3.39971994 12.8605198,3.05273187 13.0991656,2.95659031 C13.9424784,2.61887478 14.3431495,2.2182036 14.6813531,1.37489083 Z M9.10123836,0.680426667 C9.70932153,0.0996730795 10.4345315,-0.163862162 10.8566759,0.106505475 C12.2007056,0.966899235 10.3647434,3.96095239 10.1880772,4.13371439 L10.1880772,4.13371439 L6.96855502,4.13371439 C6.7918888,3.96095239 4.88028225,0.966899235 6.30044438,0.106505475 C6.72893316,-0.153613569 7.44779874,0.0996730795 8.05588191,0.680426667 C8.35162701,0.962995009 8.80549326,0.962506981 9.10123836,0.680426667 Z" id="path-1"></path>
    </defs>
    <g id="icon/Present" stroke="none" stroke-width="1" fill="none" fill-rule="evenodd">
        <g id="color/text-i" transform="translate(1.000000, 0.000000)">
            <mask id="mask-2" fill="white">
                <use xlink:href="#path-1"></use>
            </mask>
            <use id="Mask" fill="#173042" xlink:href="#path-1"></use>
            <g id="Group" mask="url(#mask-2)">
                <g transform="translate(-1.000000, 0.000000)">
                    <rect id="Rectangle" fill="#FFFFFF" x="0" y="0" width="20" height="20"></rect>
                </g>
            </g>
        </g>
    </g>
</svg>