<?xml version="1.0" encoding="UTF-8"?>
<svg width="20px" height="20px" viewBox="0 0 20 20" version="1.1" xmlns="http://www.w3.org/2000/svg" xmlns:xlink="http://www.w3.org/1999/xlink">
    <title>icon/refresh - material</title>
    <defs>
        <path d="M7,13.68 C8.02666667,13.68 8.99333333,13.46 9.9,13.02 C10.7666667,12.5933333 11.5133333,12.0033333 12.14,11.25 C12.7666667,10.4966667 13.2,9.64 13.44,8.68 L13.44,8.68 L11.72,8.68 C11.3866667,9.66666667 10.7866667,10.4666667 9.92,11.08 C9.05333333,11.6933333 8.08,12 7,12 C6.09333333,12 5.25666667,11.7766667 4.49,11.33 C3.72333333,10.8833333 3.11666667,10.2766667 2.67,9.51 C2.22333333,8.74333333 2,7.90666667 2,7 C2,6.09333333 2.22333333,5.25666667 2.67,4.49 C3.11666667,3.72333333 3.72333333,3.11666667 4.49,2.67 C5.25666667,2.22333333 6.09333333,2 7,2 C7.66666667,2 8.30333333,2.13 8.91,2.39 C9.51666667,2.65 10.0533333,3.01333333 10.52,3.48 L10.52,3.48 L7.82,6.18 L13.68,6.18 L13.68,0.32 L11.72,2.28 C11.1066667,1.66666667 10.3933333,1.18666667 9.58,0.84 C8.76666667,0.493333333 7.90666667,0.32 7,0.32 C5.8,0.32 4.68,0.626666667 3.64,1.24 C2.64,1.82666667 1.84666667,2.62666667 1.26,3.64 C0.66,4.66666667 0.36,5.78666667 0.36,7 C0.36,8.21333333 0.66,9.33333333 1.26,10.36 C1.84666667,11.3733333 2.64,12.1733333 3.64,12.76 C4.68,13.3733333 5.8,13.68 7,13.68 Z" id="path-1"></path>
    </defs>
    <g id="icon/refresh---material" stroke="none" stroke-width="1" fill="none" fill-rule="evenodd">
        <g id="color/gray-copy-3" transform="translate(3.000000, 3.000000)">
            <mask id="mask-2" fill="white">
                <use xlink:href="#path-1"></use>
            </mask>
            <use id="Mask" fill="#999999" fill-rule="nonzero" xlink:href="#path-1"></use>
            <g id="Group" mask="url(#mask-2)">
                <g transform="translate(-3.000000, -3.000000)">
                    <rect id="Rectangle-Copy" fill="#788DB4" x="0" y="0" width="20" height="20"></rect>
                </g>
            </g>
        </g>
    </g>
</svg>