<?xml version="1.0" encoding="UTF-8"?>
<svg width="20px" height="20px" viewBox="0 0 20 20" version="1.1" xmlns="http://www.w3.org/2000/svg" xmlns:xlink="http://www.w3.org/1999/xlink">
    <title>icon/school - material copy</title>
    <defs>
        <path d="M6,17.09375 L7.30859375,15.1601562 C7.94661458,14.1966146 8.52604167,13.2591146 9.046875,12.3476562 C9.76302083,11.1106771 10.3424479,9.99088542 10.7851562,8.98828125 C11.0585938,8.37630208 11.2604167,7.84895833 11.390625,7.40625 C11.546875,6.87239583 11.625,6.40364583 11.625,6 C11.625,4.984375 11.3710938,4.04036458 10.8632812,3.16796875 C10.3554688,2.32161458 9.67838542,1.64453125 8.83203125,1.13671875 C7.95963542,0.62890625 7.015625,0.375 6,0.375 C4.984375,0.375 4.04036458,0.62890625 3.16796875,1.13671875 C2.32161458,1.64453125 1.64453125,2.32161458 1.13671875,3.16796875 C0.62890625,4.04036458 0.375,4.984375 0.375,6 C0.375,6.40364583 0.453125,6.87239583 0.609375,7.40625 C0.739583333,7.84895833 0.94140625,8.37630208 1.21484375,8.98828125 C1.65755208,9.99088542 2.23697917,11.1106771 2.953125,12.3476562 C3.47395833,13.2591146 4.05338542,14.1966146 4.69140625,15.1601562 C5.01692708,15.6549479 5.28385417,16.0520833 5.4921875,16.3515625 L6,17.09375 Z M6,14.8476562 L5.9609375,14.8085938 C5.32291667,13.8450521 4.68489583,12.8164062 4.046875,11.7226562 C3.29166667,10.4205729 2.72526042,9.33984375 2.34765625,8.48046875 C2.12630208,7.97265625 1.95052083,7.49414062 1.8203125,7.04492188 C1.69010417,6.59570312 1.625,6.24739583 1.625,6 C1.625,5.20572917 1.8203125,4.47330729 2.2109375,3.80273438 C2.6015625,3.13216146 3.13216146,2.6015625 3.80273438,2.2109375 C4.47330729,1.8203125 5.20572917,1.625 6,1.625 C6.79427083,1.625 7.52669271,1.8203125 8.19726562,2.2109375 C8.86783854,2.6015625 9.3984375,3.13216146 9.7890625,3.80273438 C10.1796875,4.47330729 10.375,5.20572917 10.375,6 C10.375,6.24739583 10.3098958,6.59570312 10.1796875,7.04492188 C10.0494792,7.49414062 9.87369792,7.97265625 9.65234375,8.48046875 C9.27473958,9.33984375 8.70833333,10.4205729 7.953125,11.7226562 C7.31510417,12.8164062 6.67708333,13.8450521 6.0390625,14.8085938 L6,14.8476562 Z M6,7.25 C6.3515625,7.25 6.64778646,7.12955729 6.88867188,6.88867188 C7.12955729,6.64778646 7.25,6.3515625 7.25,6 C7.25,5.6484375 7.12955729,5.35221354 6.88867188,5.11132812 C6.64778646,4.87044271 6.3515625,4.75 6,4.75 C5.6484375,4.75 5.35221354,4.87044271 5.11132812,5.11132812 C4.87044271,5.35221354 4.75,5.6484375 4.75,6 C4.75,6.3515625 4.87044271,6.64778646 5.11132812,6.88867188 C5.35221354,7.12955729 5.6484375,7.25 6,7.25 Z" id="path-1"></path>
    </defs>
    <g id="icon/school---material-copy" stroke="none" stroke-width="1" fill="none" fill-rule="evenodd">
        <g id="color/text-i" transform="translate(4.000000, 2.000000)">
            <mask id="mask-2" fill="white">
                <use xlink:href="#path-1"></use>
            </mask>
            <use id="Mask" fill="#999999" fill-rule="nonzero" xlink:href="#path-1"></use>
            <g id="Group" mask="url(#mask-2)">
                <g transform="translate(-4.000000, -2.000000)">
                    <rect id="Rectangle-Copy" fill="#788DB4" x="0" y="0" width="20" height="20"></rect>
                </g>
            </g>
        </g>
    </g>
</svg>