<?xml version="1.0" encoding="UTF-8"?>
<svg width="20px" height="20px" viewBox="0 0 20 20" version="1.1" xmlns="http://www.w3.org/2000/svg" xmlns:xlink="http://www.w3.org/1999/xlink">
    <title>icon/speed-1x-white</title>
    <defs>
        <path d="M10,0 C15.523,0 20,4.477 20,10 C20,15.523 15.523,20 10,20 C4.477,20 0,15.523 0,10 C0,4.477 4.477,0 10,0 Z M10,1 C5.0375,1 1,5.0375 1,10 C1,14.9625 5.0375,19 10,19 C14.9625,19 19,14.9625 19,10 C19,5.0375 14.9625,1 10,1 Z M8.47802734,8 L8.47802734,12.9970703 L7.421875,12.9970703 L7.421875,10.1054688 L7.43212891,9.63037109 L7.44921875,9.11083984 L7.35037109,9.20886719 C7.22714193,9.32990885 7.13818359,9.41230469 7.08349609,9.45605469 L7.08349609,9.45605469 L6.50927734,9.91748047 L6,9.28173828 L7.60986328,8 L8.47802734,8 Z M10.8637695,9.17578125 L11.6054688,10.3925781 L12.3540039,9.17578125 L13.5366211,9.17578125 L12.2924805,11.0454102 L13.5947266,12.9970703 L12.4086914,12.9970703 L11.6054688,11.6879883 L10.7988281,12.9970703 L9.61621094,12.9970703 L10.9116211,11.0454102 L9.68115234,9.17578125 L10.8637695,9.17578125 Z" id="path-1"></path>
    </defs>
    <g id="icon/speed-1x-white" stroke="none" stroke-width="1" fill="none" fill-rule="evenodd">
        <mask id="mask-2" fill="white">
            <use xlink:href="#path-1"></use>
        </mask>
        <use id="Mask" fill="#FFFFFF" fill-rule="nonzero" xlink:href="#path-1"></use>
        <g id="Group" mask="url(#mask-2)" fill="#FFFFFF">
            <g id="Rectangle">
                <rect x="0" y="0" width="20" height="20"></rect>
            </g>
        </g>
    </g>
</svg>