<?xml version="1.0" encoding="UTF-8"?>
<svg width="20px" height="20px" viewBox="0 0 20 20" version="1.1" xmlns="http://www.w3.org/2000/svg" xmlns:xlink="http://www.w3.org/1999/xlink">
    <title>icon/speed-1.2x-white</title>
    <defs>
        <path d="M10,0 C15.523,0 20,4.477 20,10 C20,15.523 15.523,20 10,20 C4.477,20 0,15.523 0,10 C0,4.477 4.477,0 10,0 Z M10,1 C5.0375,1 1,5.0375 1,10 C1,14.9625 5.0375,19 10,19 C14.9625,19 19,14.9625 19,10 C19,5.0375 14.9625,1 10,1 Z M7.58349609,11.4990234 C7.7726237,11.4990234 7.91902669,11.5491536 8.02270508,11.6494141 C8.12638346,11.7496745 8.17822266,11.8932292 8.17822266,12.0800781 C8.17822266,12.2600911 8.1258138,12.4019368 8.02099609,12.5056152 C7.91617839,12.6092936 7.77034505,12.6611328 7.58349609,12.6611328 C7.39208984,12.6611328 7.24397786,12.6104329 7.13916016,12.5090332 C7.03434245,12.4076335 6.98193359,12.2646484 6.98193359,12.0800781 C6.98193359,11.8886719 7.03320312,11.7439779 7.13574219,11.6459961 C7.23828125,11.5480143 7.38753255,11.4990234 7.58349609,11.4990234 Z M5.47802734,7.57177734 L5.47802734,12.5688477 L4.421875,12.5688477 L4.421875,9.67724609 L4.43212891,9.20214844 L4.44921875,8.68261719 L4.35037109,8.78064453 C4.22714193,8.9016862 4.13818359,8.98408203 4.08349609,9.02783203 L4.08349609,9.02783203 L3.50927734,9.48925781 L3,8.85351562 L4.60986328,7.57177734 L5.47802734,7.57177734 Z M10.6289062,7.5 C10.9410807,7.5 11.2167969,7.55696615 11.4560547,7.67089844 C11.6953125,7.78483073 11.8810221,7.94433594 12.0131836,8.14941406 C12.1453451,8.35449219 12.2114258,8.58919271 12.2114258,8.85351562 C12.2114258,9.08365885 12.1709798,9.29956055 12.0900879,9.5012207 C12.009196,9.70288086 11.8838704,9.90966797 11.7141113,10.121582 C11.5443522,10.3334961 11.2452799,10.6354167 10.8168945,11.0273438 L10.8168945,11.0273438 L10.1743164,11.6323242 L10.1743164,11.6801758 L12.3515625,11.6801758 L12.3515625,12.5688477 L8.85839844,12.5688477 L8.85839844,11.8339844 L10.112793,10.565918 L10.2460403,10.4286919 C10.5428696,10.1212705 10.7411296,9.90325928 10.8408203,9.7746582 C10.9547526,9.62768555 11.0367839,9.49153646 11.0869141,9.36621094 C11.1370443,9.24088542 11.1621094,9.1110026 11.1621094,8.9765625 C11.1621094,8.77604167 11.1068522,8.62679036 10.9963379,8.52880859 C10.8858236,8.43082682 10.7382812,8.38183594 10.5537109,8.38183594 C10.360026,8.38183594 10.1720378,8.42626953 9.98974609,8.51513672 C9.80745443,8.60400391 9.6171875,8.73046875 9.41894531,8.89453125 L9.41894531,8.89453125 L8.84472656,8.21435547 L8.98732422,8.09595703 C9.17070964,7.9479362 9.32711589,7.83929036 9.45654297,7.77001953 C9.61832682,7.68343099 9.79492188,7.6167806 9.98632812,7.57006836 C10.1777344,7.52335612 10.3919271,7.5 10.6289062,7.5 Z M13.8554688,8.74755859 L14.597168,9.96435547 L15.3457031,8.74755859 L16.5283203,8.74755859 L15.2841797,10.6171875 L16.5864258,12.5688477 L15.4003906,12.5688477 L14.597168,11.2597656 L13.7905273,12.5688477 L12.6079102,12.5688477 L13.9033203,10.6171875 L12.6728516,8.74755859 L13.8554688,8.74755859 Z" id="path-1"></path>
    </defs>
    <g id="icon/speed-1.2x-white" stroke="none" stroke-width="1" fill="none" fill-rule="evenodd">
        <mask id="mask-2" fill="white">
            <use xlink:href="#path-1"></use>
        </mask>
        <use id="Combined-Shape" fill="#FFFFFF" fill-rule="nonzero" xlink:href="#path-1"></use>
        <g id="Group" mask="url(#mask-2)" fill="#FFFFFF">
            <g id="Rectangle">
                <rect x="0" y="0" width="20" height="20"></rect>
            </g>
        </g>
    </g>
</svg>