<?xml version="1.0" encoding="UTF-8"?>
<svg width="20px" height="20px" viewBox="0 0 20 20" version="1.1" xmlns="http://www.w3.org/2000/svg" xmlns:xlink="http://www.w3.org/1999/xlink">
    <title>icon/speed-2x-white</title>
    <defs>
        <path d="M10,0 C15.523,0 20,4.477 20,10 C20,15.523 15.523,20 10,20 C4.477,20 0,15.523 0,10 C0,4.477 4.477,0 10,0 Z M10,1 C5.0375,1 1,5.0375 1,10 C1,14.9625 5.0375,19 10,19 C14.9625,19 19,14.9625 19,10 C19,5.0375 14.9625,1 10,1 Z M7.78417969,7.5 C8.09635417,7.5 8.37207031,7.55696615 8.61132812,7.67089844 C8.85058594,7.78483073 9.03629557,7.94433594 9.16845703,8.14941406 C9.30061849,8.35449219 9.36669922,8.58919271 9.36669922,8.85351562 C9.36669922,9.08365885 9.32625326,9.29956055 9.24536133,9.5012207 C9.1644694,9.70288086 9.03914388,9.90966797 8.86938477,10.121582 C8.69962565,10.3334961 8.40055339,10.6354167 7.97216797,11.0273438 L7.97216797,11.0273438 L7.32958984,11.6323242 L7.32958984,11.6801758 L9.50683594,11.6801758 L9.50683594,12.5688477 L6.01367188,12.5688477 L6.01367188,11.8339844 L7.26806641,10.565918 L7.40131378,10.4286919 C7.69814301,10.1212705 7.89640299,9.90325928 7.99609375,9.7746582 C8.11002604,9.62768555 8.19205729,9.49153646 8.2421875,9.36621094 C8.29231771,9.24088542 8.31738281,9.1110026 8.31738281,8.9765625 C8.31738281,8.77604167 8.26212565,8.62679036 8.15161133,8.52880859 C8.04109701,8.43082682 7.89355469,8.38183594 7.70898438,8.38183594 C7.51529948,8.38183594 7.3273112,8.42626953 7.14501953,8.51513672 C6.96272786,8.60400391 6.77246094,8.73046875 6.57421875,8.89453125 L6.57421875,8.89453125 L6,8.21435547 L6.14259766,8.09595703 C6.32598307,7.9479362 6.48238932,7.83929036 6.61181641,7.77001953 C6.77360026,7.68343099 6.95019531,7.6167806 7.14160156,7.57006836 C7.33300781,7.52335612 7.54720052,7.5 7.78417969,7.5 Z M11.0107422,8.74755859 L11.7524414,9.96435547 L12.5009766,8.74755859 L13.6835938,8.74755859 L12.4394531,10.6171875 L13.7416992,12.5688477 L12.5556641,12.5688477 L11.7524414,11.2597656 L10.9458008,12.5688477 L9.76318359,12.5688477 L11.0585938,10.6171875 L9.828125,8.74755859 L11.0107422,8.74755859 Z" id="path-1"></path>
    </defs>
    <g id="icon/speed-2x-white" stroke="none" stroke-width="1" fill="none" fill-rule="evenodd">
        <mask id="mask-2" fill="white">
            <use xlink:href="#path-1"></use>
        </mask>
        <use id="Mask" fill="#FFFFFF" fill-rule="nonzero" xlink:href="#path-1"></use>
        <g id="Group" mask="url(#mask-2)" fill="#FFFFFF">
            <g id="Rectangle">
                <rect x="0" y="0" width="20" height="20"></rect>
            </g>
        </g>
    </g>
</svg>