<?xml version="1.0" encoding="UTF-8"?>
<svg width="20px" height="20px" viewBox="0 0 20 20" version="1.1" xmlns="http://www.w3.org/2000/svg" xmlns:xlink="http://www.w3.org/1999/xlink">
    <title>icon/ticket</title>
    <defs>
        <path d="M12.1048805,1.17409866 C12.4146952,0.997140783 12.7513718,0.941292501 13.1149103,1.00655381 C13.5303829,1.08113817 13.8548952,1.28520381 14.0884473,1.61875075 L14.0884473,1.61875075 L15.7988728,4.06149158 L15.6757895,4.15624188 C15.4035406,4.3868493 15.2359102,4.68412058 15.1728983,5.0480557 C15.1008847,5.46398155 15.1816539,5.83871794 15.415206,6.17226488 C15.6487581,6.50581182 15.9732704,6.70987747 16.388743,6.78446183 C16.8042155,6.85904618 17.1846032,6.77544658 17.5299059,6.53366302 L17.5299059,6.53366302 L19.2403314,8.97640385 L19.3207518,9.10341471 C19.4916886,9.40427847 19.545651,9.73667791 19.4826391,10.100613 C19.4106255,10.5165389 19.2019673,10.8453936 18.8566646,11.0871772 L18.8566646,11.0871772 L8.68039068,18.2126809 L8.54925756,18.2959348 C8.23944286,18.4728927 7.90276627,18.528741 7.53922778,18.4634797 C7.12375522,18.3888953 6.79924289,18.1848297 6.56569081,17.8512827 L6.56569081,17.8512827 L4.85526527,15.4085419 L4.98180001,15.3113749 C5.26126914,15.0757118 5.43028805,14.7774683 5.48885673,14.4166443 C5.55579237,14.0042741 5.47248414,13.6313156 5.23893206,13.2977686 C5.00537998,12.9642217 4.68086766,12.760156 4.2653951,12.6855717 C3.84992254,12.6109873 3.4695349,12.6945869 3.12423219,12.9363705 L3.12423219,12.9363705 L1.41380665,10.4936297 L1.33338632,10.3666188 C1.1624495,10.065755 1.10848704,9.73335559 1.17149896,9.36942047 C1.24351257,8.95349461 1.45217074,8.62463991 1.79747344,8.38285635 L1.79747344,8.38285635 L11.9737474,1.25735262 Z M7.83714996,7.26993017 L8.09828043,8.96993283 L6.84605473,10.1483589 C6.41347183,10.5556334 6.53801719,10.9638765 7.12472293,11.0593557 L8.82161661,11.3358414 L9.55598332,12.8908675 C9.80962902,13.4283114 10.2364478,13.4358022 10.5082294,12.9072909 L11.2959283,11.37907 L13.0013951,11.1615575 C13.590988,11.0869279 13.7294748,10.6836059 13.3111947,10.2614402 L12.1015711,9.03919254 L12.4216766,7.35038885 C12.5326206,6.76640998 12.1920494,6.50942981 11.6613845,6.77662867 L10.1257398,7.55029048 L8.61711695,6.7237914 C8.09583557,6.43813628 7.74701068,6.6823861 7.83714996,7.26993017 Z M3.98635169,1.06292248 C4.01356141,0.979025839 4.13056322,0.979025839 4.15822644,1.06292248 C4.54006954,2.23430103 4.91828468,2.61206268 6.08966323,2.99435928 C6.17355987,3.02202249 6.17355987,3.1390243 6.08966323,3.16623402 C4.91828468,3.54853062 4.54006954,3.92674576 4.15822644,5.09767082 C4.13056322,5.18156746 4.01356141,5.18156746 3.98635169,5.09767082 C3.60405509,3.92674576 3.22629345,3.54853062 2.0549149,3.16623402 C1.97056476,3.1390243 1.97056476,3.02202249 2.0549149,2.99435928 C3.22629345,2.61206268 3.60405509,2.23430103 3.98635169,1.06292248 Z" id="path-1"></path>
    </defs>
    <g id="icon/ticket" stroke="none" stroke-width="1" fill="none" fill-rule="evenodd">
        <mask id="mask-2" fill="white">
            <use xlink:href="#path-1"></use>
        </mask>
        <use id="Mask" fill="#999999" fill-rule="nonzero" xlink:href="#path-1"></use>
        <g id="Group" mask="url(#mask-2)">
            <g transform="translate(0.000000, -0.000000)">
                <rect id="Rectangle" fill="#FFFFFF" x="0" y="0" width="20" height="20"></rect>
            </g>
        </g>
    </g>
</svg>