<?xml version="1.0" encoding="UTF-8"?>
<svg width="20px" height="20px" viewBox="0 0 20 20" version="1.1" xmlns="http://www.w3.org/2000/svg" xmlns:xlink="http://www.w3.org/1999/xlink">
    <title>icon/timer - material</title>
    <defs>
        <path d="M10.5,2.5 L10.5,0.82 L5.5,0.82 L5.5,2.5 L10.5,2.5 Z M8,18.32 C9.36,18.32 10.62,17.98 11.78,17.3 C12.9133333,16.6333333 13.8133333,15.7333333 14.48,14.6 C15.16,13.44 15.5,12.18 15.5,10.82 C15.5,9.95333333 15.3533333,9.12 15.06,8.32 C14.78,7.54666667 14.38,6.83333333 13.86,6.18 L13.86,6.18 L15.04,4.96 C14.6266667,4.48 14.2333333,4.08666667 13.86,3.78 L13.86,3.78 L12.68,5 C12.0133333,4.48 11.2933333,4.07333333 10.52,3.78 C9.69333333,3.47333333 8.85333333,3.32 8,3.32 C6.64,3.32 5.38,3.66 4.22,4.34 C3.08666667,5.00666667 2.18666667,5.90666667 1.52,7.04 C0.84,8.2 0.5,9.46 0.5,10.82 C0.5,12.18 0.84,13.44 1.52,14.6 C2.18666667,15.7333333 3.08666667,16.6333333 4.22,17.3 C5.38,17.98 6.64,18.32 8,18.32 Z M8,16.68 C6.93333333,16.68 5.95333333,16.4133333 5.06,15.88 C4.18,15.36 3.48,14.6533333 2.96,13.76 C2.44,12.8666667 2.18,11.8866667 2.18,10.82 C2.18,9.75333333 2.44,8.77333333 2.96,7.88 C3.48,7 4.18,6.3 5.06,5.78 C5.95333333,5.26 6.93333333,5 8,5 C9.06666667,5 10.0466667,5.26 10.94,5.78 C11.82,6.3 12.52,7 13.04,7.88 C13.56,8.77333333 13.82,9.75333333 13.82,10.82 C13.82,11.8866667 13.56,12.8666667 13.04,13.76 C12.52,14.6533333 11.82,15.36 10.94,15.88 C10.0466667,16.4133333 9.06666667,16.68 8,16.68 Z M8.82,11.68 L8.82,6.68 L7.18,6.68 L7.18,11.68 L8.82,11.68 Z" id="path-1"></path>
    </defs>
    <g id="icon/timer---material" stroke="none" stroke-width="1" fill="none" fill-rule="evenodd">
        <g id="color/gray-copy-3" transform="translate(2.000000, 0.000000)">
            <mask id="mask-2" fill="white">
                <use xlink:href="#path-1"></use>
            </mask>
            <use id="Mask" fill="#999999" fill-rule="nonzero" xlink:href="#path-1"></use>
            <g id="Group" mask="url(#mask-2)">
                <g transform="translate(-2.000000, 0.000000)">
                    <rect id="Rectangle-Copy" fill="#788DB4" x="0" y="0" width="20" height="20"></rect>
                </g>
            </g>
        </g>
    </g>
</svg>