<?xml version="1.0" encoding="UTF-8"?>
<svg width="20px" height="20px" viewBox="0 0 20 20" version="1.1" xmlns="http://www.w3.org/2000/svg" xmlns:xlink="http://www.w3.org/1999/xlink">
    <title>icon/volume_up - material-white</title>
    <defs>
        <path d="M10,0 C15.523,0 20,4.477 20,10 C20,15.523 15.523,20 10,20 C4.477,20 0,15.523 0,10 C0,4.477 4.477,0 10,0 Z M10,1 C5.0375,1 1,5.0375 1,10 C1,14.9625 5.0375,19 10,19 C14.9625,19 19,14.9625 19,10 C19,5.0375 14.9625,1 10,1 Z M11.008,5.42 L11.2539063,5.4805625 C11.8204687,5.6371875 12.3365,5.901 12.802,6.272 C13.334,6.696 13.748,7.208 14.044,7.808 C14.348,8.432 14.5,9.096 14.5,9.8 C14.5,10.504 14.348,11.168 14.044,11.792 C13.748,12.392 13.334,12.904 12.802,13.328 C12.27,13.752 11.672,14.036 11.008,14.18 L11.008,14.18 L11.008,13.148 L11.2436667,13.072 C11.6292222,12.932 11.9786667,12.7253333 12.292,12.452 C12.668,12.124 12.962,11.73 13.174,11.27 C13.386,10.81 13.492,10.32 13.492,9.8 C13.492,9.28 13.386,8.79 13.174,8.33 C12.962,7.87 12.668,7.476 12.292,7.148 C11.916,6.82 11.488,6.588 11.008,6.452 L11.008,6.452 L11.008,5.42 Z M10,5.792 L10,13.808 L7.492,11.3 L5.5,11.3 L5.5,8.3 L7.492,8.3 L10,5.792 Z M11.008,7.784 L11.1933333,7.88683333 C11.4911111,8.06961111 11.7333333,8.30933333 11.92,8.606 C12.144,8.962 12.256,9.36 12.256,9.8 C12.256,10.24 12.144,10.638 11.92,10.994 C11.696,11.35 11.392,11.624 11.008,11.816 L11.008,11.816 L11.008,7.784 Z" id="path-1"></path>
    </defs>
    <g id="icon/volume_up---material-white" stroke="none" stroke-width="1" fill="none" fill-rule="evenodd">
        <mask id="mask-2" fill="white">
            <use xlink:href="#path-1"></use>
        </mask>
        <use id="Mask" fill="#FFFFFF" xlink:href="#path-1"></use>
        <g id="Group" mask="url(#mask-2)" fill="#FFFFFF">
            <g id="Rectangle">
                <rect x="0" y="0" width="20" height="20"></rect>
            </g>
        </g>
    </g>
</svg>