<?xml version="1.0" encoding="UTF-8"?>
<svg width="20px" height="20px" viewBox="0 0 20 20" version="1.1" xmlns="http://www.w3.org/2000/svg" xmlns:xlink="http://www.w3.org/1999/xlink">
    <title>icon/volume_off - material-white</title>
    <defs>
        <path d="M10,0 C15.523,0 20,4.477 20,10 C20,15.523 15.523,20 10,20 C4.477,20 0,15.523 0,10 C0,4.477 4.477,0 10,0 Z M10,1 C5.0375,1 1,5.0375 1,10 C1,14.9625 5.0375,19 10,19 C14.9625,19 19,14.9625 19,10 C19,5.0375 14.9625,1 10,1 Z M6.136,5.3 L14.5,13.664 L13.864,14.3 L12.832,13.268 L12.606625,13.4345 C12.079875,13.8055 11.547,14.054 11.008,14.18 L11.008,14.18 L11.008,13.148 L11.24512,13.07072 C11.55744,12.95424 11.8544,12.784 12.136,12.56 L12.136,12.56 L10,10.436 L10,13.808 L7.492,11.3 L5.5,11.3 L5.5,8.3 L7.864,8.3 L5.5,5.936 L6.136,5.3 Z M11.008,5.42 L11.2539063,5.4805625 C11.8204687,5.6371875 12.3365,5.901 12.802,6.272 C13.334,6.696 13.748,7.208 14.044,7.808 C14.348,8.432 14.5,9.096 14.5,9.8 C14.5,10.168 14.456,10.53 14.368,10.886 C14.28,11.242 14.152,11.576 13.984,11.888 L13.984,11.888 L13.24,11.108 L13.33072,10.85216 C13.43824,10.50912 13.492,10.1584 13.492,9.8 C13.492,9.28 13.386,8.79 13.174,8.33 C12.962,7.87 12.668,7.476 12.292,7.148 C11.916,6.82 11.488,6.588 11.008,6.452 L11.008,6.452 L11.008,5.42 Z M11.008,7.784 L11.1933333,7.88683333 C11.4911111,8.06961111 11.7333333,8.30933333 11.92,8.606 C12.144,8.962 12.256,9.36 12.256,9.8 C12.256,9.944 12.248,10.044 12.232,10.1 L12.232,10.1 L11.008,8.888 L11.008,7.784 Z M10,5.792 L10,7.904 L8.944,6.848 L10,5.792 Z" id="path-1"></path>
    </defs>
    <g id="icon/volume_off---material-white" stroke="none" stroke-width="1" fill="none" fill-rule="evenodd">
        <mask id="mask-2" fill="white">
            <use xlink:href="#path-1"></use>
        </mask>
        <use id="Mask" fill="#FFFFFF" xlink:href="#path-1"></use>
        <g id="Group" mask="url(#mask-2)" fill="#FFFFFF">
            <g id="Rectangle">
                <rect x="0" y="0" width="20" height="20"></rect>
            </g>
        </g>
    </g>
</svg>